<?xml version="1.0" encoding="utf-8"?>
<!-- Generator: Adobe Illustrator 16.0.0, SVG Export Plug-In . SVG Version: 6.00 Build 0)  -->
<!DOCTYPE svg PUBLIC "-//W3C//DTD SVG 1.0//EN" "http://www.w3.org/TR/2001/REC-SVG-20010904/DTD/svg10.dtd">
<svg version="1.0" id="Layer_1" xmlns="http://www.w3.org/2000/svg" xmlns:xlink="http://www.w3.org/1999/xlink" x="0px" y="0px"
	 width="75px" height="24px" viewBox="0 0 75 24" enable-background="new 0 0 75 24" xml:space="preserve">
<g>
	<path fill="#66CC00" d="M34.237-14.292c-0.04-0.035-0.115-0.081-0.243-0.119l-0.076,0.018c-0.208,0.05-0.407,0.151-0.608,0.31
		c-0.517,0.424-0.946,1.128-1.271,2.086c-0.049,0.141-0.074,0.306-0.074,0.495c0,0.326,0.062,0.621,0.185,0.875
		c0.168,0.321,0.332,0.321,0.402,0.321c0.249,0,0.57-0.149,0.929-0.431c0.379-0.284,0.633-0.557,0.764-0.82
		c0.288-0.577,0.433-1.084,0.433-1.508c0-0.277-0.057-0.541-0.175-0.805C34.366-14.157,34.271-14.261,34.237-14.292z"/>
	<path fill="#66CC00" d="M71-26H4l-4,4v16l4,4h67l4-4v-16L71-26z M35.066-9.626c-0.869,0.793-1.779,1.193-2.71,1.193
		c-0.329,0-0.617-0.065-0.857-0.194c-0.395-0.197-0.749-0.577-1.038-1.122c-0.165-0.312-0.266-0.651-0.333-1.002
		c-0.008,0.202-0.015,0.401-0.027,0.619c-0.011,0.127-0.013,0.264-0.008,0.429c0.006,0.198,0.009,0.549,0.009,0.583
		c0,0.517-0.354,1.12-0.902,1.12c-0.001,0-0.001,0-0.002,0c-0.539,0-0.899-0.552-1.01-1.085c-0.044-0.208-0.047-0.619-0.008-1.038
		c0.033-0.396,0.048-0.945,0.048-1.523c0-2.17-0.25-2.566-0.278-2.601c-0.132,0.031-0.601,0.117-1.624,1.046
		c-0.756,0.672-1.252,1.249-1.479,1.733c-0.329,0.688-0.455,1.396-0.376,2.115c0.055,0.559-0.041,0.961-0.292,1.239
		c-0.14,0.154-0.397,0.337-0.827,0.337c-0.393,0-0.637-0.162-0.772-0.297c-0.196-0.197-0.298-0.458-0.298-0.758
		c0-0.225,0.081-0.505,0.262-0.91c-0.007,0,0.033-0.285,0.074-1.692c0.045-1.582,0.153-3.178,0.322-4.743l0.261-3.082
		c0.043-0.457,0.15-1.582,0.964-1.582c0.694,0.039,1.1,0.461,1.1,1.105c0,0.126-0.015,0.381-0.142,1.141
		c-0.11,0.638-0.187,1.175-0.23,1.613c-0.089,0.958-0.167,1.863-0.234,2.712c-0.004,0.046-0.008,0.091-0.011,0.137
		c1.558-1.646,2.896-2.299,4.043-1.949c0.932,0.325,1.389,1.535,1.45,3.77c0.055-0.241,0.13-0.478,0.233-0.707
		c0.938-2.137,1.988-3.224,3.206-3.318c0.534-0.045,1.108,0.149,1.655,0.573c0.683,0.513,1.105,1.273,1.247,2.256
		c0.027,0.223,0.039,0.433,0.039,0.643C36.519-11.616,36.03-10.527,35.066-9.626z M45.88-8.853c-0.351,0-0.646-0.176-0.811-0.482
		c-0.119-0.215-0.244-0.638-0.244-2.101c0.022-0.741,0.039-1.466,0.05-2.192c0.004-0.46-0.017-0.786-0.046-1.016
		c-0.064,0.097-0.138,0.211-0.223,0.348c-0.475,0.766-0.903,1.606-1.272,2.497c-0.27,0.659-0.551,1.558-0.835,2.629
		C42.41-8.828,42.2-8,41.554-8h-0.058l-0.098-0.039c-0.5-0.13-0.82-0.468-0.914-0.937c-0.011-0.154-0.033-0.736-0.076-1.831
		c-0.062-1.698-0.125-2.7-0.178-3.287c-0.096,0.183-0.21,0.417-0.345,0.719c-0.529,1.172-0.883,2.321-1.054,3.418l0.006,0.7
		c0,0.33-0.039,0.795-0.375,1.027c-0.18,0.123-0.396,0.184-0.644,0.184l-0.101-0.003c-0.444-0.026-0.663-0.226-0.767-0.389
		c-0.122-0.19-0.172-0.476-0.172-0.988c0-0.404,0.088-1.535,0.271-3.458c0.031-0.334,0.036-0.543,0.015-0.944
		C37.057-13.954,37.05-14,37.044-14H37v-0.828c0-0.315,0.096-0.57,0.272-0.758c0.127-0.136,0.364-0.297,0.759-0.297
		c0.28,0,0.523,0.105,0.698,0.305c0.039,0.042,0.078,0.087,0.113,0.136c0.756-1.371,1.225-1.685,1.662-1.685
		c0.359,0,0.869,0.151,1.249,0.872c0.083,0.121,0.24,0.356,0.389,2.596c0.115-0.227,0.228-0.442,0.338-0.645
		c1.27-2.363,1.941-2.75,2.43-2.818l0.114-0.008c0.313,0,0.617,0.16,0.928,0.487c0.29,0.307,0.469,0.601,0.547,0.899
		c0.07,0.251,0.169,0.825,0.201,2.814c0.011,1.145,0.011,1.92,0,2.327c0,0,0.006,0.076,0.065,0.28
		c0.071,0.252,0.103,0.426,0.103,0.566C46.867-9.34,46.608-8.853,45.88-8.853z M55.12-11.177l-1.904,1.403
		c-1.37,0.917-2.461,1.357-3.354,1.357c-0.881,0-1.649-0.436-2.284-1.295c-0.546-0.774-0.82-1.589-0.82-2.431
		c0-1.188,0.562-2.23,1.67-3.098c1.003-0.795,2.103-1.199,3.266-1.199c0.666,0,1.244,0.157,1.718,0.467
		c0.167,0.083,0.293,0.293,0.293,0.536c0,0.375-0.287,0.756-1.023,1.359c-0.485,0.403-0.892,0.784-1.471,1.131
		C50.509-12.519,50-12.249,49-12.144c0,0.008,0,0.017,0,0.025c0,0.397-0.012,0.78,0.24,1.17c0.42,0.66,0.739,0.66,0.866,0.66
		c0.357-0.013,0.964-0.2,2.201-1.02c1.176-0.79,1.403-1.063,1.449-1.128c0.218-0.387,0.521-0.827,0.969-0.827
		c0.173,0,0.343,0.054,0.513,0.16c0.407,0.298,0.484,0.64,0.484,0.877C55.723-11.938,55.616-11.521,55.12-11.177z"/>
</g>
<g>
	<path fill="#66CC00" d="M155-26H88l-4,4v16l4,4h67l4-4v-16L155-26z M106.686-10.778c-0.937,0.583-1.874,1.08-2.789,1.48
		c-1.267,0.538-2.314,0.798-3.208,0.798c-0.966,0-1.698-0.314-2.176-0.934c-0.28-0.353-0.423-0.791-0.423-1.297
		c0-0.059,0.019-0.122,0.022-0.181c-0.051,0.27-0.092,0.536-0.165,0.812C97.72-9.143,97.59-8.856,97.41-8.708
		c-0.103,0.1-0.269,0.195-0.526,0.195L96.78-8.519c-0.311-0.028-0.501-0.17-0.607-0.284c-0.005-0.005-0.01-0.011-0.015-0.016
		c-0.73,0.413-1.409,0.621-2.021,0.621c-0.555,0-1.004-0.176-1.336-0.524c-0.326-0.341-0.491-0.78-0.491-1.303
		c0-0.679,0.243-1.348,0.721-1.988c0.494-0.662,1.085-1.046,1.756-1.145c0.101-0.014-0.036-0.02,0.055-0.02
		c0.417,0,1.157,0.135,1.157,0.641c0-0.025,0-0.05,0-0.076c0-0.685,0.064-1.333-0.262-1.926c-0.163-0.303-0.252-0.43-0.573-0.43
		c-0.228,0-0.383,0.058-0.595,0.178c-0.084,0.048-0.113,0.087-0.15,0.116l0.021,0.032l-0.153,0.231
		c-0.081,0.098-0.231,0.215-0.506,0.215c-0.563,0-0.939-0.323-0.983-0.844c-0.041-0.492,0.26-0.921,0.892-1.276
		c0.942-0.53,2.152-0.595,2.883-0.129c1.145,0.721,1.727,2,1.727,3.799c0,0.315-0.033,0.646-0.069,0.977
		c0.213-0.802,0.679-1.66,1.416-2.568c1.032-1.266,1.971-1.946,2.869-2.078c0.138-0.016,0.251-0.022,0.358-0.022
		c0.79,0,1.071,0.466,1.071,0.903c0,0.269-0.108,0.546-0.321,0.825c-0.306,0.398-0.631,0.482-0.851,0.482
		c-0.096,0-0.213-0.017-0.379-0.054c-0.128-0.029-0.173-0.03-0.175-0.03c-0.032,0.009-0.323,0.131-1.167,1.218
		c-0.858,1.097-1.038,1.754-1.038,2.112c0,0.231,0.081,0.381,0.271,0.502c0.114,0.07,0.292,0.107,0.522,0.107
		c0.799,0,2.027-0.428,3.65-1.271c0.791-0.45,1.603-0.91,2.421-1.37c0.408-0.204,0.819-0.086,1.071,0.242
		c0.162,0.211,0.221,0.462,0.167,0.706C108.086-11.747,108.006-11.615,106.686-10.778z M115.664-10.204
		c0.129,0.398,0.142,0.475,0.142,0.566c0,0.125-0.022,0.267-0.068,0.434c-0.104,0.387-0.435,0.62-0.886,0.62
		c-0.249,0-0.489-0.09-0.713-0.267c-0.282-0.224-0.391-0.637-0.391-1.476c0-0.018,0-0.073,0.168-3.652
		c0.046-0.816,0.077-1.262,0.089-1.344c0.001-0.008,0.004-0.014,0.005-0.022c-0.052,0.006-0.094,0.024-0.15,0.024
		c-0.081,0-0.203-0.009-0.365-0.029c-0.1-0.012-0.169-0.021-0.207-0.021c-0.642,0-1.432,0.095-2.35,0.284
		c-0.215,1.865-0.324,3.454-0.324,4.727c0,0.294,0.005,0.561,0.016,0.8l0.03,0.114c0.037,0.163,0.054,0.297,0.054,0.413
		c0,0.55-0.355,0.906-0.905,0.906l-0.101-0.004c-0.37-0.021-0.684-0.234-0.877-0.602c-0.134-0.268-0.19-0.55-0.174-0.848
		c-0.001-0.583,0.062-1.775,0.185-3.519c0.051-0.393,0.111-0.894,0.183-1.512c-0.195,0.066-0.42,0.145-0.674,0.237
		c-0.182,0.089-0.419,0.236-0.659,0.417c-0.254,0.191-0.445,0.273-0.637,0.273l-0.194-0.032c-0.772-0.196-0.86-0.736-0.86-0.959
		c0-0.699,0.788-1.08,1.381-1.305c0.361-0.144,1.006-0.359,1.916-0.639c0.08-0.55,0.374-1.518,0.528-2.888
		c0.01-0.069,0.174-0.143,0.174-0.245v-0.453c0-1.071,0.491-1.154,0.695-1.154c0.457,0,0.914,0.296,0.914,1.705
		c0,0.271-0.062,0.588-0.097,0.952c-0.056,0.357-0.162,0.921-0.278,1.706c0.716-0.099,1.404-0.13,2.075-0.096
		c0.471,0.017,0.64,0.057,0.749,0.093c0.352,0.082,0.597,0.517,0.674,0.85c0.072-0.021,0.139,0.15,0.197,0.15
		c0.002,0,0.005,0,0.007,0c0.362,0,0.627-0.054,0.826,0.193c0.136,0.171,0.287,0.374,0.242,0.817
		c-0.233,2.145-0.369,3.463-0.402,4.016C115.58-10.526,115.623-10.329,115.664-10.204z M115.994-20.531
		c-0.077,0.166-0.226,0.507-0.446,1.025c-0.056,0.153-0.103,0.354-0.132,0.575c-0.022,0.193-0.078,0.468-0.281,0.649
		c-0.191,0.213-0.406,0.32-0.639,0.32c-0.131,0-0.328-0.037-0.519-0.213c-0.264-0.229-0.295-0.607-0.295-0.872
		c0-0.421,0.112-0.872,0.334-1.34c0.013-0.033,0.11-0.299,0.284-0.779c0.136-0.384,0.444-0.616,0.823-0.616
		c0.364,0,0.579,0.152,0.695,0.28c0.18,0.197,0.254,0.468,0.223,0.805L115.994-20.531z M124.497-14.934
		c-0.201,0.174-0.718,0.787-2.007,2.687c-1.231,1.805-1.617,2.457-1.725,2.687c-0.335,0.787-0.784,1.195-1.326,1.195
		c-0.165,0-0.327-0.044-0.481-0.131c-0.25-0.135-0.448-0.398-0.579-0.776c-0.065-0.241-0.124-0.446-0.189-0.651
		c-0.244-1.028-0.534-2.16-0.879-3.43c-0.388-1.078-0.421-1.313-0.421-1.458c0-0.833,1.075-1.176,1.775-0.23
		c0.229,0.31,0.402,0.688,0.519,1.127c0.065,0.4,0.216,1.124,0.458,2.203c0.01,0.041,0.022,0.089,0.037,0.144
		c0.36-0.517,0.833-1.19,1.419-2.02c0.792-1.049,1.591-2.134,2.406-3.269c0.209-0.484,0.554-1.093,1.161-1.093
		c0.173,0,0.498,0.057,0.735,0.436c0.134,0.215,0.202,0.44,0.202,0.668C125.6-16.189,125.229-15.546,124.497-14.934z
		 M127.003-10.204c0.129,0.398,0.142,0.475,0.142,0.566c0,0.125-0.022,0.267-0.068,0.434c-0.104,0.387-0.435,0.62-0.886,0.62
		c-0.249,0-0.489-0.09-0.713-0.267c-0.282-0.224-0.391-0.637-0.391-1.476c0-0.018,0-0.073,0.168-3.652
		c0.046-0.816,0.077-1.077,0.089-1.158c0.146-0.881,0.642-0.862,0.924-0.862c0.002,0,0.005,0,0.007,0
		c0.362,0,0.627-0.054,0.826,0.193c0.136,0.171,0.287,0.374,0.242,0.817c-0.233,2.145-0.369,3.463-0.402,4.016
		C126.919-10.526,126.963-10.329,127.003-10.204z M127.333-20.531c-0.077,0.166-0.226,0.507-0.446,1.025
		c-0.056,0.153-0.103,0.354-0.132,0.575c-0.022,0.193-0.078,0.468-0.281,0.649c-0.191,0.213-0.406,0.32-0.639,0.32
		c-0.131,0-0.328-0.037-0.519-0.213c-0.264-0.229-0.295-0.607-0.295-0.872c0-0.421,0.112-0.872,0.334-1.34
		c0.013-0.033,0.11-0.299,0.284-0.779c0.136-0.384,0.444-0.616,0.823-0.616c0.364,0,0.579,0.152,0.695,0.28
		c0.18,0.197,0.254,0.468,0.223,0.805L127.333-20.531z M137.184-10.204c0.129,0.398,0.142,0.475,0.142,0.566
		c0,0.125-0.022,0.267-0.068,0.434c-0.104,0.387-0.435,0.62-0.886,0.62c-0.249,0-0.489-0.09-0.713-0.267
		c-0.282-0.224-0.391-0.637-0.391-1.476c0-0.018,0-0.073,0.168-3.652c0.046-0.816,0.077-1.262,0.089-1.344
		c0.001-0.008,0.004-0.014,0.005-0.022c-0.052,0.006-0.094,0.024-0.15,0.024c-0.081,0-0.203-0.009-0.365-0.029
		c-0.1-0.012-0.169-0.021-0.207-0.021c-0.642,0-1.432,0.095-2.35,0.284c-0.215,1.865-0.324,3.454-0.324,4.727
		c0,0.294,0.005,0.561,0.016,0.8l0.03,0.114c0.037,0.163,0.054,0.297,0.054,0.413c0,0.55-0.355,0.906-0.905,0.906l-0.101-0.004
		c-0.37-0.021-0.684-0.234-0.877-0.602c-0.134-0.268-0.19-0.55-0.174-0.848c-0.001-0.583,0.062-1.775,0.185-3.519
		c0.051-0.393,0.111-0.894,0.183-1.512c-0.195,0.066-0.42,0.145-0.674,0.237c-0.182,0.089-0.419,0.236-0.659,0.417
		c-0.254,0.191-0.445,0.273-0.637,0.273l-0.194-0.032c-0.772-0.196-0.86-0.736-0.86-0.959c0-0.699,0.788-1.08,1.381-1.305
		c0.361-0.144,1.006-0.359,1.916-0.639c0.08-0.55,0.113-1.518,0.268-2.888c0.009-0.069-0.087-0.143-0.087-0.245v-0.453
		c0-1.071,0.751-1.154,0.956-1.154c0.457,0,1.044,0.296,1.044,1.705c0,0.271,0.003,0.588-0.032,0.952
		c-0.056,0.357-0.13,0.921-0.245,1.706c0.717-0.099,1.42-0.13,2.091-0.096c0.471,0.017,0.649,0.057,0.757,0.093
		c0.352,0.082,0.6,0.517,0.677,0.85c0.072-0.021,0.143,0.15,0.202,0.15c0.002,0,0.005,0,0.007,0c0.362,0,0.627-0.054,0.826,0.193
		c0.136,0.171,0.287,0.374,0.242,0.817c-0.233,2.145-0.369,3.463-0.402,4.016C137.1-10.526,137.144-10.329,137.184-10.204z
		 M137.514-20.531c-0.077,0.166-0.226,0.507-0.446,1.025c-0.056,0.153-0.103,0.354-0.132,0.575
		c-0.022,0.193-0.078,0.468-0.281,0.649c-0.191,0.213-0.406,0.32-0.639,0.32c-0.131,0-0.328-0.037-0.519-0.213
		c-0.264-0.229-0.295-0.607-0.295-0.872c0-0.421,0.112-0.872,0.334-1.34c0.013-0.033,0.11-0.299,0.284-0.779
		c0.136-0.384,0.444-0.616,0.823-0.616c0.364,0,0.579,0.152,0.695,0.28c0.18,0.197,0.254,0.468,0.223,0.805L137.514-20.531z
		 M147.702-13.047c0.052,0.307,0.212,0.525,0.504,0.686l1.382,0.526c1.071,0.413,1.316,0.529,1.422,0.592
		c0.511,0.316,0.818,0.79,0.894,1.373c0.062,0.554-0.415,1.148-1.644,1.91C148.925-7.129,148.62-7,148.404-7h-0.036l-0.055-0.067
		c-0.747-0.018-1.034-0.533-1.034-0.979c0-0.21,0.077-0.425,0.222-0.594l0.164-0.133l1.345-0.642
		c0.392-0.196,0.622-0.342,0.756-0.44c-0.115-0.056-0.292-0.129-0.559-0.214c-0.975-0.306-1.624-0.557-1.984-0.769
		c-0.352-0.199-0.624-0.438-0.844-0.701c-0.089,0.123-0.199,0.246-0.364,0.36l-1.904,1.403c-1.37,0.917-2.461,1.357-3.354,1.357
		c-0.881,0-1.649-0.436-2.284-1.295c-0.546-0.774-0.82-1.589-0.82-2.431c0-1.188,0.562-2.23,1.67-3.098
		c1.003-0.795,2.103-1.199,3.266-1.199c0.666,0,1.244,0.157,1.718,0.467c0.167,0.083,0.293,0.293,0.293,0.536
		c0,0.375-0.287,0.756-1.023,1.359c-0.485,0.403-0.84,0.784-1.419,1.131c-0.701,0.427-2.158,0.697-2.158,0.802
		c0,0.008,0,0.017,0,0.025c0,0.397-0.064,0.78,0.188,1.17c0.42,0.66,0.713,0.66,0.84,0.66c0.356-0.013,0.95-0.2,2.187-1.02
		c1.176-0.79,1.397-1.063,1.443-1.128c0.218-0.387,0.518-0.827,0.966-0.827c0.077,0,0.148,0.015,0.225,0.036
		c0.033-0.85,0.413-1.729,1.187-2.619c0.383-0.431,1.098-1.08,2.189-1.988c0.48-0.4,1.044-0.486,1.596-0.241
		c0.205,0.114,0.371,0.211,0.542,0.313c0.286,0.195,0.532,0.4,0.574,0.695c0.058,0.315-0.053,0.533-0.156,0.657
		c-0.107,0.129-0.315,0.283-0.691,0.283c-0.202,0-0.407-0.052-0.61-0.153c-0.032-0.016-0.06-0.03-0.083-0.041
		c-0.105,0.022-0.239,0.094-0.383,0.214l-1.307,1.208c-0.346,0.307-0.616,0.67-0.809,1.086
		C147.69-13.365,147.686-13.141,147.702-13.047z"/>
	<path fill="#66CC00" d="M94.1-10.092c0,0.034,0.001,0.062,0.003,0.083c0.215,0.032,0.664-0.055,1.424-0.6
		c-0.199-0.523-0.351-0.687-0.403-0.73c-0.337,0.07-0.592,0.236-0.777,0.505C94.18-10.598,94.1-10.357,94.1-10.092z"/>
</g>
<path fill="#66CC00" d="M239-26h-67l-4,4v16l4,4h59.079c0.038-0.283,0.136-0.467,0.255-0.582c0.063-0.342,0.219-1.46,0.585-5.074
	c0.176-1.675,0.298-3.201,0.365-4.557c-2.058,2.385-2.821,2.738-3.337,2.738C228.479-9.489,228-9.777,228-11.066
	c0-0.014,0-0.031,0-0.052c0,0.1-0.368,0.209-0.575,0.34c-0.938,0.583-1.899,1.08-2.813,1.48c-1.249,0.53-2.338,0.798-3.221,0.798
	c-0.967,0-1.705-0.314-2.183-0.934c-0.262-0.33-0.396-0.741-0.412-1.207c0.007,0.711,0.019,0.988,0.027,1.089
	c0.209,0.441,0.302,0.743,0.302,0.972c0,0.559-0.349,0.92-0.888,0.92c-0.306,0-0.59-0.117-0.846-0.346
	c-0.268-0.239-0.41-0.554-0.41-0.91c0-0.067,0.01-0.011,0.035-0.137C217.024-9.095,217.031-9,217.032-9h0.007
	c-0.027-1-0.052-0.646-0.089-1.117c-0.068-0.669-0.098-1.466-0.086-2.208c0.018-0.688,0.017-1.225,0.008-1.584
	c-0.058,0.103-0.122,0.2-0.192,0.333c-0.502,0.944-0.957,1.941-1.352,2.983c-0.151,0.401-0.299,0.861-0.438,1.376
	c-0.115,0.431-0.239,0.659-0.426,0.793c-0.274,0.136-0.447,0.177-0.611,0.177c-0.228,0-0.97-0.091-0.97-1.256
	c0-0.125,0.017-0.532,0.051-1.218c0.015-0.243,0.017-0.47,0.027-0.708c-0.077,0.086-0.168,0.172-0.285,0.253l-1.903,1.403
	c-1.369,0.917-2.46,1.357-3.354,1.357c-0.881,0-1.649-0.436-2.284-1.294c-0.546-0.775-0.819-1.589-0.819-2.431
	c0-0.992,0.414-1.875,1.188-2.646l-0.12,0.015c-0.136,0-0.286-0.028-0.458-0.086c-0.166-0.055-0.227-0.058-0.229-0.058
	c-0.051,0-0.108,0.02-0.175,0.061c-0.994,0.561-2.129,1.812-3.389,3.729c-0.201,0.302-0.329,0.729-0.382,1.27
	c-0.098,0.99-0.153,1.146-0.267,1.289c-0.197,0.241-0.467,0.372-0.761,0.372c-0.32,0-0.604-0.126-0.822-0.365
	c-0.173-0.171-0.266-0.441-0.266-0.807c0-0.114,0.012-0.341,0.105-1.087c0.087-0.604,0.142-1.136,0.165-1.592
	c0.021-0.406,0.032-0.778,0.032-1.118c0-0.502-0.022-0.94-0.066-1.312l-0.516-0.327c-0.092-0.014-0.178-0.018-0.285-0.054
	c-0.167-0.056-0.227-0.058-0.229-0.058c-0.05,0-0.109,0.02-0.173,0.06c-0.994,0.561-2.129,1.812-3.389,3.729
	c-0.201,0.302-0.329,0.728-0.382,1.27c-0.103,1.037-0.165,1.159-0.265,1.286c-0.203,0.248-0.464,0.375-0.762,0.375
	c-0.321,0-0.605-0.126-0.823-0.365c-0.173-0.171-0.265-0.441-0.265-0.807c0-0.106,0.011-0.334,0.104-1.086
	c0.088-0.609,0.143-1.141,0.165-1.592c0.022-0.407,0.033-0.78,0.033-1.119c0-0.536-0.025-1-0.075-1.387l-0.807,1.304
	c-0.097,0.424-0.206,0.871-0.336,1.355c-0.678,2.419-1.196,2.947-1.613,3.144c-0.238,0.12-0.488,0.183-0.734,0.183
	c-0.963,0-1.638-0.828-2.055-2.545c-0.148,0.098-0.313,0.205-0.517,0.334c-0.937,0.583-1.874,1.08-2.789,1.48
	c-1.267,0.538-2.314,0.798-3.208,0.798c-0.966,0-1.698-0.314-2.176-0.934c-0.28-0.353-0.423-0.791-0.423-1.297
	c0-1.054,0.524-2.234,1.557-3.507c1.032-1.266,1.971-1.946,2.869-2.078c0.138-0.016,0.251-0.022,0.358-0.022
	c0.79,0,1.071,0.466,1.071,0.903c0,0.269-0.108,0.546-0.321,0.825c-0.306,0.398-0.631,0.482-0.851,0.482
	c-0.096,0-0.213-0.017-0.379-0.054c-0.128-0.029-0.173-0.03-0.175-0.03c-0.032,0.009-0.323,0.131-1.167,1.218
	c-0.858,1.097-1.038,1.754-1.038,2.112c0,0.231,0.081,0.381,0.271,0.502c0.114,0.07,0.292,0.107,0.522,0.107
	c0.799,0,2.027-0.428,3.65-1.271c0.791-0.45,1.603-0.91,2.421-1.37c0.005-0.002,0.011-0.002,0.016-0.005
	c-0.092-0.795-0.156-1.695-0.187-2.719c-0.018-0.352,0.059-0.625,0.233-0.824c0.164-0.185,0.383-0.286,0.618-0.286l0.158,0.015
	c0.593,0.114,0.933,0.542,0.914,1.146c-0.054,1.397,0.044,2.654,0.291,3.737c0.125,0.579,0.243,0.899,0.328,1.073
	c0.297-0.57,0.554-1.384,0.761-2.421c0.15-0.793,0.232-1.416,0.242-1.846c0.021-0.807,0.523-1.094,0.988-1.094
	c0.322,0.013,0.917,0.144,1.018,1.123l0.006,0.061l-0.001,0.009l0.309-1.237c0.026-0.042,0.054-0.083,0.083-0.12l1.013-0.381
	c0.174,0.041,0.34,0.132,0.497,0.274c0.325,0.307,0.472,0.904,0.5,2.004c0.004,0.172,0.008,0.382,0.011,0.63
	c0.516-0.605,0.986-1.106,1.401-1.49c0.749-0.703,0.956-0.874,1.053-0.944c0.824-0.57,1.642-0.687,2.536-0.389l0.001,0l0.848-0.088
	c0.177,0.04,0.346,0.132,0.504,0.276c0.325,0.306,0.473,0.903,0.5,2.004c0.004,0.172,0.008,0.383,0.011,0.631
	c0.514-0.603,0.984-1.104,1.4-1.49c0.752-0.705,0.959-0.875,1.056-0.945c0.823-0.57,1.646-0.685,2.534-0.388
	c0.181,0.065,0.577,0.275,0.577,0.911c0,0.078-0.02,0.148-0.037,0.22c0.911-0.633,1.894-0.972,2.93-0.972
	c0.666,0,1.244,0.157,1.719,0.467c0.168,0.085,0.294,0.295,0.294,0.536c0,0.375-0.287,0.756-1.024,1.359
	c-0.481,0.401-1.167,0.782-1.749,1.131c-0.701,0.428-1.488,0.697-2.488,0.802c0,0.008,0,0.017,0,0.025
	c0,0.397,0.266,0.78,0.518,1.169c0.422,0.661,0.879,0.661,1.006,0.661c0.357-0.013,1.034-0.2,2.271-1.02
	c1.176-0.79,1.438-1.063,1.484-1.128c0.218-0.387,0.538-0.827,0.986-0.827c0.173,0,0.351,0.054,0.521,0.16
	c0.094,0.069,0.17,0.14,0.231,0.211c0.025-1.109,0.099-2.129,0.223-3.031c0.104-0.607,0.514-0.818,0.864-0.818
	c0.383,0,0.708,0.162,0.938,0.467c0.111,0.143,0.168,0.336,0.168,0.587c0,0.097-0.025,0.376-0.08,0.84
	c-0.007,0.06-0.013,0.119-0.02,0.178c1.095-1.866,1.737-2.166,2.229-2.166l0.195,0.021c0.934,0.188,1.096,1.415,1.149,1.818
	c0.081,0.583,0.115,1.641,0.104,3.227c0,0.373,0.001,0.679,0.003,0.939c0.031-1.03,0.543-2.174,1.544-3.408
	c1.034-1.267,1.973-1.946,2.869-2.078c0.138-0.016,0.252-0.022,0.359-0.022c0.79,0,1.071,0.466,1.071,0.903
	c0,0.268-0.108,0.545-0.321,0.825c-0.305,0.398-0.631,0.482-0.852,0.482c-0.096,0-0.213-0.017-0.379-0.054
	c-0.128-0.029-0.173-0.03-0.175-0.03c-0.032,0.009-0.325,0.131-1.167,1.218c-0.858,1.097-1.038,1.754-1.038,2.112
	c0,0.231,0.081,0.381,0.271,0.502c0.114,0.069,0.292,0.107,0.522,0.107c0.799,0,2.027-0.428,3.65-1.271
	c0.789-0.45,1.603-0.91,2.421-1.37c0.183-0.092,0.363-0.11,0.532-0.083c0.063-0.49,0.147-1.105,0.259-1.887
	c0.093-0.679,0.145-1.049,0.157-1.107c0.145-0.601,0.467-0.802,0.713-0.868l0.197-0.029c0.188,0,0.382,0.071,0.594,0.217
	c0.361,0.25,0.457,0.54,0.475,0.738c0.002,0.121,0.002,0.208-0.344,1.955c-0.147,0.764-0.23,1.282-0.276,1.632
	c0.119-0.117,0.267-0.267,0.445-0.458c0.254-0.276,0.894-1.011,1.919-2.202l-0.001,0c-0.007,0,0.074-0.149,0.208-0.398
	c0.259-0.469,0.583-0.566,0.81-0.566c0.109,0,0.225,0.02,0.342,0.059c0.663,0.249,0.746,1.138,0.746,1.886
	c0,0.214-0.013,0.415-0.038,0.604c-0.155,1.574-0.418,4.101-0.788,7.564c-0.079,0.712-0.18,1.506-0.304,2.385
	c-0.09,0.625-0.117,0.878-0.126,0.98c0.099,0.153,0.158,0.319,0.197,0.49H239l4-4v-16L239-26z"/>
<g>
	<path fill="#66CC00" d="M296.576-13.071c0.05-0.231-0.131-0.57-0.508-0.955c-0.272-0.279-0.539-0.474-0.797-0.585
		c-0.083,0.437-0.188,1.025-0.318,1.766c-0.073,0.449-0.166,1.128-0.279,2.061c0.147-0.1,0.287-0.201,0.417-0.304
		C295.935-11.752,296.435-12.419,296.576-13.071z"/>
	<path fill="#66CC00" d="M288.506-10.834c-0.169,0.237-0.249,0.477-0.249,0.742c0,0.034,0.001,0.062,0.003,0.083
		c0.024,0.004,0.048,0.005,0.068,0.005c0.242,0,0.667-0.111,1.356-0.604c-0.199-0.524-0.351-0.687-0.402-0.73
		C288.944-11.269,288.69-11.103,288.506-10.834z"/>
	<path fill="#66CC00" d="M323-26h-67l-4,4v16l4,4h36.501c-0.032-0.118-0.053-0.244-0.053-0.381c0-0.164,0.033-0.319,0.1-0.461
		c-0.002-0.095-0.013-0.286-0.028-0.596L292.5-3.81c-0.034-0.643-0.052-1.271-0.052-1.885c0-0.489,0.012-0.985,0.035-1.486
		c0.067-1.543,0.164-2.912,0.287-4.066c0.034-0.249,0.182-1.369,0.444-3.375c-0.284-0.219-0.421-0.539-0.376-0.905
		c0.09-0.414,0.368-0.702,0.836-0.903c0.322-0.14,0.602-0.209,0.853-0.209c0.804,0.013,1.606,0.311,2.396,0.886
		c0.728,0.549,1.199,1.204,1.424,1.95c0.155-0.669,0.513-1.352,1.111-2.042c0.385-0.432,1.1-1.08,2.192-1.988
		c0.48-0.4,1.044-0.486,1.597-0.241c0.205,0.114,0.371,0.211,0.542,0.313c0.285,0.195,0.53,0.4,0.573,0.692
		c0.058,0.32-0.053,0.538-0.156,0.661c-0.108,0.128-0.315,0.282-0.691,0.282c-0.202,0-0.407-0.052-0.61-0.154
		c-0.031-0.016-0.059-0.029-0.082-0.04c-0.105,0.023-0.238,0.094-0.382,0.213l-1.309,1.209c-0.345,0.306-0.615,0.67-0.81,1.087
		c-0.206,0.448-0.211,0.671-0.195,0.765c0.053,0.307,0.214,0.525,0.505,0.686l1.383,0.526c1.072,0.414,1.317,0.529,1.423,0.593
		c0.511,0.315,0.818,0.79,0.893,1.372c0.062,0.553-0.414,1.147-1.644,1.91C301.353-7.13,301.038-7,300.83-7h-0.036l-0.055-0.067
		c-0.747-0.018-1.034-0.533-1.034-0.979c0-0.209,0.077-0.424,0.223-0.594l0.164-0.133l1.345-0.642
		c0.392-0.196,0.622-0.342,0.756-0.44c-0.115-0.056-0.292-0.129-0.559-0.214c-0.975-0.305-1.624-0.557-1.983-0.769
		c-0.681-0.384-1.104-0.897-1.287-1.516c-0.133,0.378-0.363,0.787-0.722,1.242c-0.416,0.555-0.959,1.128-1.608,1.696
		c-0.857,0.752-1.072,0.84-1.249,0.872c-0.066,0.019-0.217,0.029-0.339,0.008c-0.039,0.585-0.086,1.495-0.14,2.904
		c-0.043,2.456,0.014,2.907,0.032,2.986c0.062,0.132,0.102,0.308,0.102,0.479c0,0.059-0.023,0.108-0.032,0.164H323l4-4v-16L323-26z
		 M285.321-8.853c-0.351,0-0.646-0.176-0.81-0.482c-0.119-0.215-0.245-0.638-0.245-2.101c0.022-0.741,0.039-1.466,0.051-2.192
		c0.004-0.461-0.017-0.787-0.047-1.016c-0.063,0.097-0.138,0.211-0.223,0.348c-0.478,0.771-0.905,1.612-1.271,2.497
		c-0.271,0.661-0.553,1.559-0.836,2.629C281.852-8.828,281.642-8,280.995-8h-0.058l-0.098-0.039
		c-0.501-0.13-0.821-0.468-0.914-0.937c-0.011-0.153-0.033-0.735-0.077-1.83c-0.061-1.7-0.125-2.701-0.179-3.285
		c-0.095,0.182-0.209,0.416-0.343,0.717c-0.529,1.172-0.884,2.321-1.055,3.418l0.006,0.7c0,0.33-0.039,0.796-0.377,1.028
		c-0.178,0.122-0.394,0.183-0.642,0.183l-0.101-0.003c-0.447-0.026-0.665-0.228-0.77-0.393c-0.121-0.186-0.17-0.463-0.17-0.984
		c0-0.398,0.089-1.529,0.271-3.457c0.031-0.33,0.037-0.539,0.016-0.944c-0.008-0.128-0.015-0.174-0.021-0.174H276v-0.828
		c0-0.315,0.316-0.57,0.492-0.758c0.127-0.136,0.475-0.297,0.869-0.297c0.281,0,0.58,0.106,0.754,0.306
		c0.04,0.042,0.105,0.086,0.141,0.135c0.756-1.371,1.237-1.685,1.675-1.685c0.359,0,0.876,0.151,1.257,0.872
		c0.083,0.122,0.242,0.356,0.392,2.597c0.115-0.228,0.229-0.443,0.341-0.646c1.269-2.362,1.94-2.75,2.43-2.818l0.114-0.008
		c0.314,0,0.617,0.16,0.929,0.488c0.291,0.308,0.47,0.602,0.547,0.9c0.07,0.25,0.17,0.823,0.201,2.812
		c0.011,1.145,0.011,1.919,0,2.327c0.001,0,0.006,0.077,0.064,0.279c0.071,0.253,0.104,0.427,0.104,0.567
		C286.309-9.34,286.05-8.853,285.321-8.853z M292.104-10.1c-0.225,0.944-0.358,1.24-0.533,1.388c-0.103,0.1-0.27,0.198-0.53,0.198
		l-0.104-0.005c-0.311-0.028-0.501-0.17-0.607-0.284c-0.005-0.005-0.01-0.011-0.015-0.016c-0.73,0.413-1.408,0.621-2.021,0.621
		c-0.555,0-1.004-0.176-1.336-0.524c-0.326-0.34-0.491-0.779-0.491-1.303c0-0.679,0.242-1.347,0.721-1.988
		c0.495-0.662,1.087-1.047,1.757-1.145c0.101-0.014,0.387-0.02,0.477-0.02c0.416,0,0.578,0.135,1.578,0.641c0-0.025,0-0.05,0-0.076
		c0-0.685-0.357-1.333-0.684-1.926c-0.163-0.303-0.463-0.43-0.783-0.43c-0.228,0-0.489,0.058-0.701,0.178
		c-0.082,0.047-0.162,0.085-0.199,0.114l-0.007,0.027l-0.165,0.234c-0.081,0.1-0.239,0.219-0.516,0.219
		c-0.562,0-0.941-0.323-0.986-0.843c-0.041-0.494,0.26-0.922,0.891-1.277c0.94-0.529,2.148-0.594,2.881-0.129
		c1.145,0.721,1.727,1.999,1.727,3.799C292.457-11.846,292.339-10.989,292.104-10.1z"/>
</g>
<g>
	<path fill="#66CC00" d="M375.041-14.292c-0.04-0.035-0.115-0.081-0.244-0.12l-0.075,0.019c-0.208,0.05-0.407,0.151-0.608,0.31
		c-0.516,0.423-0.946,1.127-1.271,2.086c-0.049,0.141-0.073,0.306-0.073,0.495c0,0.326,0.062,0.621,0.185,0.875
		c0.169,0.321,0.332,0.321,0.402,0.321c0.248,0,0.57-0.149,0.93-0.431c0.379-0.283,0.632-0.557,0.764-0.82
		c0.287-0.578,0.433-1.085,0.433-1.508c0-0.278-0.058-0.541-0.175-0.804C375.17-14.156,375.075-14.261,375.041-14.292z"/>
	<path fill="#66CC00" d="M367.092-14.395c-0.072,0.414-0.158,1.037-0.256,1.858c-0.008,0.235-0.013,0.502-0.013,0.765
		c0,0.454,0.016,0.874,0.045,1.256c2.272-1.729,2.634-2.625,2.634-3.02c0-0.24-0.258-0.448-0.767-0.618
		C368.222-14.328,367.652-14.417,367.092-14.395z"/>
	<path fill="#66CC00" d="M360.536-10.834c-0.169,0.237-0.249,0.477-0.249,0.742c0,0.034,0.001,0.062,0.003,0.083
		c0.024,0.004,0.048,0.005,0.068,0.005c0.242,0,0.667-0.111,1.356-0.604c-0.199-0.524-0.351-0.687-0.402-0.73
		C360.975-11.269,360.721-11.103,360.536-10.834z"/>
	<path fill="#66CC00" d="M407-26h-67l-4,4v16l4,4h67l4-4v-16L407-26z M364.135-10.1c-0.225,0.944-0.358,1.24-0.533,1.388
		c-0.103,0.101-0.27,0.198-0.53,0.198l-0.104-0.005c-0.311-0.028-0.502-0.17-0.607-0.284c-0.005-0.005-0.01-0.011-0.015-0.016
		c-0.73,0.413-1.408,0.621-2.021,0.621c-0.555,0-1.004-0.176-1.336-0.524c-0.326-0.34-0.491-0.779-0.491-1.303
		c0-0.678,0.242-1.347,0.721-1.988c0.495-0.662,1.087-1.047,1.757-1.145c0.101-0.014,0.371-0.02,0.462-0.02
		c0.416,0,0.562,0.135,1.562,0.641c0-0.025,0-0.05,0-0.076c0-0.685-0.342-1.333-0.668-1.926c-0.164-0.303-0.456-0.43-0.776-0.43
		c-0.228,0-0.485,0.058-0.697,0.178c-0.082,0.047-0.159,0.085-0.197,0.114l-0.006,0.027l-0.164,0.234
		c-0.081,0.1-0.239,0.219-0.516,0.219c-0.562,0-0.942-0.323-0.987-0.843c-0.04-0.494,0.261-0.922,0.892-1.277
		c0.94-0.529,2.148-0.594,2.881-0.129c1.145,0.721,1.727,1.999,1.727,3.799C364.487-11.846,364.369-10.989,364.135-10.1z
		 M375.87-9.626c-0.869,0.793-1.779,1.193-2.71,1.193c-0.329,0-0.617-0.065-0.858-0.194c-0.395-0.197-0.748-0.577-1.036-1.123
		c-0.278-0.523-0.42-1.108-0.42-1.737c0-0.206,0.031-0.407,0.064-0.608c-0.318,0.499-0.773,1.045-1.378,1.65
		c-0.705,0.625-1.381,1.229-2.053,1.833l-0.208,0.272c-0.147,0.177-0.352,0.268-0.586,0.268l-0.177-0.015
		c-0.475-0.082-0.789-0.366-0.878-0.778c-0.344-0.098-0.509-0.293-0.596-0.465c-0.074-0.183-0.159-0.397-0.034-2.621
		c0.058-1.13,0.117-1.972,0.178-2.507c-0.07-0.108-0.139-0.245-0.209-0.418l-0.034-0.134c-0.029-0.268,0.053-0.634,0.564-0.935
		c0.337-1.299,0.508-2.37,0.508-3.186c-0.004-0.044-0.026-0.132-0.06-0.257c-0.062-0.241-0.092-0.42-0.092-0.566
		c0-0.514,0.338-0.875,0.861-0.918c0.36,0.012,0.691,0.198,0.926,0.596c0.195,0.375,0.288,0.787,0.288,1.246
		c0,0.435-0.061,0.929-0.18,1.469c-0.126,0.529-0.226,0.957-0.298,1.285c2.006,0.095,3.079,0.782,3.647,2.048
		C371.188-14.04,371-13.835,371-13.62c0,0.001,0,0.002,0,0.003c1-1.737,2.055-2.634,3.15-2.719c0.555-0.042,1.224,0.15,1.771,0.573
		c0.682,0.513,1.161,1.273,1.305,2.255c0.026,0.224,0.067,0.434,0.067,0.644C377.294-11.616,376.834-10.527,375.87-9.626z
		 M390.821-15.579c-0.163,0.171-0.396,0.258-0.693,0.258c-0.081,0-0.203-0.009-0.365-0.029c-0.1-0.012-0.17-0.021-0.207-0.021
		c-0.642,0-1.431,0.095-2.35,0.284c-0.215,1.866-0.324,3.455-0.324,4.727c0,0.294,0.006,0.562,0.017,0.801l0.029,0.111
		c0.037,0.161,0.055,0.296,0.055,0.415c0,0.55-0.355,0.906-0.906,0.906l-0.101-0.004c-0.369-0.021-0.684-0.234-0.876-0.603
		c-0.133-0.264-0.19-0.545-0.175-0.845c-0.001-0.582,0.062-1.775,0.186-3.521c0.05-0.392,0.111-0.893,0.184-1.512
		c-0.184,0.062-0.405,0.14-0.675,0.237c-0.183,0.09-0.42,0.237-0.659,0.417c-0.255,0.191-0.445,0.273-0.637,0.273l-0.194-0.032
		c-0.155-0.04-0.276-0.095-0.381-0.157c-0.119,0.594-0.274,1.25-0.471,1.981c-0.678,2.418-1.194,2.946-1.611,3.144
		c-0.239,0.12-0.49,0.183-0.736,0.183c-1.592,0-2.401-2.247-2.549-7.07c-0.019-0.352,0.058-0.625,0.232-0.824
		c0.164-0.185,0.383-0.286,0.619-0.286l0.157,0.014c0.593,0.115,0.933,0.542,0.915,1.146c-0.055,1.398,0.042,2.655,0.289,3.738
		c0.126,0.58,0.244,0.9,0.328,1.074c0.298-0.569,0.554-1.384,0.761-2.421c0.15-0.793,0.232-1.416,0.242-1.846
		c0.022-0.808,0.525-1.095,0.988-1.095c0.25,0.01,0.662,0.097,0.882,0.591c0.262-0.189,0.579-0.33,0.855-0.436
		c0.362-0.145,0.992-0.355,1.915-0.639c0.08-0.554,0.24-1.522,0.395-2.888c0.01-0.073,0.04-0.145,0.04-0.241v-0.457
		c0-1.071,0.625-1.154,0.83-1.154c0.457,0,0.98,0.296,0.98,1.705c0,0.271-0.028,0.588-0.063,0.953
		c-0.057,0.357-0.146,0.92-0.263,1.705c0.717-0.099,1.41-0.13,2.085-0.096c0.469,0.017,0.643,0.056,0.751,0.092
		c0.404,0.095,0.686,0.403,0.711,0.813C391.046-15.88,390.925-15.688,390.821-15.579z"/>
</g>
<g>
	<path fill="#3FA9F5" d="M34.237,11.708c-0.04-0.035-0.115-0.081-0.243-0.119l-0.076,0.018c-0.208,0.05-0.407,0.151-0.608,0.31
		c-0.517,0.424-0.946,1.128-1.271,2.086c-0.049,0.141-0.074,0.306-0.074,0.495c0,0.326,0.062,0.621,0.185,0.875
		c0.168,0.321,0.332,0.321,0.402,0.321c0.249,0,0.57-0.149,0.929-0.431c0.379-0.284,0.633-0.557,0.764-0.82
		c0.288-0.577,0.433-1.084,0.433-1.508c0-0.277-0.057-0.541-0.175-0.805C34.366,11.843,34.271,11.739,34.237,11.708z"/>
	<path fill="#3FA9F5" d="M71,0H4L0,4v16l4,4h67l4-4V4L71,0z M35.066,16.374c-0.869,0.793-1.779,1.193-2.71,1.193
		c-0.329,0-0.617-0.065-0.857-0.194c-0.395-0.197-0.749-0.577-1.038-1.122c-0.165-0.312-0.266-0.651-0.333-1.002
		c-0.008,0.202-0.015,0.401-0.027,0.619c-0.011,0.127-0.013,0.264-0.008,0.429c0.006,0.198,0.009,0.549,0.009,0.583
		c0,0.517-0.354,1.12-0.902,1.12c-0.001,0-0.001,0-0.002,0c-0.539,0-0.899-0.552-1.01-1.085c-0.044-0.208-0.047-0.619-0.008-1.038
		c0.033-0.396,0.048-0.945,0.048-1.523c0-2.17-0.25-2.566-0.278-2.601c-0.132,0.031-0.601,0.117-1.624,1.046
		c-0.756,0.672-1.252,1.249-1.479,1.733c-0.329,0.688-0.455,1.396-0.376,2.115c0.055,0.559-0.041,0.961-0.292,1.239
		c-0.14,0.154-0.397,0.337-0.827,0.337c-0.393,0-0.637-0.162-0.772-0.297c-0.196-0.197-0.298-0.458-0.298-0.758
		c0-0.225,0.081-0.505,0.262-0.91c-0.007,0,0.033-0.285,0.074-1.692c0.045-1.582,0.153-3.178,0.322-4.743l0.261-3.082
		c0.043-0.457,0.15-1.582,0.964-1.582c0.694,0.039,1.1,0.461,1.1,1.105c0,0.126-0.015,0.381-0.142,1.141
		c-0.11,0.638-0.187,1.175-0.23,1.613c-0.089,0.958-0.167,1.863-0.234,2.712c-0.004,0.046-0.008,0.091-0.011,0.137
		c1.558-1.646,2.896-2.299,4.043-1.949c0.932,0.325,1.389,1.535,1.45,3.77c0.055-0.241,0.13-0.478,0.233-0.707
		c0.938-2.137,1.988-3.224,3.206-3.318c0.534-0.045,1.108,0.149,1.655,0.573c0.683,0.513,1.105,1.273,1.247,2.256
		c0.027,0.223,0.039,0.433,0.039,0.643C36.519,14.384,36.03,15.473,35.066,16.374z M45.88,17.147c-0.351,0-0.646-0.176-0.811-0.482
		c-0.119-0.215-0.244-0.638-0.244-2.101c0.022-0.741,0.039-1.466,0.05-2.192c0.004-0.46-0.017-0.786-0.046-1.016
		c-0.064,0.097-0.138,0.211-0.223,0.348c-0.475,0.766-0.903,1.606-1.272,2.497c-0.27,0.659-0.551,1.558-0.835,2.629
		C42.41,17.172,42.2,18,41.554,18h-0.058l-0.098-0.039c-0.5-0.13-0.82-0.468-0.914-0.937c-0.011-0.154-0.033-0.736-0.076-1.831
		c-0.062-1.698-0.125-2.7-0.178-3.287c-0.096,0.183-0.21,0.417-0.345,0.719c-0.529,1.172-0.883,2.321-1.054,3.418l0.006,0.7
		c0,0.33-0.039,0.795-0.375,1.027c-0.18,0.123-0.396,0.184-0.644,0.184l-0.101-0.003c-0.444-0.026-0.663-0.226-0.767-0.389
		c-0.122-0.19-0.172-0.476-0.172-0.988c0-0.404,0.088-1.535,0.271-3.458c0.031-0.334,0.036-0.543,0.015-0.944
		C37.057,12.046,37.05,12,37.044,12H37v-0.828c0-0.315,0.096-0.57,0.272-0.758c0.127-0.136,0.364-0.297,0.759-0.297
		c0.28,0,0.523,0.105,0.698,0.305c0.039,0.042,0.078,0.087,0.113,0.136c0.756-1.371,1.225-1.685,1.662-1.685
		c0.359,0,0.869,0.151,1.249,0.872c0.083,0.121,0.24,0.356,0.389,2.596c0.115-0.227,0.228-0.442,0.338-0.645
		c1.27-2.363,1.941-2.75,2.43-2.818l0.114-0.008c0.313,0,0.617,0.16,0.928,0.487c0.29,0.307,0.469,0.601,0.547,0.899
		c0.07,0.251,0.169,0.825,0.201,2.814c0.011,1.145,0.011,1.92,0,2.327c0,0,0.006,0.076,0.065,0.28
		c0.071,0.252,0.103,0.426,0.103,0.566C46.867,16.66,46.608,17.147,45.88,17.147z M55.12,14.823l-1.904,1.403
		c-1.37,0.917-2.461,1.357-3.354,1.357c-0.881,0-1.649-0.436-2.284-1.295c-0.546-0.774-0.82-1.589-0.82-2.431
		c0-1.188,0.562-2.23,1.67-3.098c1.003-0.795,2.103-1.199,3.266-1.199c0.666,0,1.244,0.157,1.718,0.467
		c0.167,0.083,0.293,0.293,0.293,0.536c0,0.375-0.287,0.756-1.023,1.359c-0.485,0.403-0.892,0.784-1.471,1.131
		C50.509,13.481,50,13.751,49,13.856c0,0.008,0,0.017,0,0.025c0,0.397-0.012,0.78,0.24,1.17c0.42,0.66,0.739,0.66,0.866,0.66
		c0.357-0.013,0.964-0.2,2.201-1.02c1.176-0.79,1.403-1.063,1.449-1.128c0.218-0.387,0.521-0.827,0.969-0.827
		c0.173,0,0.343,0.054,0.513,0.16c0.407,0.298,0.484,0.64,0.484,0.877C55.723,14.062,55.616,14.479,55.12,14.823z"/>
</g>
<g>
	<path fill="#3FA9F5" d="M155,0H88l-4,4v16l4,4h67l4-4V4L155,0z M106.686,15.222c-0.937,0.583-1.874,1.08-2.789,1.48
		c-1.267,0.538-2.314,0.798-3.208,0.798c-0.966,0-1.698-0.314-2.176-0.934c-0.28-0.353-0.423-0.791-0.423-1.297
		c0-0.059,0.019-0.122,0.022-0.181c-0.051,0.27-0.092,0.536-0.165,0.812c-0.228,0.957-0.357,1.243-0.537,1.391
		c-0.103,0.1-0.269,0.195-0.526,0.195l-0.104-0.005c-0.311-0.028-0.501-0.17-0.607-0.284c-0.005-0.005-0.01-0.011-0.015-0.016
		c-0.73,0.413-1.409,0.621-2.021,0.621c-0.555,0-1.004-0.176-1.336-0.524c-0.326-0.341-0.491-0.78-0.491-1.303
		c0-0.679,0.243-1.348,0.721-1.988c0.494-0.662,1.085-1.046,1.756-1.145c0.101-0.014-0.036-0.02,0.055-0.02
		c0.417,0,1.157,0.135,1.157,0.641c0-0.025,0-0.05,0-0.076c0-0.685,0.064-1.333-0.262-1.926c-0.163-0.303-0.252-0.43-0.573-0.43
		c-0.228,0-0.383,0.058-0.595,0.178c-0.084,0.048-0.113,0.087-0.15,0.116l0.021,0.032l-0.153,0.231
		c-0.081,0.098-0.231,0.215-0.506,0.215c-0.563,0-0.939-0.323-0.983-0.844c-0.041-0.492,0.26-0.921,0.892-1.276
		c0.942-0.53,2.152-0.595,2.883-0.129c1.145,0.721,1.727,2,1.727,3.799c0,0.315-0.033,0.646-0.069,0.977
		c0.213-0.802,0.679-1.66,1.416-2.568c1.032-1.266,1.971-1.946,2.869-2.078c0.138-0.016,0.251-0.022,0.358-0.022
		c0.79,0,1.071,0.466,1.071,0.903c0,0.269-0.108,0.546-0.321,0.825c-0.306,0.398-0.631,0.482-0.851,0.482
		c-0.096,0-0.213-0.017-0.379-0.054c-0.128-0.029-0.173-0.03-0.175-0.03c-0.032,0.009-0.323,0.131-1.167,1.218
		c-0.858,1.097-1.038,1.754-1.038,2.112c0,0.231,0.081,0.381,0.271,0.502c0.114,0.07,0.292,0.107,0.522,0.107
		c0.799,0,2.027-0.428,3.65-1.271c0.791-0.45,1.603-0.91,2.421-1.37c0.408-0.204,0.819-0.086,1.071,0.242
		c0.162,0.211,0.221,0.462,0.167,0.706C108.086,14.253,108.006,14.385,106.686,15.222z M115.664,15.796
		c0.129,0.398,0.142,0.475,0.142,0.566c0,0.125-0.022,0.267-0.068,0.434c-0.104,0.387-0.435,0.62-0.886,0.62
		c-0.249,0-0.489-0.09-0.713-0.267c-0.282-0.224-0.391-0.637-0.391-1.476c0-0.018,0-0.073,0.168-3.652
		c0.046-0.816,0.077-1.262,0.089-1.344c0.001-0.008,0.004-0.014,0.005-0.022c-0.052,0.006-0.094,0.024-0.15,0.024
		c-0.081,0-0.203-0.009-0.365-0.029c-0.1-0.012-0.169-0.021-0.207-0.021c-0.642,0-1.432,0.095-2.35,0.284
		c-0.215,1.865-0.324,3.454-0.324,4.727c0,0.294,0.005,0.561,0.016,0.8l0.03,0.114c0.037,0.163,0.054,0.297,0.054,0.413
		c0,0.55-0.355,0.906-0.905,0.906l-0.101-0.004c-0.37-0.021-0.684-0.234-0.877-0.602c-0.134-0.268-0.19-0.55-0.174-0.848
		c-0.001-0.583,0.062-1.775,0.185-3.519c0.051-0.393,0.111-0.894,0.183-1.512c-0.195,0.066-0.42,0.145-0.674,0.237
		c-0.182,0.089-0.419,0.236-0.659,0.417c-0.254,0.191-0.445,0.273-0.637,0.273l-0.194-0.032c-0.772-0.196-0.86-0.736-0.86-0.959
		c0-0.699,0.788-1.08,1.381-1.305c0.361-0.144,1.006-0.359,1.916-0.639c0.08-0.55,0.374-1.518,0.528-2.888
		C109.836,6.422,110,6.348,110,6.246V5.793c0-1.071,0.491-1.154,0.695-1.154c0.457,0,0.914,0.296,0.914,1.705
		c0,0.271-0.062,0.588-0.097,0.952c-0.056,0.357-0.162,0.921-0.278,1.706c0.716-0.099,1.404-0.13,2.075-0.096
		c0.471,0.017,0.64,0.057,0.749,0.093c0.352,0.082,0.597,0.517,0.674,0.85c0.072-0.021,0.139,0.15,0.197,0.15
		c0.002,0,0.005,0,0.007,0c0.362,0,0.627-0.054,0.826,0.193c0.136,0.171,0.287,0.374,0.242,0.817
		c-0.233,2.145-0.369,3.463-0.402,4.016C115.58,15.474,115.623,15.671,115.664,15.796z M115.994,5.469
		c-0.077,0.166-0.226,0.507-0.446,1.025c-0.056,0.153-0.103,0.354-0.132,0.575c-0.022,0.193-0.078,0.468-0.281,0.649
		c-0.191,0.213-0.406,0.32-0.639,0.32c-0.131,0-0.328-0.037-0.519-0.213c-0.264-0.229-0.295-0.607-0.295-0.872
		c0-0.421,0.112-0.872,0.334-1.34c0.013-0.033,0.11-0.299,0.284-0.779c0.136-0.384,0.444-0.616,0.823-0.616
		c0.364,0,0.579,0.152,0.695,0.28c0.18,0.197,0.254,0.468,0.223,0.805L115.994,5.469z M124.497,11.066
		c-0.201,0.174-0.718,0.787-2.007,2.687c-1.231,1.805-1.617,2.457-1.725,2.687c-0.335,0.787-0.784,1.195-1.326,1.195
		c-0.165,0-0.327-0.044-0.481-0.131c-0.25-0.135-0.448-0.398-0.579-0.776c-0.065-0.241-0.124-0.446-0.189-0.651
		c-0.244-1.028-0.534-2.16-0.879-3.43c-0.388-1.078-0.421-1.313-0.421-1.458c0-0.833,1.075-1.176,1.775-0.23
		c0.229,0.31,0.402,0.688,0.519,1.127c0.065,0.4,0.216,1.124,0.458,2.203c0.01,0.041,0.022,0.089,0.037,0.144
		c0.36-0.517,0.833-1.19,1.419-2.02c0.792-1.049,1.591-2.134,2.406-3.269c0.209-0.484,0.554-1.093,1.161-1.093
		c0.173,0,0.498,0.057,0.735,0.436c0.134,0.215,0.202,0.44,0.202,0.668C125.6,9.811,125.229,10.454,124.497,11.066z M127.003,15.796
		c0.129,0.398,0.142,0.475,0.142,0.566c0,0.125-0.022,0.267-0.068,0.434c-0.104,0.387-0.435,0.62-0.886,0.62
		c-0.249,0-0.489-0.09-0.713-0.267c-0.282-0.224-0.391-0.637-0.391-1.476c0-0.018,0-0.073,0.168-3.652
		c0.046-0.816,0.077-1.077,0.089-1.158c0.146-0.881,0.642-0.862,0.924-0.862c0.002,0,0.005,0,0.007,0
		c0.362,0,0.627-0.054,0.826,0.193c0.136,0.171,0.287,0.374,0.242,0.817c-0.233,2.145-0.369,3.463-0.402,4.016
		C126.919,15.474,126.963,15.671,127.003,15.796z M127.333,5.469c-0.077,0.166-0.226,0.507-0.446,1.025
		c-0.056,0.153-0.103,0.354-0.132,0.575c-0.022,0.193-0.078,0.468-0.281,0.649c-0.191,0.213-0.406,0.32-0.639,0.32
		c-0.131,0-0.328-0.037-0.519-0.213c-0.264-0.229-0.295-0.607-0.295-0.872c0-0.421,0.112-0.872,0.334-1.34
		c0.013-0.033,0.11-0.299,0.284-0.779c0.136-0.384,0.444-0.616,0.823-0.616c0.364,0,0.579,0.152,0.695,0.28
		c0.18,0.197,0.254,0.468,0.223,0.805L127.333,5.469z M137.184,15.796c0.129,0.398,0.142,0.475,0.142,0.566
		c0,0.125-0.022,0.267-0.068,0.434c-0.104,0.387-0.435,0.62-0.886,0.62c-0.249,0-0.489-0.09-0.713-0.267
		c-0.282-0.224-0.391-0.637-0.391-1.476c0-0.018,0-0.073,0.168-3.652c0.046-0.816,0.077-1.262,0.089-1.344
		c0.001-0.008,0.004-0.014,0.005-0.022c-0.052,0.006-0.094,0.024-0.15,0.024c-0.081,0-0.203-0.009-0.365-0.029
		c-0.1-0.012-0.169-0.021-0.207-0.021c-0.642,0-1.432,0.095-2.35,0.284c-0.215,1.865-0.324,3.454-0.324,4.727
		c0,0.294,0.005,0.561,0.016,0.8l0.03,0.114c0.037,0.163,0.054,0.297,0.054,0.413c0,0.55-0.355,0.906-0.905,0.906l-0.101-0.004
		c-0.37-0.021-0.684-0.234-0.877-0.602c-0.134-0.268-0.19-0.55-0.174-0.848c-0.001-0.583,0.062-1.775,0.185-3.519
		c0.051-0.393,0.111-0.894,0.183-1.512c-0.195,0.066-0.42,0.145-0.674,0.237c-0.182,0.089-0.419,0.236-0.659,0.417
		c-0.254,0.191-0.445,0.273-0.637,0.273l-0.194-0.032c-0.772-0.196-0.86-0.736-0.86-0.959c0-0.699,0.788-1.08,1.381-1.305
		c0.361-0.144,1.006-0.359,1.916-0.639c0.08-0.55,0.113-1.518,0.268-2.888C131.096,6.422,131,6.348,131,6.246V5.793
		c0-1.071,0.751-1.154,0.956-1.154c0.457,0,1.044,0.296,1.044,1.705c0,0.271,0.003,0.588-0.032,0.952
		c-0.056,0.357-0.13,0.921-0.245,1.706c0.717-0.099,1.42-0.13,2.091-0.096c0.471,0.017,0.649,0.057,0.757,0.093
		c0.352,0.082,0.6,0.517,0.677,0.85c0.072-0.021,0.143,0.15,0.202,0.15c0.002,0,0.005,0,0.007,0c0.362,0,0.627-0.054,0.826,0.193
		c0.136,0.171,0.287,0.374,0.242,0.817c-0.233,2.145-0.369,3.463-0.402,4.016C137.1,15.474,137.144,15.671,137.184,15.796z
		 M137.514,5.469c-0.077,0.166-0.226,0.507-0.446,1.025c-0.056,0.153-0.103,0.354-0.132,0.575c-0.022,0.193-0.078,0.468-0.281,0.649
		c-0.191,0.213-0.406,0.32-0.639,0.32c-0.131,0-0.328-0.037-0.519-0.213c-0.264-0.229-0.295-0.607-0.295-0.872
		c0-0.421,0.112-0.872,0.334-1.34c0.013-0.033,0.11-0.299,0.284-0.779c0.136-0.384,0.444-0.616,0.823-0.616
		c0.364,0,0.579,0.152,0.695,0.28c0.18,0.197,0.254,0.468,0.223,0.805L137.514,5.469z M147.702,12.953
		c0.052,0.307,0.212,0.525,0.504,0.686l1.382,0.526c1.071,0.413,1.316,0.529,1.422,0.592c0.511,0.316,0.818,0.79,0.894,1.373
		c0.062,0.554-0.415,1.148-1.644,1.91c-1.336,0.831-1.641,0.96-1.857,0.96h-0.036l-0.055-0.067
		c-0.747-0.018-1.034-0.533-1.034-0.979c0-0.21,0.077-0.425,0.222-0.594l0.164-0.133l1.345-0.642
		c0.392-0.196,0.622-0.342,0.756-0.44c-0.115-0.056-0.292-0.129-0.559-0.214c-0.975-0.306-1.624-0.557-1.984-0.769
		c-0.352-0.199-0.624-0.438-0.844-0.701c-0.089,0.123-0.199,0.246-0.364,0.36l-1.904,1.403c-1.37,0.917-2.461,1.357-3.354,1.357
		c-0.881,0-1.649-0.436-2.284-1.295c-0.546-0.774-0.82-1.589-0.82-2.431c0-1.188,0.562-2.23,1.67-3.098
		c1.003-0.795,2.103-1.199,3.266-1.199c0.666,0,1.244,0.157,1.718,0.467c0.167,0.083,0.293,0.293,0.293,0.536
		c0,0.375-0.287,0.756-1.023,1.359c-0.485,0.403-0.84,0.784-1.419,1.131c-0.701,0.427-2.158,0.697-2.158,0.802
		c0,0.008,0,0.017,0,0.025c0,0.397-0.064,0.78,0.188,1.17c0.42,0.66,0.713,0.66,0.84,0.66c0.356-0.013,0.95-0.2,2.187-1.02
		c1.176-0.79,1.397-1.063,1.443-1.128c0.218-0.387,0.518-0.827,0.966-0.827c0.077,0,0.148,0.015,0.225,0.036
		c0.033-0.85,0.413-1.729,1.187-2.619c0.383-0.431,1.098-1.08,2.189-1.988c0.48-0.4,1.044-0.486,1.596-0.241
		c0.205,0.114,0.371,0.211,0.542,0.313c0.286,0.195,0.532,0.4,0.574,0.695c0.058,0.315-0.053,0.533-0.156,0.657
		c-0.107,0.129-0.315,0.283-0.691,0.283c-0.202,0-0.407-0.052-0.61-0.153c-0.032-0.016-0.06-0.03-0.083-0.041
		c-0.105,0.022-0.239,0.094-0.383,0.214l-1.307,1.208c-0.346,0.307-0.616,0.67-0.809,1.086
		C147.69,12.635,147.686,12.859,147.702,12.953z"/>
	<path fill="#3FA9F5" d="M94.1,15.908c0,0.034,0.001,0.062,0.003,0.083c0.215,0.032,0.664-0.055,1.424-0.6
		c-0.199-0.523-0.351-0.687-0.403-0.73c-0.337,0.07-0.592,0.236-0.777,0.505C94.18,15.402,94.1,15.643,94.1,15.908z"/>
</g>
<path fill="#3FA9F5" d="M239,0h-67l-4,4v16l4,4h59.079c0.038-0.283,0.136-0.467,0.255-0.582c0.063-0.342,0.219-1.46,0.585-5.074
	c0.176-1.675,0.298-3.201,0.365-4.557c-2.058,2.385-2.821,2.738-3.337,2.738c-0.469-0.015-0.947-0.303-0.947-1.592
	c0-0.014,0-0.031,0-0.052c0,0.1-0.368,0.209-0.575,0.34c-0.938,0.583-1.899,1.08-2.813,1.48c-1.249,0.53-2.338,0.798-3.221,0.798
	c-0.967,0-1.705-0.314-2.183-0.934c-0.262-0.33-0.396-0.741-0.412-1.207c0.007,0.711,0.019,0.988,0.027,1.089
	c0.209,0.441,0.302,0.743,0.302,0.972c0,0.559-0.349,0.92-0.888,0.92c-0.306,0-0.59-0.117-0.846-0.346
	c-0.268-0.239-0.41-0.554-0.41-0.91c0-0.067,0.01-0.011,0.035-0.137c0.008-0.042,0.015,0.053,0.016,0.053h0.007
	c-0.027-1-0.052-0.646-0.089-1.117c-0.068-0.669-0.098-1.466-0.086-2.208c0.018-0.688,0.017-1.225,0.008-1.584
	c-0.058,0.103-0.122,0.2-0.192,0.333c-0.502,0.944-0.957,1.941-1.352,2.983c-0.151,0.401-0.299,0.861-0.438,1.376
	c-0.115,0.431-0.239,0.659-0.426,0.793c-0.274,0.136-0.447,0.177-0.611,0.177c-0.228,0-0.97-0.091-0.97-1.256
	c0-0.125,0.017-0.532,0.051-1.218c0.015-0.243,0.017-0.47,0.027-0.708c-0.077,0.086-0.168,0.172-0.285,0.253l-1.903,1.403
	c-1.369,0.917-2.46,1.357-3.354,1.357c-0.881,0-1.649-0.436-2.284-1.294c-0.546-0.775-0.819-1.589-0.819-2.431
	c0-0.992,0.414-1.875,1.188-2.646l-0.12,0.015c-0.136,0-0.286-0.028-0.458-0.086c-0.166-0.055-0.227-0.058-0.229-0.058
	c-0.051,0-0.108,0.02-0.175,0.061c-0.994,0.561-2.129,1.812-3.389,3.729c-0.201,0.302-0.329,0.729-0.382,1.27
	c-0.098,0.99-0.153,1.146-0.267,1.289c-0.197,0.241-0.467,0.372-0.761,0.372c-0.32,0-0.604-0.126-0.822-0.365
	c-0.173-0.171-0.266-0.441-0.266-0.807c0-0.114,0.012-0.341,0.105-1.087c0.087-0.604,0.142-1.136,0.165-1.592
	c0.021-0.406,0.032-0.778,0.032-1.118c0-0.502-0.022-0.94-0.066-1.312l-0.516-0.327c-0.092-0.014-0.178-0.018-0.285-0.054
	c-0.167-0.056-0.227-0.058-0.229-0.058c-0.05,0-0.109,0.02-0.173,0.06c-0.994,0.561-2.129,1.812-3.389,3.729
	c-0.201,0.302-0.329,0.728-0.382,1.27c-0.103,1.037-0.165,1.159-0.265,1.286c-0.203,0.248-0.464,0.375-0.762,0.375
	c-0.321,0-0.605-0.126-0.823-0.365c-0.173-0.171-0.265-0.441-0.265-0.807c0-0.106,0.011-0.334,0.104-1.086
	c0.088-0.609,0.143-1.141,0.165-1.592c0.022-0.407,0.033-0.78,0.033-1.119c0-0.536-0.025-1-0.075-1.387l-0.807,1.304
	c-0.097,0.424-0.206,0.871-0.336,1.355c-0.678,2.419-1.196,2.947-1.613,3.144c-0.238,0.12-0.488,0.183-0.734,0.183
	c-0.963,0-1.638-0.828-2.055-2.545c-0.148,0.098-0.313,0.205-0.517,0.334c-0.937,0.583-1.874,1.08-2.789,1.48
	c-1.267,0.538-2.314,0.798-3.208,0.798c-0.966,0-1.698-0.314-2.176-0.934c-0.28-0.353-0.423-0.791-0.423-1.297
	c0-1.054,0.524-2.234,1.557-3.507c1.032-1.266,1.971-1.946,2.869-2.078c0.138-0.016,0.251-0.022,0.358-0.022
	c0.79,0,1.071,0.466,1.071,0.903c0,0.269-0.108,0.546-0.321,0.825c-0.306,0.398-0.631,0.482-0.851,0.482
	c-0.096,0-0.213-0.017-0.379-0.054c-0.128-0.029-0.173-0.03-0.175-0.03c-0.032,0.009-0.323,0.131-1.167,1.218
	c-0.858,1.097-1.038,1.754-1.038,2.112c0,0.231,0.081,0.381,0.271,0.502c0.114,0.07,0.292,0.107,0.522,0.107
	c0.799,0,2.027-0.428,3.65-1.271c0.791-0.45,1.603-0.91,2.421-1.37c0.005-0.002,0.011-0.002,0.016-0.005
	c-0.092-0.795-0.156-1.695-0.187-2.719c-0.018-0.352,0.059-0.625,0.233-0.824c0.164-0.185,0.383-0.286,0.618-0.286l0.158,0.015
	c0.593,0.114,0.933,0.542,0.914,1.146c-0.054,1.397,0.044,2.654,0.291,3.737c0.125,0.579,0.243,0.899,0.328,1.073
	c0.297-0.57,0.554-1.384,0.761-2.421c0.15-0.793,0.232-1.416,0.242-1.846c0.021-0.807,0.523-1.094,0.988-1.094
	c0.322,0.013,0.917,0.144,1.018,1.123l0.006,0.061l-0.001,0.009l0.309-1.237c0.026-0.042,0.054-0.083,0.083-0.12l1.013-0.381
	c0.174,0.041,0.34,0.132,0.497,0.274c0.325,0.307,0.472,0.904,0.5,2.004c0.004,0.172,0.008,0.382,0.011,0.63
	c0.516-0.605,0.986-1.106,1.401-1.49c0.749-0.703,0.956-0.874,1.053-0.944c0.824-0.57,1.642-0.687,2.536-0.389l0.001,0l0.848-0.088
	c0.177,0.04,0.346,0.132,0.504,0.276c0.325,0.306,0.473,0.903,0.5,2.004c0.004,0.172,0.008,0.383,0.011,0.631
	c0.514-0.603,0.984-1.104,1.4-1.49c0.752-0.705,0.959-0.875,1.056-0.945c0.823-0.57,1.646-0.685,2.534-0.388
	c0.181,0.065,0.577,0.275,0.577,0.911c0,0.078-0.02,0.148-0.037,0.22c0.911-0.633,1.894-0.972,2.93-0.972
	c0.666,0,1.244,0.157,1.719,0.467c0.168,0.085,0.294,0.295,0.294,0.536c0,0.375-0.287,0.756-1.024,1.359
	c-0.481,0.401-1.167,0.782-1.749,1.131c-0.701,0.428-1.488,0.697-2.488,0.802c0,0.008,0,0.017,0,0.025
	c0,0.397,0.266,0.78,0.518,1.169c0.422,0.661,0.879,0.661,1.006,0.661c0.357-0.013,1.034-0.2,2.271-1.02
	c1.176-0.79,1.438-1.063,1.484-1.128c0.218-0.387,0.538-0.827,0.986-0.827c0.173,0,0.351,0.054,0.521,0.16
	c0.094,0.069,0.17,0.14,0.231,0.211c0.025-1.109,0.099-2.129,0.223-3.031c0.104-0.607,0.514-0.818,0.864-0.818
	c0.383,0,0.708,0.162,0.938,0.467c0.111,0.143,0.168,0.336,0.168,0.587c0,0.097-0.025,0.376-0.08,0.84
	c-0.007,0.06-0.013,0.119-0.02,0.178c1.095-1.866,1.737-2.166,2.229-2.166l0.195,0.021c0.934,0.188,1.096,1.415,1.149,1.818
	c0.081,0.583,0.115,1.641,0.104,3.227c0,0.373,0.001,0.679,0.003,0.939c0.031-1.03,0.543-2.174,1.544-3.408
	c1.034-1.267,1.973-1.946,2.869-2.078c0.138-0.016,0.252-0.022,0.359-0.022c0.79,0,1.071,0.466,1.071,0.903
	c0,0.268-0.108,0.545-0.321,0.825c-0.305,0.398-0.631,0.482-0.852,0.482c-0.096,0-0.213-0.017-0.379-0.054
	c-0.128-0.029-0.173-0.03-0.175-0.03c-0.032,0.009-0.325,0.131-1.167,1.218c-0.858,1.097-1.038,1.754-1.038,2.112
	c0,0.231,0.081,0.381,0.271,0.502c0.114,0.069,0.292,0.107,0.522,0.107c0.799,0,2.027-0.428,3.65-1.271
	c0.789-0.45,1.603-0.91,2.421-1.37c0.183-0.092,0.363-0.11,0.532-0.083c0.063-0.49,0.147-1.105,0.259-1.887
	c0.093-0.679,0.145-1.049,0.157-1.107c0.145-0.601,0.467-0.802,0.713-0.868l0.197-0.029c0.188,0,0.382,0.071,0.594,0.217
	c0.361,0.25,0.457,0.54,0.475,0.738c0.002,0.121,0.002,0.208-0.344,1.955c-0.147,0.764-0.23,1.282-0.276,1.632
	c0.119-0.117,0.267-0.267,0.445-0.458c0.254-0.276,0.894-1.011,1.919-2.202l-0.001,0c-0.007,0,0.074-0.149,0.208-0.398
	c0.259-0.469,0.583-0.566,0.81-0.566c0.109,0,0.225,0.02,0.342,0.059c0.663,0.249,0.746,1.138,0.746,1.886
	c0,0.214-0.013,0.415-0.038,0.604c-0.155,1.574-0.418,4.101-0.788,7.564c-0.079,0.712-0.18,1.506-0.304,2.385
	c-0.09,0.625-0.117,0.878-0.126,0.98c0.099,0.153,0.158,0.319,0.197,0.49H239l4-4V4L239,0z"/>
<g>
	<path fill="#3FA9F5" d="M296.576,12.929c0.05-0.231-0.131-0.57-0.508-0.955c-0.272-0.279-0.539-0.474-0.797-0.585
		c-0.083,0.437-0.188,1.025-0.318,1.766c-0.073,0.449-0.166,1.128-0.279,2.061c0.147-0.1,0.287-0.201,0.417-0.304
		C295.935,14.248,296.435,13.581,296.576,12.929z"/>
	<path fill="#3FA9F5" d="M288.506,15.166c-0.169,0.237-0.249,0.477-0.249,0.742c0,0.034,0.001,0.062,0.003,0.083
		c0.024,0.004,0.048,0.005,0.068,0.005c0.242,0,0.667-0.111,1.356-0.604c-0.199-0.524-0.351-0.687-0.402-0.73
		C288.944,14.731,288.69,14.897,288.506,15.166z"/>
	<path fill="#3FA9F5" d="M323,0h-67l-4,4v16l4,4h36.501c-0.032-0.118-0.053-0.244-0.053-0.381c0-0.164,0.033-0.319,0.1-0.461
		c-0.002-0.095-0.013-0.286-0.028-0.596l-0.02-0.372c-0.034-0.643-0.052-1.271-0.052-1.885c0-0.489,0.012-0.985,0.035-1.486
		c0.067-1.543,0.164-2.912,0.287-4.066c0.034-0.249,0.182-1.369,0.444-3.375c-0.284-0.219-0.421-0.539-0.376-0.905
		c0.09-0.414,0.368-0.702,0.836-0.903c0.322-0.14,0.602-0.209,0.853-0.209c0.804,0.013,1.606,0.311,2.396,0.886
		c0.728,0.549,1.199,1.204,1.424,1.95c0.155-0.669,0.513-1.352,1.111-2.042c0.385-0.432,1.1-1.08,2.192-1.988
		c0.48-0.4,1.044-0.486,1.597-0.241c0.205,0.114,0.371,0.211,0.542,0.313c0.285,0.195,0.53,0.4,0.573,0.692
		c0.058,0.32-0.053,0.538-0.156,0.661c-0.108,0.128-0.315,0.282-0.691,0.282c-0.202,0-0.407-0.052-0.61-0.154
		c-0.031-0.016-0.059-0.029-0.082-0.04c-0.105,0.023-0.238,0.094-0.382,0.213l-1.309,1.209c-0.345,0.306-0.615,0.67-0.81,1.087
		c-0.206,0.448-0.211,0.671-0.195,0.765c0.053,0.307,0.214,0.525,0.505,0.686l1.383,0.526c1.072,0.414,1.317,0.529,1.423,0.593
		c0.511,0.315,0.818,0.79,0.893,1.372c0.062,0.553-0.414,1.147-1.644,1.91c-1.334,0.83-1.648,0.96-1.856,0.96h-0.036l-0.055-0.067
		c-0.747-0.018-1.034-0.533-1.034-0.979c0-0.209,0.077-0.424,0.223-0.594l0.164-0.133l1.345-0.642
		c0.392-0.196,0.622-0.342,0.756-0.44c-0.115-0.056-0.292-0.129-0.559-0.214c-0.975-0.305-1.624-0.557-1.983-0.769
		c-0.681-0.384-1.104-0.897-1.287-1.516c-0.133,0.378-0.363,0.787-0.722,1.242c-0.416,0.555-0.959,1.128-1.608,1.696
		c-0.857,0.752-1.072,0.84-1.249,0.872c-0.066,0.019-0.217,0.029-0.339,0.008c-0.039,0.585-0.086,1.495-0.14,2.904
		c-0.043,2.456,0.014,2.907,0.032,2.986c0.062,0.132,0.102,0.308,0.102,0.479c0,0.059-0.023,0.108-0.032,0.164H323l4-4V4L323,0z
		 M285.321,17.147c-0.351,0-0.646-0.176-0.81-0.482c-0.119-0.215-0.245-0.638-0.245-2.101c0.022-0.741,0.039-1.466,0.051-2.192
		c0.004-0.461-0.017-0.787-0.047-1.016c-0.063,0.097-0.138,0.211-0.223,0.348c-0.478,0.771-0.905,1.612-1.271,2.497
		c-0.271,0.661-0.553,1.559-0.836,2.629c-0.089,0.342-0.299,1.17-0.945,1.17h-0.058l-0.098-0.039
		c-0.501-0.13-0.821-0.468-0.914-0.937c-0.011-0.153-0.033-0.735-0.077-1.83c-0.061-1.7-0.125-2.701-0.179-3.285
		c-0.095,0.182-0.209,0.416-0.343,0.717c-0.529,1.172-0.884,2.321-1.055,3.418l0.006,0.7c0,0.33-0.039,0.796-0.377,1.028
		c-0.178,0.122-0.394,0.183-0.642,0.183l-0.101-0.003c-0.447-0.026-0.665-0.228-0.77-0.393c-0.121-0.186-0.17-0.463-0.17-0.984
		c0-0.398,0.089-1.529,0.271-3.457c0.031-0.33,0.037-0.539,0.016-0.944c-0.008-0.128-0.015-0.174-0.021-0.174H276v-0.828
		c0-0.315,0.316-0.57,0.492-0.758c0.127-0.136,0.475-0.297,0.869-0.297c0.281,0,0.58,0.106,0.754,0.306
		c0.04,0.042,0.105,0.086,0.141,0.135c0.756-1.371,1.237-1.685,1.675-1.685c0.359,0,0.876,0.151,1.257,0.872
		c0.083,0.122,0.242,0.356,0.392,2.597c0.115-0.228,0.229-0.443,0.341-0.646c1.269-2.362,1.94-2.75,2.43-2.818l0.114-0.008
		c0.314,0,0.617,0.16,0.929,0.488c0.291,0.308,0.47,0.602,0.547,0.9c0.07,0.25,0.17,0.823,0.201,2.812
		c0.011,1.145,0.011,1.919,0,2.327c0.001,0,0.006,0.077,0.064,0.279c0.071,0.253,0.104,0.427,0.104,0.567
		C286.309,16.66,286.05,17.147,285.321,17.147z M292.104,15.9c-0.225,0.944-0.358,1.24-0.533,1.388
		c-0.103,0.1-0.27,0.198-0.53,0.198l-0.104-0.005c-0.311-0.028-0.501-0.17-0.607-0.284c-0.005-0.005-0.01-0.011-0.015-0.016
		c-0.73,0.413-1.408,0.621-2.021,0.621c-0.555,0-1.004-0.176-1.336-0.524c-0.326-0.34-0.491-0.779-0.491-1.303
		c0-0.679,0.242-1.347,0.721-1.988c0.495-0.662,1.087-1.047,1.757-1.145c0.101-0.014,0.387-0.02,0.477-0.02
		c0.416,0,0.578,0.135,1.578,0.641c0-0.025,0-0.05,0-0.076c0-0.685-0.357-1.333-0.684-1.926c-0.163-0.303-0.463-0.43-0.783-0.43
		c-0.228,0-0.489,0.058-0.701,0.178c-0.082,0.047-0.162,0.085-0.199,0.114l-0.007,0.027l-0.165,0.234
		c-0.081,0.1-0.239,0.219-0.516,0.219c-0.562,0-0.941-0.323-0.986-0.843c-0.041-0.494,0.26-0.922,0.891-1.277
		c0.94-0.529,2.148-0.594,2.881-0.129c1.145,0.721,1.727,1.999,1.727,3.799C292.457,14.154,292.339,15.011,292.104,15.9z"/>
</g>
<g>
	<path fill="#3FA9F5" d="M375.041,11.708c-0.04-0.035-0.115-0.081-0.244-0.12l-0.075,0.019c-0.208,0.05-0.407,0.151-0.608,0.31
		c-0.516,0.423-0.946,1.127-1.271,2.086c-0.049,0.141-0.073,0.306-0.073,0.495c0,0.326,0.062,0.621,0.185,0.875
		c0.169,0.321,0.332,0.321,0.402,0.321c0.248,0,0.57-0.149,0.93-0.431c0.379-0.283,0.632-0.557,0.764-0.82
		c0.287-0.578,0.433-1.085,0.433-1.508c0-0.278-0.058-0.541-0.175-0.804C375.17,11.844,375.075,11.739,375.041,11.708z"/>
	<path fill="#3FA9F5" d="M367.092,11.605c-0.072,0.414-0.158,1.037-0.256,1.858c-0.008,0.235-0.013,0.502-0.013,0.765
		c0,0.454,0.016,0.874,0.045,1.256c2.272-1.729,2.634-2.625,2.634-3.02c0-0.24-0.258-0.448-0.767-0.618
		C368.222,11.672,367.652,11.583,367.092,11.605z"/>
	<path fill="#3FA9F5" d="M360.536,15.166c-0.169,0.237-0.249,0.477-0.249,0.742c0,0.034,0.001,0.062,0.003,0.083
		c0.024,0.004,0.048,0.005,0.068,0.005c0.242,0,0.667-0.111,1.356-0.604c-0.199-0.524-0.351-0.687-0.402-0.73
		C360.975,14.731,360.721,14.897,360.536,15.166z"/>
	<path fill="#3FA9F5" d="M407,0h-67l-4,4v16l4,4h67l4-4V4L407,0z M364.135,15.9c-0.225,0.944-0.358,1.24-0.533,1.388
		c-0.103,0.101-0.27,0.198-0.53,0.198l-0.104-0.005c-0.311-0.028-0.502-0.17-0.607-0.284c-0.005-0.005-0.01-0.011-0.015-0.016
		c-0.73,0.413-1.408,0.621-2.021,0.621c-0.555,0-1.004-0.176-1.336-0.524c-0.326-0.34-0.491-0.779-0.491-1.303
		c0-0.678,0.242-1.347,0.721-1.988c0.495-0.662,1.087-1.047,1.757-1.145c0.101-0.014,0.371-0.02,0.462-0.02
		c0.416,0,0.562,0.135,1.562,0.641c0-0.025,0-0.05,0-0.076c0-0.685-0.342-1.333-0.668-1.926c-0.164-0.303-0.456-0.43-0.776-0.43
		c-0.228,0-0.485,0.058-0.697,0.178c-0.082,0.047-0.159,0.085-0.197,0.114l-0.006,0.027l-0.164,0.234
		c-0.081,0.1-0.239,0.219-0.516,0.219c-0.562,0-0.942-0.323-0.987-0.843c-0.04-0.494,0.261-0.922,0.892-1.277
		c0.94-0.529,2.148-0.594,2.881-0.129c1.145,0.721,1.727,1.999,1.727,3.799C364.487,14.154,364.369,15.011,364.135,15.9z
		 M375.87,16.374c-0.869,0.793-1.779,1.193-2.71,1.193c-0.329,0-0.617-0.065-0.858-0.194c-0.395-0.197-0.748-0.577-1.036-1.123
		c-0.278-0.523-0.42-1.108-0.42-1.737c0-0.206,0.031-0.407,0.064-0.608c-0.318,0.499-0.773,1.045-1.378,1.65
		c-0.705,0.625-1.381,1.229-2.053,1.833l-0.208,0.272c-0.147,0.177-0.352,0.268-0.586,0.268l-0.177-0.015
		c-0.475-0.082-0.789-0.366-0.878-0.778c-0.344-0.098-0.509-0.293-0.596-0.465c-0.074-0.183-0.159-0.397-0.034-2.621
		c0.058-1.13,0.117-1.972,0.178-2.507c-0.07-0.108-0.139-0.245-0.209-0.418l-0.034-0.134c-0.029-0.268,0.053-0.634,0.564-0.935
		c0.337-1.299,0.508-2.37,0.508-3.186c-0.004-0.044-0.026-0.132-0.06-0.257c-0.062-0.241-0.092-0.42-0.092-0.566
		c0-0.514,0.338-0.875,0.861-0.918c0.36,0.012,0.691,0.198,0.926,0.596c0.195,0.375,0.288,0.787,0.288,1.246
		c0,0.435-0.061,0.929-0.18,1.469c-0.126,0.529-0.226,0.957-0.298,1.285c2.006,0.095,3.079,0.782,3.647,2.048
		C371.188,11.96,371,12.165,371,12.38c0,0.001,0,0.002,0,0.003c1-1.737,2.055-2.634,3.15-2.719c0.555-0.042,1.224,0.15,1.771,0.573
		c0.682,0.513,1.161,1.273,1.305,2.255c0.026,0.224,0.067,0.434,0.067,0.644C377.294,14.384,376.834,15.473,375.87,16.374z
		 M390.821,10.421c-0.163,0.171-0.396,0.258-0.693,0.258c-0.081,0-0.203-0.009-0.365-0.029c-0.1-0.012-0.17-0.021-0.207-0.021
		c-0.642,0-1.431,0.095-2.35,0.284c-0.215,1.866-0.324,3.455-0.324,4.727c0,0.294,0.006,0.562,0.017,0.801l0.029,0.111
		c0.037,0.161,0.055,0.296,0.055,0.415c0,0.55-0.355,0.906-0.906,0.906l-0.101-0.004c-0.369-0.021-0.684-0.234-0.876-0.603
		c-0.133-0.264-0.19-0.545-0.175-0.845c-0.001-0.582,0.062-1.775,0.186-3.521c0.05-0.392,0.111-0.893,0.184-1.512
		c-0.184,0.062-0.405,0.14-0.675,0.237c-0.183,0.09-0.42,0.237-0.659,0.417c-0.255,0.191-0.445,0.273-0.637,0.273l-0.194-0.032
		c-0.155-0.04-0.276-0.095-0.381-0.157c-0.119,0.594-0.274,1.25-0.471,1.981c-0.678,2.418-1.194,2.946-1.611,3.144
		c-0.239,0.12-0.49,0.183-0.736,0.183c-1.592,0-2.401-2.247-2.549-7.07c-0.019-0.352,0.058-0.625,0.232-0.824
		c0.164-0.185,0.383-0.286,0.619-0.286l0.157,0.014c0.593,0.115,0.933,0.542,0.915,1.146c-0.055,1.398,0.042,2.655,0.289,3.738
		c0.126,0.58,0.244,0.9,0.328,1.074c0.298-0.569,0.554-1.384,0.761-2.421c0.15-0.793,0.232-1.416,0.242-1.846
		c0.022-0.808,0.525-1.095,0.988-1.095c0.25,0.01,0.662,0.097,0.882,0.591c0.262-0.189,0.579-0.33,0.855-0.436
		c0.362-0.145,0.992-0.355,1.915-0.639c0.08-0.554,0.24-1.522,0.395-2.888C385.97,6.417,386,6.346,386,6.25V5.793
		c0-1.071,0.625-1.154,0.83-1.154c0.457,0,0.98,0.296,0.98,1.705c0,0.271-0.028,0.588-0.063,0.953
		c-0.057,0.357-0.146,0.92-0.263,1.705c0.717-0.099,1.41-0.13,2.085-0.096c0.469,0.017,0.643,0.056,0.751,0.092
		c0.404,0.095,0.686,0.403,0.711,0.813C391.046,10.12,390.925,10.312,390.821,10.421z"/>
</g>
<g>
	<path fill="#FF33FF" d="M34.237,37.708c-0.04-0.035-0.115-0.081-0.243-0.119l-0.076,0.018c-0.208,0.05-0.407,0.151-0.608,0.31
		c-0.517,0.424-0.946,1.128-1.271,2.086c-0.049,0.141-0.074,0.306-0.074,0.495c0,0.326,0.062,0.621,0.185,0.875
		c0.168,0.321,0.332,0.321,0.402,0.321c0.249,0,0.57-0.149,0.929-0.431c0.379-0.284,0.633-0.557,0.764-0.82
		c0.288-0.577,0.433-1.084,0.433-1.508c0-0.277-0.057-0.541-0.175-0.805C34.366,37.843,34.271,37.739,34.237,37.708z"/>
	<path fill="#FF33FF" d="M71,26H4l-4,4v16l4,4h67l4-4V30L71,26z M35.066,42.374c-0.869,0.793-1.779,1.193-2.71,1.193
		c-0.329,0-0.617-0.065-0.857-0.194c-0.395-0.197-0.749-0.577-1.038-1.122c-0.165-0.312-0.266-0.651-0.333-1.002
		c-0.008,0.202-0.015,0.401-0.027,0.619c-0.011,0.127-0.013,0.264-0.008,0.429c0.006,0.198,0.009,0.549,0.009,0.583
		c0,0.517-0.354,1.12-0.902,1.12c-0.001,0-0.001,0-0.002,0c-0.539,0-0.899-0.552-1.01-1.085c-0.044-0.208-0.047-0.619-0.008-1.038
		c0.033-0.396,0.048-0.945,0.048-1.523c0-2.17-0.25-2.566-0.278-2.601c-0.132,0.031-0.601,0.117-1.624,1.046
		c-0.756,0.672-1.252,1.249-1.479,1.733c-0.329,0.688-0.455,1.396-0.376,2.115c0.055,0.559-0.041,0.961-0.292,1.239
		c-0.14,0.154-0.397,0.337-0.827,0.337c-0.393,0-0.637-0.162-0.772-0.297c-0.196-0.197-0.298-0.458-0.298-0.758
		c0-0.225,0.081-0.505,0.262-0.91c-0.007,0,0.033-0.285,0.074-1.692c0.045-1.582,0.153-3.178,0.322-4.743l0.261-3.082
		c0.043-0.457,0.15-1.582,0.964-1.582c0.694,0.039,1.1,0.461,1.1,1.105c0,0.126-0.015,0.381-0.142,1.141
		c-0.11,0.638-0.187,1.175-0.23,1.613c-0.089,0.958-0.167,1.863-0.234,2.712c-0.004,0.046-0.008,0.091-0.011,0.137
		c1.558-1.646,2.896-2.299,4.043-1.949c0.932,0.325,1.389,1.535,1.45,3.77c0.055-0.241,0.13-0.478,0.233-0.707
		c0.938-2.137,1.988-3.224,3.206-3.318c0.534-0.045,1.108,0.149,1.655,0.573c0.683,0.513,1.105,1.273,1.247,2.256
		c0.027,0.223,0.039,0.433,0.039,0.643C36.519,40.384,36.03,41.473,35.066,42.374z M45.88,43.147c-0.351,0-0.646-0.176-0.811-0.482
		c-0.119-0.215-0.244-0.638-0.244-2.101c0.022-0.741,0.039-1.466,0.05-2.192c0.004-0.46-0.017-0.786-0.046-1.016
		c-0.064,0.097-0.138,0.211-0.223,0.348c-0.475,0.766-0.903,1.606-1.272,2.497c-0.27,0.659-0.551,1.558-0.835,2.629
		C42.41,43.172,42.2,44,41.554,44h-0.058l-0.098-0.039c-0.5-0.13-0.82-0.468-0.914-0.937c-0.011-0.154-0.033-0.736-0.076-1.831
		c-0.062-1.698-0.125-2.7-0.178-3.287c-0.096,0.183-0.21,0.417-0.345,0.719c-0.529,1.172-0.883,2.321-1.054,3.418l0.006,0.7
		c0,0.33-0.039,0.795-0.375,1.027c-0.18,0.123-0.396,0.184-0.644,0.184l-0.101-0.003c-0.444-0.026-0.663-0.226-0.767-0.389
		c-0.122-0.19-0.172-0.476-0.172-0.988c0-0.404,0.088-1.535,0.271-3.458c0.031-0.334,0.036-0.543,0.015-0.944
		C37.057,38.046,37.05,38,37.044,38H37v-0.828c0-0.315,0.096-0.57,0.272-0.758c0.127-0.136,0.364-0.297,0.759-0.297
		c0.28,0,0.523,0.105,0.698,0.305c0.039,0.042,0.078,0.087,0.113,0.136c0.756-1.371,1.225-1.685,1.662-1.685
		c0.359,0,0.869,0.151,1.249,0.872c0.083,0.121,0.24,0.356,0.389,2.596c0.115-0.227,0.228-0.442,0.338-0.645
		c1.27-2.363,1.941-2.75,2.43-2.818l0.114-0.008c0.313,0,0.617,0.16,0.928,0.487c0.29,0.307,0.469,0.601,0.547,0.899
		c0.07,0.251,0.169,0.825,0.201,2.814c0.011,1.145,0.011,1.92,0,2.327c0,0,0.006,0.076,0.065,0.28
		c0.071,0.252,0.103,0.426,0.103,0.566C46.867,42.66,46.608,43.147,45.88,43.147z M55.12,40.823l-1.904,1.403
		c-1.37,0.917-2.461,1.357-3.354,1.357c-0.881,0-1.649-0.436-2.284-1.295c-0.546-0.774-0.82-1.589-0.82-2.431
		c0-1.188,0.562-2.23,1.67-3.098c1.003-0.795,2.103-1.199,3.266-1.199c0.666,0,1.244,0.157,1.718,0.467
		c0.167,0.083,0.293,0.293,0.293,0.536c0,0.375-0.287,0.756-1.023,1.359c-0.485,0.403-0.892,0.784-1.471,1.131
		C50.509,39.481,50,39.751,49,39.856c0,0.008,0,0.017,0,0.025c0,0.397-0.012,0.78,0.24,1.17c0.42,0.66,0.739,0.66,0.866,0.66
		c0.357-0.013,0.964-0.2,2.201-1.02c1.176-0.79,1.403-1.063,1.449-1.128c0.218-0.387,0.521-0.827,0.969-0.827
		c0.173,0,0.343,0.054,0.513,0.16c0.407,0.298,0.484,0.64,0.484,0.877C55.723,40.062,55.616,40.479,55.12,40.823z"/>
</g>
<g>
	<path fill="#FF33FF" d="M155,26H88l-4,4v16l4,4h67l4-4V30L155,26z M106.686,41.222c-0.937,0.583-1.874,1.08-2.789,1.48
		c-1.267,0.538-2.314,0.798-3.208,0.798c-0.966,0-1.698-0.314-2.176-0.934c-0.28-0.353-0.423-0.791-0.423-1.297
		c0-0.059,0.019-0.122,0.022-0.181c-0.051,0.27-0.092,0.536-0.165,0.812c-0.228,0.957-0.357,1.243-0.537,1.391
		c-0.103,0.1-0.269,0.195-0.526,0.195l-0.104-0.005c-0.311-0.028-0.501-0.17-0.607-0.284c-0.005-0.005-0.01-0.011-0.015-0.016
		c-0.73,0.413-1.409,0.621-2.021,0.621c-0.555,0-1.004-0.176-1.336-0.524c-0.326-0.341-0.491-0.78-0.491-1.303
		c0-0.679,0.243-1.348,0.721-1.988c0.494-0.662,1.085-1.046,1.756-1.145c0.101-0.014-0.036-0.02,0.055-0.02
		c0.417,0,1.157,0.135,1.157,0.641c0-0.025,0-0.05,0-0.076c0-0.685,0.064-1.333-0.262-1.926c-0.163-0.303-0.252-0.43-0.573-0.43
		c-0.228,0-0.383,0.058-0.595,0.178c-0.084,0.048-0.113,0.087-0.15,0.116l0.021,0.032l-0.153,0.231
		c-0.081,0.098-0.231,0.215-0.506,0.215c-0.563,0-0.939-0.323-0.983-0.844c-0.041-0.492,0.26-0.921,0.892-1.276
		c0.942-0.53,2.152-0.595,2.883-0.129c1.145,0.721,1.727,2,1.727,3.799c0,0.315-0.033,0.646-0.069,0.977
		c0.213-0.802,0.679-1.66,1.416-2.568c1.032-1.266,1.971-1.946,2.869-2.078c0.138-0.016,0.251-0.022,0.358-0.022
		c0.79,0,1.071,0.466,1.071,0.903c0,0.269-0.108,0.546-0.321,0.825c-0.306,0.398-0.631,0.482-0.851,0.482
		c-0.096,0-0.213-0.017-0.379-0.054c-0.128-0.029-0.173-0.03-0.175-0.03c-0.032,0.009-0.323,0.131-1.167,1.218
		c-0.858,1.097-1.038,1.754-1.038,2.112c0,0.231,0.081,0.381,0.271,0.502c0.114,0.07,0.292,0.107,0.522,0.107
		c0.799,0,2.027-0.428,3.65-1.271c0.791-0.45,1.603-0.91,2.421-1.37c0.408-0.204,0.819-0.086,1.071,0.242
		c0.162,0.211,0.221,0.462,0.167,0.706C108.086,40.253,108.006,40.385,106.686,41.222z M115.664,41.796
		c0.129,0.398,0.142,0.475,0.142,0.566c0,0.125-0.022,0.267-0.068,0.434c-0.104,0.387-0.435,0.62-0.886,0.62
		c-0.249,0-0.489-0.09-0.713-0.267c-0.282-0.224-0.391-0.637-0.391-1.476c0-0.018,0-0.073,0.168-3.652
		c0.046-0.816,0.077-1.262,0.089-1.344c0.001-0.008,0.004-0.014,0.005-0.022c-0.052,0.006-0.094,0.024-0.15,0.024
		c-0.081,0-0.203-0.009-0.365-0.029c-0.1-0.012-0.169-0.021-0.207-0.021c-0.642,0-1.432,0.095-2.35,0.284
		c-0.215,1.865-0.324,3.454-0.324,4.727c0,0.294,0.005,0.561,0.016,0.8l0.03,0.114c0.037,0.163,0.054,0.297,0.054,0.413
		c0,0.55-0.355,0.906-0.905,0.906l-0.101-0.004c-0.37-0.021-0.684-0.234-0.877-0.602c-0.134-0.268-0.19-0.55-0.174-0.848
		c-0.001-0.583,0.062-1.775,0.185-3.519c0.051-0.393,0.111-0.894,0.183-1.512c-0.195,0.066-0.42,0.145-0.674,0.237
		c-0.182,0.089-0.419,0.236-0.659,0.417c-0.254,0.191-0.445,0.273-0.637,0.273l-0.194-0.032c-0.772-0.196-0.86-0.736-0.86-0.959
		c0-0.699,0.788-1.08,1.381-1.305c0.361-0.144,1.006-0.359,1.916-0.639c0.08-0.55,0.374-1.518,0.528-2.888
		c0.01-0.069,0.174-0.143,0.174-0.245v-0.453c0-1.071,0.491-1.154,0.695-1.154c0.457,0,0.914,0.296,0.914,1.705
		c0,0.271-0.062,0.588-0.097,0.952c-0.056,0.357-0.162,0.921-0.278,1.706c0.716-0.099,1.404-0.13,2.075-0.096
		c0.471,0.017,0.64,0.057,0.749,0.093c0.352,0.082,0.597,0.517,0.674,0.85c0.072-0.021,0.139,0.15,0.197,0.15
		c0.002,0,0.005,0,0.007,0c0.362,0,0.627-0.054,0.826,0.193c0.136,0.171,0.287,0.374,0.242,0.817
		c-0.233,2.145-0.369,3.463-0.402,4.016C115.58,41.474,115.623,41.671,115.664,41.796z M115.994,31.469
		c-0.077,0.166-0.226,0.507-0.446,1.025c-0.056,0.153-0.103,0.354-0.132,0.575c-0.022,0.193-0.078,0.468-0.281,0.649
		c-0.191,0.213-0.406,0.32-0.639,0.32c-0.131,0-0.328-0.037-0.519-0.213c-0.264-0.229-0.295-0.607-0.295-0.872
		c0-0.421,0.112-0.872,0.334-1.34c0.013-0.033,0.11-0.299,0.284-0.779c0.136-0.384,0.444-0.616,0.823-0.616
		c0.364,0,0.579,0.152,0.695,0.28c0.18,0.197,0.254,0.468,0.223,0.805L115.994,31.469z M124.497,37.066
		c-0.201,0.174-0.718,0.787-2.007,2.687c-1.231,1.805-1.617,2.457-1.725,2.687c-0.335,0.787-0.784,1.195-1.326,1.195
		c-0.165,0-0.327-0.044-0.481-0.131c-0.25-0.135-0.448-0.398-0.579-0.776c-0.065-0.241-0.124-0.446-0.189-0.651
		c-0.244-1.028-0.534-2.16-0.879-3.43c-0.388-1.078-0.421-1.313-0.421-1.458c0-0.833,1.075-1.176,1.775-0.23
		c0.229,0.31,0.402,0.688,0.519,1.127c0.065,0.4,0.216,1.124,0.458,2.203c0.01,0.041,0.022,0.089,0.037,0.144
		c0.36-0.517,0.833-1.19,1.419-2.02c0.792-1.049,1.591-2.134,2.406-3.269c0.209-0.484,0.554-1.093,1.161-1.093
		c0.173,0,0.498,0.057,0.735,0.436c0.134,0.215,0.202,0.44,0.202,0.668C125.6,35.811,125.229,36.454,124.497,37.066z
		 M127.003,41.796c0.129,0.398,0.142,0.475,0.142,0.566c0,0.125-0.022,0.267-0.068,0.434c-0.104,0.387-0.435,0.62-0.886,0.62
		c-0.249,0-0.489-0.09-0.713-0.267c-0.282-0.224-0.391-0.637-0.391-1.476c0-0.018,0-0.073,0.168-3.652
		c0.046-0.816,0.077-1.077,0.089-1.158c0.146-0.881,0.642-0.862,0.924-0.862c0.002,0,0.005,0,0.007,0
		c0.362,0,0.627-0.054,0.826,0.193c0.136,0.171,0.287,0.374,0.242,0.817c-0.233,2.145-0.369,3.463-0.402,4.016
		C126.919,41.474,126.963,41.671,127.003,41.796z M127.333,31.469c-0.077,0.166-0.226,0.507-0.446,1.025
		c-0.056,0.153-0.103,0.354-0.132,0.575c-0.022,0.193-0.078,0.468-0.281,0.649c-0.191,0.213-0.406,0.32-0.639,0.32
		c-0.131,0-0.328-0.037-0.519-0.213c-0.264-0.229-0.295-0.607-0.295-0.872c0-0.421,0.112-0.872,0.334-1.34
		c0.013-0.033,0.11-0.299,0.284-0.779c0.136-0.384,0.444-0.616,0.823-0.616c0.364,0,0.579,0.152,0.695,0.28
		c0.18,0.197,0.254,0.468,0.223,0.805L127.333,31.469z M137.184,41.796c0.129,0.398,0.142,0.475,0.142,0.566
		c0,0.125-0.022,0.267-0.068,0.434c-0.104,0.387-0.435,0.62-0.886,0.62c-0.249,0-0.489-0.09-0.713-0.267
		c-0.282-0.224-0.391-0.637-0.391-1.476c0-0.018,0-0.073,0.168-3.652c0.046-0.816,0.077-1.262,0.089-1.344
		c0.001-0.008,0.004-0.014,0.005-0.022c-0.052,0.006-0.094,0.024-0.15,0.024c-0.081,0-0.203-0.009-0.365-0.029
		c-0.1-0.012-0.169-0.021-0.207-0.021c-0.642,0-1.432,0.095-2.35,0.284c-0.215,1.865-0.324,3.454-0.324,4.727
		c0,0.294,0.005,0.561,0.016,0.8l0.03,0.114c0.037,0.163,0.054,0.297,0.054,0.413c0,0.55-0.355,0.906-0.905,0.906l-0.101-0.004
		c-0.37-0.021-0.684-0.234-0.877-0.602c-0.134-0.268-0.19-0.55-0.174-0.848c-0.001-0.583,0.062-1.775,0.185-3.519
		c0.051-0.393,0.111-0.894,0.183-1.512c-0.195,0.066-0.42,0.145-0.674,0.237c-0.182,0.089-0.419,0.236-0.659,0.417
		c-0.254,0.191-0.445,0.273-0.637,0.273l-0.194-0.032c-0.772-0.196-0.86-0.736-0.86-0.959c0-0.699,0.788-1.08,1.381-1.305
		c0.361-0.144,1.006-0.359,1.916-0.639c0.08-0.55,0.113-1.518,0.268-2.888c0.009-0.069-0.087-0.143-0.087-0.245v-0.453
		c0-1.071,0.751-1.154,0.956-1.154c0.457,0,1.044,0.296,1.044,1.705c0,0.271,0.003,0.588-0.032,0.952
		c-0.056,0.357-0.13,0.921-0.245,1.706c0.717-0.099,1.42-0.13,2.091-0.096c0.471,0.017,0.649,0.057,0.757,0.093
		c0.352,0.082,0.6,0.517,0.677,0.85c0.072-0.021,0.143,0.15,0.202,0.15c0.002,0,0.005,0,0.007,0c0.362,0,0.627-0.054,0.826,0.193
		c0.136,0.171,0.287,0.374,0.242,0.817c-0.233,2.145-0.369,3.463-0.402,4.016C137.1,41.474,137.144,41.671,137.184,41.796z
		 M137.514,31.469c-0.077,0.166-0.226,0.507-0.446,1.025c-0.056,0.153-0.103,0.354-0.132,0.575
		c-0.022,0.193-0.078,0.468-0.281,0.649c-0.191,0.213-0.406,0.32-0.639,0.32c-0.131,0-0.328-0.037-0.519-0.213
		c-0.264-0.229-0.295-0.607-0.295-0.872c0-0.421,0.112-0.872,0.334-1.34c0.013-0.033,0.11-0.299,0.284-0.779
		c0.136-0.384,0.444-0.616,0.823-0.616c0.364,0,0.579,0.152,0.695,0.28c0.18,0.197,0.254,0.468,0.223,0.805L137.514,31.469z
		 M147.702,38.953c0.052,0.307,0.212,0.525,0.504,0.686l1.382,0.526c1.071,0.413,1.316,0.529,1.422,0.592
		c0.511,0.316,0.818,0.79,0.894,1.373c0.062,0.554-0.415,1.148-1.644,1.91c-1.336,0.831-1.641,0.96-1.857,0.96h-0.036l-0.055-0.067
		c-0.747-0.018-1.034-0.533-1.034-0.979c0-0.21,0.077-0.425,0.222-0.594l0.164-0.133l1.345-0.642
		c0.392-0.196,0.622-0.342,0.756-0.44c-0.115-0.056-0.292-0.129-0.559-0.214c-0.975-0.306-1.624-0.557-1.984-0.769
		c-0.352-0.199-0.624-0.438-0.844-0.701c-0.089,0.123-0.199,0.246-0.364,0.36l-1.904,1.403c-1.37,0.917-2.461,1.357-3.354,1.357
		c-0.881,0-1.649-0.436-2.284-1.295c-0.546-0.774-0.82-1.589-0.82-2.431c0-1.188,0.562-2.23,1.67-3.098
		c1.003-0.795,2.103-1.199,3.266-1.199c0.666,0,1.244,0.157,1.718,0.467c0.167,0.083,0.293,0.293,0.293,0.536
		c0,0.375-0.287,0.756-1.023,1.359c-0.485,0.403-0.84,0.784-1.419,1.131c-0.701,0.427-2.158,0.697-2.158,0.802
		c0,0.008,0,0.017,0,0.025c0,0.397-0.064,0.78,0.188,1.17c0.42,0.66,0.713,0.66,0.84,0.66c0.356-0.013,0.95-0.2,2.187-1.02
		c1.176-0.79,1.397-1.063,1.443-1.128c0.218-0.387,0.518-0.827,0.966-0.827c0.077,0,0.148,0.015,0.225,0.036
		c0.033-0.85,0.413-1.729,1.187-2.619c0.383-0.431,1.098-1.08,2.189-1.988c0.48-0.4,1.044-0.486,1.596-0.241
		c0.205,0.114,0.371,0.211,0.542,0.313c0.286,0.195,0.532,0.4,0.574,0.695c0.058,0.315-0.053,0.533-0.156,0.657
		c-0.107,0.129-0.315,0.283-0.691,0.283c-0.202,0-0.407-0.052-0.61-0.153c-0.032-0.016-0.06-0.03-0.083-0.041
		c-0.105,0.022-0.239,0.094-0.383,0.214l-1.307,1.208c-0.346,0.307-0.616,0.67-0.809,1.086
		C147.69,38.635,147.686,38.859,147.702,38.953z"/>
	<path fill="#FF33FF" d="M94.1,41.908c0,0.034,0.001,0.062,0.003,0.083c0.215,0.032,0.664-0.055,1.424-0.6
		c-0.199-0.523-0.351-0.687-0.403-0.73c-0.337,0.07-0.592,0.236-0.777,0.505C94.18,41.402,94.1,41.643,94.1,41.908z"/>
</g>
<path fill="#FF33FF" d="M239,26h-67l-4,4v16l4,4h59.079c0.038-0.283,0.136-0.467,0.255-0.582c0.063-0.342,0.219-1.46,0.585-5.074
	c0.176-1.675,0.298-3.201,0.365-4.557c-2.058,2.385-2.821,2.738-3.337,2.738c-0.469-0.015-0.947-0.303-0.947-1.592
	c0-0.014,0-0.031,0-0.052c0,0.1-0.368,0.209-0.575,0.34c-0.938,0.583-1.899,1.08-2.813,1.48c-1.249,0.53-2.338,0.798-3.221,0.798
	c-0.967,0-1.705-0.314-2.183-0.934c-0.262-0.33-0.396-0.741-0.412-1.207c0.007,0.711,0.019,0.988,0.027,1.089
	c0.209,0.441,0.302,0.743,0.302,0.972c0,0.559-0.349,0.92-0.888,0.92c-0.306,0-0.59-0.117-0.846-0.346
	c-0.268-0.239-0.41-0.554-0.41-0.91c0-0.067,0.01-0.011,0.035-0.137c0.008-0.042,0.015,0.053,0.016,0.053h0.007
	c-0.027-1-0.052-0.646-0.089-1.117c-0.068-0.669-0.098-1.466-0.086-2.208c0.018-0.688,0.017-1.225,0.008-1.584
	c-0.058,0.103-0.122,0.2-0.192,0.333c-0.502,0.944-0.957,1.941-1.352,2.983c-0.151,0.401-0.299,0.861-0.438,1.376
	c-0.115,0.431-0.239,0.659-0.426,0.793c-0.274,0.136-0.447,0.177-0.611,0.177c-0.228,0-0.97-0.091-0.97-1.256
	c0-0.125,0.017-0.532,0.051-1.218c0.015-0.243,0.017-0.47,0.027-0.708c-0.077,0.086-0.168,0.172-0.285,0.253l-1.903,1.403
	c-1.369,0.917-2.46,1.357-3.354,1.357c-0.881,0-1.649-0.436-2.284-1.294c-0.546-0.775-0.819-1.589-0.819-2.431
	c0-0.992,0.414-1.875,1.188-2.646l-0.12,0.015c-0.136,0-0.286-0.028-0.458-0.086c-0.166-0.055-0.227-0.058-0.229-0.058
	c-0.051,0-0.108,0.02-0.175,0.061c-0.994,0.561-2.129,1.812-3.389,3.729c-0.201,0.302-0.329,0.729-0.382,1.27
	c-0.098,0.99-0.153,1.146-0.267,1.289c-0.197,0.241-0.467,0.372-0.761,0.372c-0.32,0-0.604-0.126-0.822-0.365
	c-0.173-0.171-0.266-0.441-0.266-0.807c0-0.114,0.012-0.341,0.105-1.087c0.087-0.604,0.142-1.136,0.165-1.592
	c0.021-0.406,0.032-0.778,0.032-1.118c0-0.502-0.022-0.94-0.066-1.312l-0.516-0.327c-0.092-0.014-0.178-0.018-0.285-0.054
	c-0.167-0.056-0.227-0.058-0.229-0.058c-0.05,0-0.109,0.02-0.173,0.06c-0.994,0.561-2.129,1.812-3.389,3.729
	c-0.201,0.302-0.329,0.728-0.382,1.27c-0.103,1.037-0.165,1.159-0.265,1.286c-0.203,0.248-0.464,0.375-0.762,0.375
	c-0.321,0-0.605-0.126-0.823-0.365c-0.173-0.171-0.265-0.441-0.265-0.807c0-0.106,0.011-0.334,0.104-1.086
	c0.088-0.609,0.143-1.141,0.165-1.592c0.022-0.407,0.033-0.78,0.033-1.119c0-0.536-0.025-1-0.075-1.387l-0.807,1.304
	c-0.097,0.424-0.206,0.871-0.336,1.355c-0.678,2.419-1.196,2.947-1.613,3.144c-0.238,0.12-0.488,0.183-0.734,0.183
	c-0.963,0-1.638-0.828-2.055-2.545c-0.148,0.098-0.313,0.205-0.517,0.334c-0.937,0.583-1.874,1.08-2.789,1.48
	c-1.267,0.538-2.314,0.798-3.208,0.798c-0.966,0-1.698-0.314-2.176-0.934c-0.28-0.353-0.423-0.791-0.423-1.297
	c0-1.054,0.524-2.234,1.557-3.507c1.032-1.266,1.971-1.946,2.869-2.078c0.138-0.016,0.251-0.022,0.358-0.022
	c0.79,0,1.071,0.466,1.071,0.903c0,0.269-0.108,0.546-0.321,0.825c-0.306,0.398-0.631,0.482-0.851,0.482
	c-0.096,0-0.213-0.017-0.379-0.054c-0.128-0.029-0.173-0.03-0.175-0.03c-0.032,0.009-0.323,0.131-1.167,1.218
	c-0.858,1.097-1.038,1.754-1.038,2.112c0,0.231,0.081,0.381,0.271,0.502c0.114,0.07,0.292,0.107,0.522,0.107
	c0.799,0,2.027-0.428,3.65-1.271c0.791-0.45,1.603-0.91,2.421-1.37c0.005-0.002,0.011-0.002,0.016-0.005
	c-0.092-0.795-0.156-1.695-0.187-2.719c-0.018-0.352,0.059-0.625,0.233-0.824c0.164-0.185,0.383-0.286,0.618-0.286l0.158,0.015
	c0.593,0.114,0.933,0.542,0.914,1.146c-0.054,1.397,0.044,2.654,0.291,3.737c0.125,0.579,0.243,0.899,0.328,1.073
	c0.297-0.57,0.554-1.384,0.761-2.421c0.15-0.793,0.232-1.416,0.242-1.846c0.021-0.807,0.523-1.094,0.988-1.094
	c0.322,0.013,0.917,0.144,1.018,1.123l0.006,0.061l-0.001,0.009l0.309-1.237c0.026-0.042,0.054-0.083,0.083-0.12l1.013-0.381
	c0.174,0.041,0.34,0.132,0.497,0.274c0.325,0.307,0.472,0.904,0.5,2.004c0.004,0.172,0.008,0.382,0.011,0.63
	c0.516-0.605,0.986-1.106,1.401-1.49c0.749-0.703,0.956-0.874,1.053-0.944c0.824-0.57,1.642-0.687,2.536-0.389l0.001,0l0.848-0.088
	c0.177,0.04,0.346,0.132,0.504,0.276c0.325,0.306,0.473,0.903,0.5,2.004c0.004,0.172,0.008,0.383,0.011,0.631
	c0.514-0.603,0.984-1.104,1.4-1.49c0.752-0.705,0.959-0.875,1.056-0.945c0.823-0.57,1.646-0.685,2.534-0.388
	c0.181,0.065,0.577,0.275,0.577,0.911c0,0.078-0.02,0.148-0.037,0.22c0.911-0.633,1.894-0.972,2.93-0.972
	c0.666,0,1.244,0.157,1.719,0.467c0.168,0.085,0.294,0.295,0.294,0.536c0,0.375-0.287,0.756-1.024,1.359
	c-0.481,0.401-1.167,0.782-1.749,1.131c-0.701,0.428-1.488,0.697-2.488,0.802c0,0.008,0,0.017,0,0.025
	c0,0.397,0.266,0.78,0.518,1.169c0.422,0.661,0.879,0.661,1.006,0.661c0.357-0.013,1.034-0.2,2.271-1.02
	c1.176-0.79,1.438-1.063,1.484-1.128c0.218-0.387,0.538-0.827,0.986-0.827c0.173,0,0.351,0.054,0.521,0.16
	c0.094,0.069,0.17,0.14,0.231,0.211c0.025-1.109,0.099-2.129,0.223-3.031c0.104-0.607,0.514-0.818,0.864-0.818
	c0.383,0,0.708,0.162,0.938,0.467c0.111,0.143,0.168,0.336,0.168,0.587c0,0.097-0.025,0.376-0.08,0.84
	c-0.007,0.06-0.013,0.119-0.02,0.178c1.095-1.866,1.737-2.166,2.229-2.166l0.195,0.021c0.934,0.188,1.096,1.415,1.149,1.818
	c0.081,0.583,0.115,1.641,0.104,3.227c0,0.373,0.001,0.679,0.003,0.939c0.031-1.03,0.543-2.174,1.544-3.408
	c1.034-1.267,1.973-1.946,2.869-2.078c0.138-0.016,0.252-0.022,0.359-0.022c0.79,0,1.071,0.466,1.071,0.903
	c0,0.268-0.108,0.545-0.321,0.825c-0.305,0.398-0.631,0.482-0.852,0.482c-0.096,0-0.213-0.017-0.379-0.054
	c-0.128-0.029-0.173-0.03-0.175-0.03c-0.032,0.009-0.325,0.131-1.167,1.218c-0.858,1.097-1.038,1.754-1.038,2.112
	c0,0.231,0.081,0.381,0.271,0.502c0.114,0.069,0.292,0.107,0.522,0.107c0.799,0,2.027-0.428,3.65-1.271
	c0.789-0.45,1.603-0.91,2.421-1.37c0.183-0.092,0.363-0.11,0.532-0.083c0.063-0.49,0.147-1.105,0.259-1.887
	c0.093-0.679,0.145-1.049,0.157-1.107c0.145-0.601,0.467-0.802,0.713-0.868l0.197-0.029c0.188,0,0.382,0.071,0.594,0.217
	c0.361,0.25,0.457,0.54,0.475,0.738c0.002,0.121,0.002,0.208-0.344,1.955c-0.147,0.764-0.23,1.282-0.276,1.632
	c0.119-0.117,0.267-0.267,0.445-0.458c0.254-0.276,0.894-1.011,1.919-2.202l-0.001,0c-0.007,0,0.074-0.149,0.208-0.398
	c0.259-0.469,0.583-0.566,0.81-0.566c0.109,0,0.225,0.02,0.342,0.059c0.663,0.249,0.746,1.138,0.746,1.886
	c0,0.214-0.013,0.415-0.038,0.604c-0.155,1.574-0.418,4.101-0.788,7.564c-0.079,0.712-0.18,1.506-0.304,2.385
	c-0.09,0.625-0.117,0.878-0.126,0.98c0.099,0.153,0.158,0.319,0.197,0.49H239l4-4V30L239,26z"/>
<g>
	<path fill="#FF33FF" d="M296.576,38.929c0.05-0.231-0.131-0.57-0.508-0.955c-0.272-0.279-0.539-0.474-0.797-0.585
		c-0.083,0.437-0.188,1.025-0.318,1.766c-0.073,0.449-0.166,1.128-0.279,2.061c0.147-0.1,0.287-0.201,0.417-0.304
		C295.935,40.248,296.435,39.581,296.576,38.929z"/>
	<path fill="#FF33FF" d="M288.506,41.166c-0.169,0.237-0.249,0.477-0.249,0.742c0,0.034,0.001,0.062,0.003,0.083
		c0.024,0.004,0.048,0.005,0.068,0.005c0.242,0,0.667-0.111,1.356-0.604c-0.199-0.524-0.351-0.687-0.402-0.73
		C288.944,40.731,288.69,40.897,288.506,41.166z"/>
	<path fill="#FF33FF" d="M323,26h-67l-4,4v16l4,4h36.501c-0.032-0.118-0.053-0.244-0.053-0.381c0-0.164,0.033-0.319,0.1-0.461
		c-0.002-0.095-0.013-0.286-0.028-0.596l-0.02-0.372c-0.034-0.643-0.052-1.271-0.052-1.885c0-0.489,0.012-0.985,0.035-1.486
		c0.067-1.543,0.164-2.912,0.287-4.066c0.034-0.249,0.182-1.369,0.444-3.375c-0.284-0.219-0.421-0.539-0.376-0.905
		c0.09-0.414,0.368-0.702,0.836-0.903c0.322-0.14,0.602-0.209,0.853-0.209c0.804,0.013,1.606,0.311,2.396,0.886
		c0.728,0.549,1.199,1.204,1.424,1.95c0.155-0.669,0.513-1.352,1.111-2.042c0.385-0.432,1.1-1.08,2.192-1.988
		c0.48-0.4,1.044-0.486,1.597-0.241c0.205,0.114,0.371,0.211,0.542,0.313c0.285,0.195,0.53,0.4,0.573,0.692
		c0.058,0.32-0.053,0.538-0.156,0.661c-0.108,0.128-0.315,0.282-0.691,0.282c-0.202,0-0.407-0.052-0.61-0.154
		c-0.031-0.016-0.059-0.029-0.082-0.04c-0.105,0.023-0.238,0.094-0.382,0.213l-1.309,1.209c-0.345,0.306-0.615,0.67-0.81,1.087
		c-0.206,0.448-0.211,0.671-0.195,0.765c0.053,0.307,0.214,0.525,0.505,0.686l1.383,0.526c1.072,0.414,1.317,0.529,1.423,0.593
		c0.511,0.315,0.818,0.79,0.893,1.372c0.062,0.553-0.414,1.147-1.644,1.91c-1.334,0.83-1.648,0.96-1.856,0.96h-0.036l-0.055-0.067
		c-0.747-0.018-1.034-0.533-1.034-0.979c0-0.209,0.077-0.424,0.223-0.594l0.164-0.133l1.345-0.642
		c0.392-0.196,0.622-0.342,0.756-0.44c-0.115-0.056-0.292-0.129-0.559-0.214c-0.975-0.305-1.624-0.557-1.983-0.769
		c-0.681-0.384-1.104-0.897-1.287-1.516c-0.133,0.378-0.363,0.787-0.722,1.242c-0.416,0.555-0.959,1.128-1.608,1.696
		c-0.857,0.752-1.072,0.84-1.249,0.872c-0.066,0.019-0.217,0.029-0.339,0.008c-0.039,0.585-0.086,1.495-0.14,2.904
		c-0.043,2.456,0.014,2.907,0.032,2.986c0.062,0.132,0.102,0.308,0.102,0.479c0,0.059-0.023,0.108-0.032,0.164H323l4-4V30L323,26z
		 M285.321,43.147c-0.351,0-0.646-0.176-0.81-0.482c-0.119-0.215-0.245-0.638-0.245-2.101c0.022-0.741,0.039-1.466,0.051-2.192
		c0.004-0.461-0.017-0.787-0.047-1.016c-0.063,0.097-0.138,0.211-0.223,0.348c-0.478,0.771-0.905,1.612-1.271,2.497
		c-0.271,0.661-0.553,1.559-0.836,2.629c-0.089,0.342-0.299,1.17-0.945,1.17h-0.058l-0.098-0.039
		c-0.501-0.13-0.821-0.468-0.914-0.937c-0.011-0.153-0.033-0.735-0.077-1.83c-0.061-1.7-0.125-2.701-0.179-3.285
		c-0.095,0.182-0.209,0.416-0.343,0.717c-0.529,1.172-0.884,2.321-1.055,3.418l0.006,0.7c0,0.33-0.039,0.796-0.377,1.028
		c-0.178,0.122-0.394,0.183-0.642,0.183l-0.101-0.003c-0.447-0.026-0.665-0.228-0.77-0.393c-0.121-0.186-0.17-0.463-0.17-0.984
		c0-0.398,0.089-1.529,0.271-3.457c0.031-0.33,0.037-0.539,0.016-0.944c-0.008-0.128-0.015-0.174-0.021-0.174H276v-0.828
		c0-0.315,0.316-0.57,0.492-0.758c0.127-0.136,0.475-0.297,0.869-0.297c0.281,0,0.58,0.106,0.754,0.306
		c0.04,0.042,0.105,0.086,0.141,0.135c0.756-1.371,1.237-1.685,1.675-1.685c0.359,0,0.876,0.151,1.257,0.872
		c0.083,0.122,0.242,0.356,0.392,2.597c0.115-0.228,0.229-0.443,0.341-0.646c1.269-2.362,1.94-2.75,2.43-2.818l0.114-0.008
		c0.314,0,0.617,0.16,0.929,0.488c0.291,0.308,0.47,0.602,0.547,0.9c0.07,0.25,0.17,0.823,0.201,2.812
		c0.011,1.145,0.011,1.919,0,2.327c0.001,0,0.006,0.077,0.064,0.279c0.071,0.253,0.104,0.427,0.104,0.567
		C286.309,42.66,286.05,43.147,285.321,43.147z M292.104,41.9c-0.225,0.944-0.358,1.24-0.533,1.388
		c-0.103,0.1-0.27,0.198-0.53,0.198l-0.104-0.005c-0.311-0.028-0.501-0.17-0.607-0.284c-0.005-0.005-0.01-0.011-0.015-0.016
		c-0.73,0.413-1.408,0.621-2.021,0.621c-0.555,0-1.004-0.176-1.336-0.524c-0.326-0.34-0.491-0.779-0.491-1.303
		c0-0.679,0.242-1.347,0.721-1.988c0.495-0.662,1.087-1.047,1.757-1.145c0.101-0.014,0.387-0.02,0.477-0.02
		c0.416,0,0.578,0.135,1.578,0.641c0-0.025,0-0.05,0-0.076c0-0.685-0.357-1.333-0.684-1.926c-0.163-0.303-0.463-0.43-0.783-0.43
		c-0.228,0-0.489,0.058-0.701,0.178c-0.082,0.047-0.162,0.085-0.199,0.114l-0.007,0.027l-0.165,0.234
		c-0.081,0.1-0.239,0.219-0.516,0.219c-0.562,0-0.941-0.323-0.986-0.843c-0.041-0.494,0.26-0.922,0.891-1.277
		c0.94-0.529,2.148-0.594,2.881-0.129c1.145,0.721,1.727,1.999,1.727,3.799C292.457,40.154,292.339,41.011,292.104,41.9z"/>
</g>
<g>
	<path fill="#FF33FF" d="M375.041,37.708c-0.04-0.035-0.115-0.081-0.244-0.12l-0.075,0.019c-0.208,0.05-0.407,0.151-0.608,0.31
		c-0.516,0.423-0.946,1.127-1.271,2.086c-0.049,0.141-0.073,0.306-0.073,0.495c0,0.326,0.062,0.621,0.185,0.875
		c0.169,0.321,0.332,0.321,0.402,0.321c0.248,0,0.57-0.149,0.93-0.431c0.379-0.283,0.632-0.557,0.764-0.82
		c0.287-0.578,0.433-1.085,0.433-1.508c0-0.278-0.058-0.541-0.175-0.804C375.17,37.844,375.075,37.739,375.041,37.708z"/>
	<path fill="#FF33FF" d="M367.092,37.605c-0.072,0.414-0.158,1.037-0.256,1.858c-0.008,0.235-0.013,0.502-0.013,0.765
		c0,0.454,0.016,0.874,0.045,1.256c2.272-1.729,2.634-2.625,2.634-3.02c0-0.24-0.258-0.448-0.767-0.618
		C368.222,37.672,367.652,37.583,367.092,37.605z"/>
	<path fill="#FF33FF" d="M360.536,41.166c-0.169,0.237-0.249,0.477-0.249,0.742c0,0.034,0.001,0.062,0.003,0.083
		c0.024,0.004,0.048,0.005,0.068,0.005c0.242,0,0.667-0.111,1.356-0.604c-0.199-0.524-0.351-0.687-0.402-0.73
		C360.975,40.731,360.721,40.897,360.536,41.166z"/>
	<path fill="#FF33FF" d="M407,26h-67l-4,4v16l4,4h67l4-4V30L407,26z M364.135,41.9c-0.225,0.944-0.358,1.24-0.533,1.388
		c-0.103,0.101-0.27,0.198-0.53,0.198l-0.104-0.005c-0.311-0.028-0.502-0.17-0.607-0.284c-0.005-0.005-0.01-0.011-0.015-0.016
		c-0.73,0.413-1.408,0.621-2.021,0.621c-0.555,0-1.004-0.176-1.336-0.524c-0.326-0.34-0.491-0.779-0.491-1.303
		c0-0.678,0.242-1.347,0.721-1.988c0.495-0.662,1.087-1.047,1.757-1.145c0.101-0.014,0.371-0.02,0.462-0.02
		c0.416,0,0.562,0.135,1.562,0.641c0-0.025,0-0.05,0-0.076c0-0.685-0.342-1.333-0.668-1.926c-0.164-0.303-0.456-0.43-0.776-0.43
		c-0.228,0-0.485,0.058-0.697,0.178c-0.082,0.047-0.159,0.085-0.197,0.114l-0.006,0.027l-0.164,0.234
		c-0.081,0.1-0.239,0.219-0.516,0.219c-0.562,0-0.942-0.323-0.987-0.843c-0.04-0.494,0.261-0.922,0.892-1.277
		c0.94-0.529,2.148-0.594,2.881-0.129c1.145,0.721,1.727,1.999,1.727,3.799C364.487,40.154,364.369,41.011,364.135,41.9z
		 M375.87,42.374c-0.869,0.793-1.779,1.193-2.71,1.193c-0.329,0-0.617-0.065-0.858-0.194c-0.395-0.197-0.748-0.577-1.036-1.123
		c-0.278-0.523-0.42-1.108-0.42-1.737c0-0.206,0.031-0.407,0.064-0.608c-0.318,0.499-0.773,1.045-1.378,1.65
		c-0.705,0.625-1.381,1.229-2.053,1.833l-0.208,0.272c-0.147,0.177-0.352,0.268-0.586,0.268l-0.177-0.015
		c-0.475-0.082-0.789-0.366-0.878-0.778c-0.344-0.098-0.509-0.293-0.596-0.465c-0.074-0.183-0.159-0.397-0.034-2.621
		c0.058-1.13,0.117-1.972,0.178-2.507c-0.07-0.108-0.139-0.245-0.209-0.418l-0.034-0.134c-0.029-0.268,0.053-0.634,0.564-0.935
		c0.337-1.299,0.508-2.37,0.508-3.186c-0.004-0.044-0.026-0.132-0.06-0.257c-0.062-0.241-0.092-0.42-0.092-0.566
		c0-0.514,0.338-0.875,0.861-0.918c0.36,0.012,0.691,0.198,0.926,0.596c0.195,0.375,0.288,0.787,0.288,1.246
		c0,0.435-0.061,0.929-0.18,1.469c-0.126,0.529-0.226,0.957-0.298,1.285c2.006,0.095,3.079,0.782,3.647,2.048
		C371.188,37.96,371,38.165,371,38.38c0,0.001,0,0.002,0,0.003c1-1.737,2.055-2.634,3.15-2.719c0.555-0.042,1.224,0.15,1.771,0.573
		c0.682,0.513,1.161,1.273,1.305,2.255c0.026,0.224,0.067,0.434,0.067,0.644C377.294,40.384,376.834,41.473,375.87,42.374z
		 M390.821,36.421c-0.163,0.171-0.396,0.258-0.693,0.258c-0.081,0-0.203-0.009-0.365-0.029c-0.1-0.012-0.17-0.021-0.207-0.021
		c-0.642,0-1.431,0.095-2.35,0.284c-0.215,1.866-0.324,3.455-0.324,4.727c0,0.294,0.006,0.562,0.017,0.801l0.029,0.111
		c0.037,0.161,0.055,0.296,0.055,0.415c0,0.55-0.355,0.906-0.906,0.906l-0.101-0.004c-0.369-0.021-0.684-0.234-0.876-0.603
		c-0.133-0.264-0.19-0.545-0.175-0.845c-0.001-0.582,0.062-1.775,0.186-3.521c0.05-0.392,0.111-0.893,0.184-1.512
		c-0.184,0.062-0.405,0.14-0.675,0.237c-0.183,0.09-0.42,0.237-0.659,0.417c-0.255,0.191-0.445,0.273-0.637,0.273l-0.194-0.032
		c-0.155-0.04-0.276-0.095-0.381-0.157c-0.119,0.594-0.274,1.25-0.471,1.981c-0.678,2.418-1.194,2.946-1.611,3.144
		c-0.239,0.12-0.49,0.183-0.736,0.183c-1.592,0-2.401-2.247-2.549-7.07c-0.019-0.352,0.058-0.625,0.232-0.824
		c0.164-0.185,0.383-0.286,0.619-0.286l0.157,0.014c0.593,0.115,0.933,0.542,0.915,1.146c-0.055,1.398,0.042,2.655,0.289,3.738
		c0.126,0.58,0.244,0.9,0.328,1.074c0.298-0.569,0.554-1.384,0.761-2.421c0.15-0.793,0.232-1.416,0.242-1.846
		c0.022-0.808,0.525-1.095,0.988-1.095c0.25,0.01,0.662,0.097,0.882,0.591c0.262-0.189,0.579-0.33,0.855-0.436
		c0.362-0.145,0.992-0.355,1.915-0.639c0.08-0.554,0.24-1.522,0.395-2.888c0.01-0.073,0.04-0.145,0.04-0.241v-0.457
		c0-1.071,0.625-1.154,0.83-1.154c0.457,0,0.98,0.296,0.98,1.705c0,0.271-0.028,0.588-0.063,0.953
		c-0.057,0.357-0.146,0.92-0.263,1.705c0.717-0.099,1.41-0.13,2.085-0.096c0.469,0.017,0.643,0.056,0.751,0.092
		c0.404,0.095,0.686,0.403,0.711,0.813C391.046,36.12,390.925,36.312,390.821,36.421z"/>
</g>
</svg>
