<?xml version="1.0" encoding="utf-8"?>
<!-- Generator: Adobe Illustrator 16.0.0, SVG Export Plug-In . SVG Version: 6.00 Build 0)  -->
<!DOCTYPE svg PUBLIC "-//W3C//DTD SVG 1.0//EN" "http://www.w3.org/TR/2001/REC-SVG-20010904/DTD/svg10.dtd">
<svg version="1.0" id="Layer_1" xmlns="http://www.w3.org/2000/svg" xmlns:xlink="http://www.w3.org/1999/xlink" x="0px" y="0px"
	 width="75px" height="24px" viewBox="0 0 75 24" enable-background="new 0 0 75 24" xml:space="preserve">
<g>
	<path fill="#66CC00" d="M-133.763-14.292c-0.04-0.035-0.115-0.081-0.243-0.119l-0.076,0.018c-0.208,0.05-0.407,0.151-0.608,0.31
		c-0.517,0.424-0.946,1.128-1.271,2.086c-0.049,0.141-0.074,0.306-0.074,0.495c0,0.326,0.062,0.621,0.185,0.875
		c0.168,0.321,0.332,0.321,0.402,0.321c0.249,0,0.57-0.149,0.929-0.431c0.379-0.284,0.633-0.557,0.764-0.82
		c0.288-0.577,0.433-1.084,0.433-1.508c0-0.277-0.057-0.541-0.175-0.805C-133.634-14.157-133.729-14.261-133.763-14.292z"/>
	<path fill="#66CC00" d="M-97-26h-67l-4,4v16l4,4h67l4-4v-16L-97-26z M-132.934-9.626c-0.869,0.793-1.779,1.193-2.71,1.193
		c-0.329,0-0.617-0.065-0.857-0.194c-0.395-0.197-0.749-0.577-1.038-1.122c-0.165-0.312-0.266-0.651-0.333-1.002
		c-0.008,0.202-0.015,0.401-0.027,0.619c-0.011,0.127-0.013,0.264-0.008,0.429c0.006,0.198,0.009,0.549,0.009,0.583
		c0,0.517-0.354,1.12-0.902,1.12c-0.001,0-0.001,0-0.002,0c-0.539,0-0.899-0.552-1.01-1.085c-0.044-0.208-0.047-0.619-0.008-1.038
		c0.033-0.396,0.048-0.945,0.048-1.523c0-2.17-0.25-2.566-0.278-2.601c-0.132,0.031-0.601,0.117-1.624,1.046
		c-0.756,0.672-1.252,1.249-1.479,1.733c-0.329,0.688-0.455,1.396-0.376,2.115c0.055,0.559-0.041,0.961-0.292,1.239
		c-0.14,0.154-0.397,0.337-0.827,0.337c-0.393,0-0.637-0.162-0.772-0.297c-0.196-0.197-0.298-0.458-0.298-0.758
		c0-0.225,0.081-0.505,0.262-0.91c-0.007,0,0.033-0.285,0.074-1.692c0.045-1.582,0.153-3.178,0.322-4.743l0.261-3.082
		c0.043-0.457,0.15-1.582,0.964-1.582c0.694,0.039,1.1,0.461,1.1,1.105c0,0.126-0.015,0.381-0.142,1.141
		c-0.11,0.638-0.187,1.175-0.23,1.613c-0.089,0.958-0.167,1.863-0.234,2.712c-0.004,0.046-0.008,0.091-0.011,0.137
		c1.558-1.646,2.896-2.299,4.043-1.949c0.932,0.325,1.389,1.535,1.45,3.77c0.055-0.241,0.13-0.478,0.233-0.707
		c0.938-2.137,1.988-3.224,3.206-3.318c0.534-0.045,1.108,0.149,1.655,0.573c0.683,0.513,1.105,1.273,1.247,2.256
		c0.027,0.223,0.039,0.433,0.039,0.643C-131.481-11.616-131.97-10.527-132.934-9.626z M-122.12-8.853
		c-0.351,0-0.646-0.176-0.811-0.482c-0.119-0.215-0.244-0.638-0.244-2.101c0.022-0.741,0.039-1.466,0.05-2.192
		c0.004-0.46-0.017-0.786-0.046-1.016c-0.064,0.097-0.138,0.211-0.223,0.348c-0.475,0.766-0.903,1.606-1.272,2.497
		c-0.27,0.659-0.551,1.558-0.835,2.629C-125.59-8.828-125.8-8-126.446-8h-0.058l-0.098-0.039c-0.5-0.13-0.82-0.468-0.914-0.937
		c-0.011-0.154-0.033-0.736-0.076-1.831c-0.062-1.698-0.125-2.7-0.178-3.287c-0.096,0.183-0.21,0.417-0.345,0.719
		c-0.529,1.172-0.883,2.321-1.054,3.418l0.006,0.7c0,0.33-0.039,0.795-0.375,1.027c-0.18,0.123-0.396,0.184-0.644,0.184
		l-0.101-0.003c-0.444-0.026-0.663-0.226-0.767-0.389c-0.122-0.19-0.172-0.476-0.172-0.988c0-0.404,0.088-1.535,0.271-3.458
		c0.031-0.334,0.036-0.543,0.015-0.944c-0.007-0.128-0.014-0.174-0.02-0.174H-131v-0.828c0-0.315,0.096-0.57,0.272-0.758
		c0.127-0.136,0.364-0.297,0.759-0.297c0.28,0,0.523,0.105,0.698,0.305c0.039,0.042,0.078,0.087,0.113,0.136
		c0.756-1.371,1.225-1.685,1.662-1.685c0.359,0,0.869,0.151,1.249,0.872c0.083,0.121,0.24,0.356,0.389,2.596
		c0.115-0.227,0.228-0.442,0.338-0.645c1.27-2.363,1.941-2.75,2.43-2.818l0.114-0.008c0.313,0,0.617,0.16,0.928,0.487
		c0.29,0.307,0.469,0.601,0.547,0.899c0.07,0.251,0.169,0.825,0.201,2.814c0.011,1.145,0.011,1.92,0,2.327
		c0,0,0.006,0.076,0.065,0.28c0.071,0.252,0.103,0.426,0.103,0.566C-121.133-9.34-121.392-8.853-122.12-8.853z M-112.88-11.177
		l-1.904,1.403c-1.37,0.917-2.461,1.357-3.354,1.357c-0.881,0-1.649-0.436-2.284-1.295c-0.546-0.774-0.82-1.589-0.82-2.431
		c0-1.188,0.562-2.23,1.67-3.098c1.003-0.795,2.103-1.199,3.266-1.199c0.666,0,1.244,0.157,1.718,0.467
		c0.167,0.083,0.293,0.293,0.293,0.536c0,0.375-0.287,0.756-1.023,1.359c-0.485,0.403-0.892,0.784-1.471,1.131
		c-0.701,0.427-1.21,0.697-2.21,0.802c0,0.008,0,0.017,0,0.025c0,0.397-0.012,0.78,0.24,1.17c0.42,0.66,0.739,0.66,0.866,0.66
		c0.357-0.013,0.964-0.2,2.201-1.02c1.176-0.79,1.403-1.063,1.449-1.128c0.218-0.387,0.521-0.827,0.969-0.827
		c0.173,0,0.343,0.054,0.513,0.16c0.407,0.298,0.484,0.64,0.484,0.877C-112.277-11.938-112.384-11.521-112.88-11.177z"/>
</g>
<g>
	<path fill="#66CC00" d="M-13-26h-67l-4,4v16l4,4h67l4-4v-16L-13-26z M-61.314-10.778c-0.937,0.583-1.874,1.08-2.789,1.48
		C-65.369-8.76-66.417-8.5-67.311-8.5c-0.966,0-1.698-0.314-2.176-0.934c-0.28-0.353-0.423-0.791-0.423-1.297
		c0-0.059,0.019-0.122,0.022-0.181c-0.051,0.27-0.092,0.536-0.165,0.812c-0.228,0.957-0.357,1.243-0.537,1.391
		c-0.103,0.1-0.269,0.195-0.526,0.195l-0.104-0.005c-0.311-0.028-0.501-0.17-0.607-0.284c-0.005-0.005-0.01-0.011-0.015-0.016
		c-0.73,0.413-1.409,0.621-2.021,0.621c-0.555,0-1.004-0.176-1.336-0.524c-0.326-0.341-0.491-0.78-0.491-1.303
		c0-0.679,0.243-1.348,0.721-1.988c0.494-0.662,1.085-1.046,1.756-1.145c0.101-0.014-0.036-0.02,0.055-0.02
		c0.417,0,1.157,0.135,1.157,0.641c0-0.025,0-0.05,0-0.076c0-0.685,0.064-1.333-0.262-1.926c-0.163-0.303-0.252-0.43-0.573-0.43
		c-0.228,0-0.383,0.058-0.595,0.178c-0.084,0.048-0.113,0.087-0.15,0.116l0.021,0.032l-0.153,0.231
		c-0.081,0.098-0.231,0.215-0.506,0.215c-0.563,0-0.939-0.323-0.983-0.844c-0.041-0.492,0.26-0.921,0.892-1.276
		c0.942-0.53,2.152-0.595,2.883-0.129c1.145,0.721,1.727,2,1.727,3.799c0,0.315-0.033,0.646-0.069,0.977
		c0.213-0.802,0.679-1.66,1.416-2.568c1.032-1.266,1.971-1.946,2.869-2.078c0.138-0.016,0.251-0.022,0.358-0.022
		c0.79,0,1.071,0.466,1.071,0.903c0,0.269-0.108,0.546-0.321,0.825c-0.306,0.398-0.631,0.482-0.851,0.482
		c-0.096,0-0.213-0.017-0.379-0.054c-0.128-0.029-0.173-0.03-0.175-0.03c-0.032,0.009-0.323,0.131-1.167,1.218
		c-0.858,1.097-1.038,1.754-1.038,2.112c0,0.231,0.081,0.381,0.271,0.502c0.114,0.07,0.292,0.107,0.522,0.107
		c0.799,0,2.027-0.428,3.65-1.271c0.791-0.45,1.603-0.91,2.421-1.37c0.408-0.204,0.819-0.086,1.071,0.242
		c0.162,0.211,0.221,0.462,0.167,0.706C-59.914-11.747-59.994-11.615-61.314-10.778z M-52.336-10.204
		c0.129,0.398,0.142,0.475,0.142,0.566c0,0.125-0.022,0.267-0.068,0.434c-0.104,0.387-0.435,0.62-0.886,0.62
		c-0.249,0-0.489-0.09-0.713-0.267c-0.282-0.224-0.391-0.637-0.391-1.476c0-0.018,0-0.073,0.168-3.652
		c0.046-0.816,0.077-1.262,0.089-1.344c0.001-0.008,0.004-0.014,0.005-0.022c-0.052,0.006-0.094,0.024-0.15,0.024
		c-0.081,0-0.203-0.009-0.365-0.029c-0.1-0.012-0.169-0.021-0.207-0.021c-0.642,0-1.432,0.095-2.35,0.284
		c-0.215,1.865-0.324,3.454-0.324,4.727c0,0.294,0.005,0.561,0.016,0.8l0.03,0.114c0.037,0.163,0.054,0.297,0.054,0.413
		c0,0.55-0.355,0.906-0.905,0.906l-0.101-0.004c-0.37-0.021-0.684-0.234-0.877-0.602c-0.134-0.268-0.19-0.55-0.174-0.848
		c-0.001-0.583,0.062-1.775,0.185-3.519c0.051-0.393,0.111-0.894,0.183-1.512c-0.195,0.066-0.42,0.145-0.674,0.237
		c-0.182,0.089-0.419,0.236-0.659,0.417c-0.254,0.191-0.445,0.273-0.637,0.273l-0.194-0.032c-0.772-0.196-0.86-0.736-0.86-0.959
		c0-0.699,0.788-1.08,1.381-1.305c0.361-0.144,1.006-0.359,1.916-0.639c0.08-0.55,0.374-1.518,0.528-2.888
		c0.01-0.069,0.174-0.143,0.174-0.245v-0.453c0-1.071,0.491-1.154,0.695-1.154c0.457,0,0.914,0.296,0.914,1.705
		c0,0.271-0.062,0.588-0.097,0.952c-0.056,0.357-0.162,0.921-0.278,1.706c0.716-0.099,1.404-0.13,2.075-0.096
		c0.471,0.017,0.64,0.057,0.749,0.093c0.352,0.082,0.597,0.517,0.674,0.85c0.072-0.021,0.139,0.15,0.197,0.15
		c0.002,0,0.005,0,0.007,0c0.362,0,0.627-0.054,0.826,0.193c0.136,0.171,0.287,0.374,0.242,0.817
		c-0.233,2.145-0.369,3.463-0.402,4.016C-52.42-10.526-52.377-10.329-52.336-10.204z M-52.006-20.531
		c-0.077,0.166-0.226,0.507-0.446,1.025c-0.056,0.153-0.103,0.354-0.132,0.575c-0.022,0.193-0.078,0.468-0.281,0.649
		c-0.191,0.213-0.406,0.32-0.639,0.32c-0.131,0-0.328-0.037-0.519-0.213c-0.264-0.229-0.295-0.607-0.295-0.872
		c0-0.421,0.112-0.872,0.334-1.34c0.013-0.033,0.11-0.299,0.284-0.779c0.136-0.384,0.444-0.616,0.823-0.616
		c0.364,0,0.579,0.152,0.695,0.28c0.18,0.197,0.254,0.468,0.223,0.805L-52.006-20.531z M-43.503-14.934
		c-0.201,0.174-0.718,0.787-2.007,2.687c-1.231,1.805-1.617,2.457-1.725,2.687c-0.335,0.787-0.784,1.195-1.326,1.195
		c-0.165,0-0.327-0.044-0.481-0.131c-0.25-0.135-0.448-0.398-0.579-0.776c-0.065-0.241-0.124-0.446-0.189-0.651
		c-0.244-1.028-0.534-2.16-0.879-3.43c-0.388-1.078-0.421-1.313-0.421-1.458c0-0.833,1.075-1.176,1.775-0.23
		c0.229,0.31,0.402,0.688,0.519,1.127c0.065,0.4,0.216,1.124,0.458,2.203c0.01,0.041,0.022,0.089,0.037,0.144
		c0.36-0.517,0.833-1.19,1.419-2.02c0.792-1.049,1.591-2.134,2.406-3.269c0.209-0.484,0.554-1.093,1.161-1.093
		c0.173,0,0.498,0.057,0.735,0.436c0.134,0.215,0.202,0.44,0.202,0.668C-42.4-16.189-42.771-15.546-43.503-14.934z M-40.997-10.204
		c0.129,0.398,0.142,0.475,0.142,0.566c0,0.125-0.022,0.267-0.068,0.434c-0.104,0.387-0.435,0.62-0.886,0.62
		c-0.249,0-0.489-0.09-0.713-0.267c-0.282-0.224-0.391-0.637-0.391-1.476c0-0.018,0-0.073,0.168-3.652
		c0.046-0.816,0.077-1.077,0.089-1.158C-42.509-16.019-42.014-16-41.731-16c0.002,0,0.005,0,0.007,0
		c0.362,0,0.627-0.054,0.826,0.193c0.136,0.171,0.287,0.374,0.242,0.817c-0.233,2.145-0.369,3.463-0.402,4.016
		C-41.081-10.526-41.037-10.329-40.997-10.204z M-40.667-20.531c-0.077,0.166-0.226,0.507-0.446,1.025
		c-0.056,0.153-0.103,0.354-0.132,0.575c-0.022,0.193-0.078,0.468-0.281,0.649c-0.191,0.213-0.406,0.32-0.639,0.32
		c-0.131,0-0.328-0.037-0.519-0.213c-0.264-0.229-0.295-0.607-0.295-0.872c0-0.421,0.112-0.872,0.334-1.34
		c0.013-0.033,0.11-0.299,0.284-0.779c0.136-0.384,0.444-0.616,0.823-0.616c0.364,0,0.579,0.152,0.695,0.28
		c0.18,0.197,0.254,0.468,0.223,0.805L-40.667-20.531z M-30.816-10.204c0.129,0.398,0.142,0.475,0.142,0.566
		c0,0.125-0.022,0.267-0.068,0.434c-0.104,0.387-0.435,0.62-0.886,0.62c-0.249,0-0.489-0.09-0.713-0.267
		c-0.282-0.224-0.391-0.637-0.391-1.476c0-0.018,0-0.073,0.168-3.652c0.046-0.816,0.077-1.262,0.089-1.344
		c0.001-0.008,0.004-0.014,0.005-0.022c-0.052,0.006-0.094,0.024-0.15,0.024c-0.081,0-0.203-0.009-0.365-0.029
		c-0.1-0.012-0.169-0.021-0.207-0.021c-0.642,0-1.432,0.095-2.35,0.284c-0.215,1.865-0.324,3.454-0.324,4.727
		c0,0.294,0.005,0.561,0.016,0.8l0.03,0.114c0.037,0.163,0.054,0.297,0.054,0.413c0,0.55-0.355,0.906-0.905,0.906l-0.101-0.004
		c-0.37-0.021-0.684-0.234-0.877-0.602c-0.134-0.268-0.19-0.55-0.174-0.848c-0.001-0.583,0.062-1.775,0.185-3.519
		c0.051-0.393,0.111-0.894,0.183-1.512c-0.195,0.066-0.42,0.145-0.674,0.237c-0.182,0.089-0.419,0.236-0.659,0.417
		c-0.254,0.191-0.445,0.273-0.637,0.273l-0.194-0.032c-0.772-0.196-0.86-0.736-0.86-0.959c0-0.699,0.788-1.08,1.381-1.305
		c0.361-0.144,1.006-0.359,1.916-0.639c0.08-0.55,0.113-1.518,0.268-2.888C-36.904-19.578-37-19.652-37-19.754v-0.453
		c0-1.071,0.751-1.154,0.956-1.154c0.457,0,1.044,0.296,1.044,1.705c0,0.271,0.003,0.588-0.032,0.952
		c-0.056,0.357-0.13,0.921-0.245,1.706c0.717-0.099,1.42-0.13,2.091-0.096c0.471,0.017,0.649,0.057,0.757,0.093
		c0.352,0.082,0.6,0.517,0.677,0.85C-31.68-16.171-31.609-16-31.55-16c0.002,0,0.005,0,0.007,0c0.362,0,0.627-0.054,0.826,0.193
		c0.136,0.171,0.287,0.374,0.242,0.817c-0.233,2.145-0.369,3.463-0.402,4.016C-30.9-10.526-30.856-10.329-30.816-10.204z
		 M-30.486-20.531c-0.077,0.166-0.226,0.507-0.446,1.025c-0.056,0.153-0.103,0.354-0.132,0.575
		c-0.022,0.193-0.078,0.468-0.281,0.649c-0.191,0.213-0.406,0.32-0.639,0.32c-0.131,0-0.328-0.037-0.519-0.213
		c-0.264-0.229-0.295-0.607-0.295-0.872c0-0.421,0.112-0.872,0.334-1.34c0.013-0.033,0.11-0.299,0.284-0.779
		c0.136-0.384,0.444-0.616,0.823-0.616c0.364,0,0.579,0.152,0.695,0.28c0.18,0.197,0.254,0.468,0.223,0.805L-30.486-20.531z
		 M-20.298-13.047c0.052,0.307,0.212,0.525,0.504,0.686l1.382,0.526c1.071,0.413,1.316,0.529,1.422,0.592
		c0.511,0.316,0.818,0.79,0.894,1.373c0.062,0.554-0.415,1.148-1.644,1.91C-19.075-7.129-19.38-7-19.596-7h-0.036l-0.055-0.067
		C-20.434-7.084-20.72-7.6-20.72-8.046c0-0.21,0.077-0.425,0.222-0.594l0.164-0.133l1.345-0.642c0.392-0.196,0.622-0.342,0.756-0.44
		c-0.115-0.056-0.292-0.129-0.559-0.214c-0.975-0.306-1.624-0.557-1.984-0.769c-0.352-0.199-0.624-0.438-0.844-0.701
		c-0.089,0.123-0.199,0.246-0.364,0.36l-1.904,1.403c-1.37,0.917-2.461,1.357-3.354,1.357c-0.881,0-1.649-0.436-2.284-1.295
		c-0.546-0.774-0.82-1.589-0.82-2.431c0-1.188,0.562-2.23,1.67-3.098c1.003-0.795,2.103-1.199,3.266-1.199
		c0.666,0,1.244,0.157,1.718,0.467c0.167,0.083,0.293,0.293,0.293,0.536c0,0.375-0.287,0.756-1.023,1.359
		c-0.485,0.403-0.84,0.784-1.419,1.131C-26.543-12.519-28-12.249-28-12.144c0,0.008,0,0.017,0,0.025c0,0.397-0.064,0.78,0.188,1.17
		c0.42,0.66,0.713,0.66,0.84,0.66c0.356-0.013,0.95-0.2,2.187-1.02c1.176-0.79,1.397-1.063,1.443-1.128
		c0.218-0.387,0.518-0.827,0.966-0.827c0.077,0,0.148,0.015,0.225,0.036c0.033-0.85,0.413-1.729,1.187-2.619
		c0.383-0.431,1.098-1.08,2.189-1.988c0.48-0.4,1.044-0.486,1.596-0.241c0.205,0.114,0.371,0.211,0.542,0.313
		c0.286,0.195,0.532,0.4,0.574,0.695c0.058,0.315-0.053,0.533-0.156,0.657c-0.107,0.129-0.315,0.283-0.691,0.283
		c-0.202,0-0.407-0.052-0.61-0.153c-0.032-0.016-0.06-0.03-0.083-0.041c-0.105,0.022-0.239,0.094-0.383,0.214l-1.307,1.208
		c-0.346,0.307-0.616,0.67-0.809,1.086C-20.31-13.365-20.314-13.141-20.298-13.047z"/>
	<path fill="#66CC00" d="M-73.9-10.092c0,0.034,0.001,0.062,0.003,0.083c0.215,0.032,0.664-0.055,1.424-0.6
		c-0.199-0.523-0.351-0.687-0.403-0.73c-0.337,0.07-0.592,0.236-0.777,0.505C-73.82-10.598-73.9-10.357-73.9-10.092z"/>
</g>
<path fill="#66CC00" d="M71-26H4l-4,4v16l4,4h59.079c0.038-0.283,0.136-0.467,0.255-0.582c0.063-0.342,0.219-1.46,0.585-5.074
	c0.176-1.675,0.298-3.201,0.365-4.557c-2.058,2.385-2.821,2.738-3.337,2.738C60.479-9.489,60-9.777,60-11.066
	c0-0.014,0-0.031,0-0.052c0,0.1-0.368,0.209-0.575,0.34c-0.938,0.583-1.899,1.08-2.813,1.48C55.362-8.768,54.273-8.5,53.391-8.5
	c-0.967,0-1.705-0.314-2.183-0.934c-0.262-0.33-0.396-0.741-0.412-1.207c0.007,0.711,0.019,0.988,0.027,1.089
	c0.209,0.441,0.302,0.743,0.302,0.972c0,0.559-0.349,0.92-0.888,0.92c-0.306,0-0.59-0.117-0.846-0.346
	c-0.268-0.239-0.41-0.554-0.41-0.91c0-0.067,0.01-0.011,0.035-0.137C49.024-9.095,49.031-9,49.032-9h0.007
	c-0.027-1-0.052-0.646-0.089-1.117c-0.068-0.669-0.098-1.466-0.086-2.208c0.018-0.688,0.017-1.225,0.008-1.584
	c-0.058,0.103-0.122,0.2-0.192,0.333c-0.502,0.944-0.957,1.941-1.352,2.983c-0.151,0.401-0.299,0.861-0.438,1.376
	c-0.115,0.431-0.239,0.659-0.426,0.793c-0.274,0.136-0.447,0.177-0.611,0.177c-0.228,0-0.97-0.091-0.97-1.256
	c0-0.125,0.017-0.532,0.051-1.218c0.015-0.243,0.017-0.47,0.027-0.708c-0.077,0.086-0.168,0.172-0.285,0.253l-1.903,1.403
	c-1.369,0.917-2.46,1.357-3.354,1.357c-0.881,0-1.649-0.436-2.284-1.294c-0.546-0.775-0.819-1.589-0.819-2.431
	c0-0.992,0.414-1.875,1.188-2.646l-0.12,0.015c-0.136,0-0.286-0.028-0.458-0.086c-0.166-0.055-0.227-0.058-0.229-0.058
	c-0.051,0-0.108,0.02-0.175,0.061c-0.994,0.561-2.129,1.812-3.389,3.729c-0.201,0.302-0.329,0.729-0.382,1.27
	c-0.098,0.99-0.153,1.146-0.267,1.289c-0.197,0.241-0.467,0.372-0.761,0.372c-0.32,0-0.604-0.126-0.822-0.365
	c-0.173-0.171-0.266-0.441-0.266-0.807c0-0.114,0.012-0.341,0.105-1.087c0.087-0.604,0.142-1.136,0.165-1.592
	c0.021-0.406,0.032-0.778,0.032-1.118c0-0.502-0.022-0.94-0.066-1.312l-0.516-0.327c-0.092-0.014-0.178-0.018-0.285-0.054
	c-0.167-0.056-0.227-0.058-0.229-0.058c-0.05,0-0.109,0.02-0.173,0.06c-0.994,0.561-2.129,1.812-3.389,3.729
	c-0.201,0.302-0.329,0.728-0.382,1.27c-0.103,1.037-0.165,1.159-0.265,1.286c-0.203,0.248-0.464,0.375-0.762,0.375
	c-0.321,0-0.605-0.126-0.823-0.365c-0.173-0.171-0.265-0.441-0.265-0.807c0-0.106,0.011-0.334,0.104-1.086
	c0.088-0.609,0.143-1.141,0.165-1.592c0.022-0.407,0.033-0.78,0.033-1.119c0-0.536-0.025-1-0.075-1.387l-0.807,1.304
	c-0.097,0.424-0.206,0.871-0.336,1.355c-0.678,2.419-1.196,2.947-1.613,3.144c-0.238,0.12-0.488,0.183-0.734,0.183
	c-0.963,0-1.638-0.828-2.055-2.545c-0.148,0.098-0.313,0.205-0.517,0.334c-0.937,0.583-1.874,1.08-2.789,1.48
	C13.892-8.76,12.845-8.5,11.951-8.5c-0.966,0-1.698-0.314-2.176-0.934c-0.28-0.353-0.423-0.791-0.423-1.297
	c0-1.054,0.524-2.234,1.557-3.507c1.032-1.266,1.971-1.946,2.869-2.078c0.138-0.016,0.251-0.022,0.358-0.022
	c0.79,0,1.071,0.466,1.071,0.903c0,0.269-0.108,0.546-0.321,0.825c-0.306,0.398-0.631,0.482-0.851,0.482
	c-0.096,0-0.213-0.017-0.379-0.054c-0.128-0.029-0.173-0.03-0.175-0.03c-0.032,0.009-0.323,0.131-1.167,1.218
	c-0.858,1.097-1.038,1.754-1.038,2.112c0,0.231,0.081,0.381,0.271,0.502c0.114,0.07,0.292,0.107,0.522,0.107
	c0.799,0,2.027-0.428,3.65-1.271c0.791-0.45,1.603-0.91,2.421-1.37c0.005-0.002,0.011-0.002,0.016-0.005
	c-0.092-0.795-0.156-1.695-0.187-2.719c-0.018-0.352,0.059-0.625,0.233-0.824c0.164-0.185,0.383-0.286,0.618-0.286l0.158,0.015
	c0.593,0.114,0.933,0.542,0.914,1.146c-0.054,1.397,0.044,2.654,0.291,3.737c0.125,0.579,0.243,0.899,0.328,1.073
	c0.297-0.57,0.554-1.384,0.761-2.421c0.15-0.793,0.232-1.416,0.242-1.846c0.021-0.807,0.523-1.094,0.988-1.094
	c0.322,0.013,0.917,0.144,1.018,1.123l0.006,0.061l-0.001,0.009l0.309-1.237c0.026-0.042,0.054-0.083,0.083-0.12l1.013-0.381
	c0.174,0.041,0.34,0.132,0.497,0.274c0.325,0.307,0.472,0.904,0.5,2.004c0.004,0.172,0.008,0.382,0.011,0.63
	c0.516-0.605,0.986-1.106,1.401-1.49c0.749-0.703,0.956-0.874,1.053-0.944c0.824-0.57,1.642-0.687,2.536-0.389l0.001,0l0.848-0.088
	c0.177,0.04,0.346,0.132,0.504,0.276c0.325,0.306,0.473,0.903,0.5,2.004c0.004,0.172,0.008,0.383,0.011,0.631
	c0.514-0.603,0.984-1.104,1.4-1.49c0.752-0.705,0.959-0.875,1.056-0.945c0.823-0.57,1.646-0.685,2.534-0.388
	c0.181,0.065,0.577,0.275,0.577,0.911c0,0.078-0.02,0.148-0.037,0.22c0.911-0.633,1.894-0.972,2.93-0.972
	c0.666,0,1.244,0.157,1.719,0.467c0.168,0.085,0.294,0.295,0.294,0.536c0,0.375-0.287,0.756-1.024,1.359
	c-0.481,0.401-1.167,0.782-1.749,1.131C39.787-12.518,39-12.249,38-12.144c0,0.008,0,0.017,0,0.025c0,0.397,0.266,0.78,0.518,1.169
	c0.422,0.661,0.879,0.661,1.006,0.661c0.357-0.013,1.034-0.2,2.271-1.02c1.176-0.79,1.438-1.063,1.484-1.128
	c0.218-0.387,0.538-0.827,0.986-0.827c0.173,0,0.351,0.054,0.521,0.16c0.094,0.069,0.17,0.14,0.231,0.211
	c0.025-1.109,0.099-2.129,0.223-3.031c0.104-0.607,0.514-0.818,0.864-0.818c0.383,0,0.708,0.162,0.938,0.467
	c0.111,0.143,0.168,0.336,0.168,0.587c0,0.097-0.025,0.376-0.08,0.84c-0.007,0.06-0.013,0.119-0.02,0.178
	c1.095-1.866,1.737-2.166,2.229-2.166l0.195,0.021c0.934,0.188,1.096,1.415,1.149,1.818c0.081,0.583,0.115,1.641,0.104,3.227
	c0,0.373,0.001,0.679,0.003,0.939c0.031-1.03,0.543-2.174,1.544-3.408c1.034-1.267,1.973-1.946,2.869-2.078
	c0.138-0.016,0.252-0.022,0.359-0.022c0.79,0,1.071,0.466,1.071,0.903c0,0.268-0.108,0.545-0.321,0.825
	c-0.305,0.398-0.631,0.482-0.852,0.482c-0.096,0-0.213-0.017-0.379-0.054c-0.128-0.029-0.173-0.03-0.175-0.03
	c-0.032,0.009-0.325,0.131-1.167,1.218c-0.858,1.097-1.038,1.754-1.038,2.112c0,0.231,0.081,0.381,0.271,0.502
	c0.114,0.069,0.292,0.107,0.522,0.107c0.799,0,2.027-0.428,3.65-1.271c0.789-0.45,1.603-0.91,2.421-1.37
	c0.183-0.092,0.363-0.11,0.532-0.083c0.063-0.49,0.147-1.105,0.259-1.887c0.093-0.679,0.145-1.049,0.157-1.107
	c0.145-0.601,0.467-0.802,0.713-0.868l0.197-0.029c0.188,0,0.382,0.071,0.594,0.217c0.361,0.25,0.457,0.54,0.475,0.738
	c0.002,0.121,0.002,0.208-0.344,1.955c-0.147,0.764-0.23,1.282-0.276,1.632c0.119-0.117,0.267-0.267,0.445-0.458
	c0.254-0.276,0.894-1.011,1.919-2.202l-0.001,0c-0.007,0,0.074-0.149,0.208-0.398c0.259-0.469,0.583-0.566,0.81-0.566
	c0.109,0,0.225,0.02,0.342,0.059c0.663,0.249,0.746,1.138,0.746,1.886c0,0.214-0.013,0.415-0.038,0.604
	c-0.155,1.574-0.418,4.101-0.788,7.564c-0.079,0.712-0.18,1.506-0.304,2.385c-0.09,0.625-0.117,0.878-0.126,0.98
	c0.099,0.153,0.158,0.319,0.197,0.49H71l4-4v-16L71-26z"/>
<g>
	<path fill="#66CC00" d="M128.576-13.071c0.05-0.231-0.131-0.57-0.508-0.955c-0.272-0.279-0.539-0.474-0.797-0.585
		c-0.083,0.437-0.188,1.025-0.318,1.766c-0.073,0.449-0.166,1.128-0.279,2.061c0.147-0.1,0.287-0.201,0.417-0.304
		C127.935-11.752,128.435-12.419,128.576-13.071z"/>
	<path fill="#66CC00" d="M120.506-10.834c-0.169,0.237-0.249,0.477-0.249,0.742c0,0.034,0.001,0.062,0.003,0.083
		c0.024,0.004,0.048,0.005,0.068,0.005c0.242,0,0.667-0.111,1.356-0.604c-0.199-0.524-0.351-0.687-0.402-0.73
		C120.944-11.269,120.69-11.103,120.506-10.834z"/>
	<path fill="#66CC00" d="M155-26H88l-4,4v16l4,4h36.501c-0.032-0.118-0.053-0.244-0.053-0.381c0-0.164,0.033-0.319,0.1-0.461
		c-0.002-0.095-0.013-0.286-0.028-0.596L124.5-3.81c-0.034-0.643-0.052-1.271-0.052-1.885c0-0.489,0.012-0.985,0.035-1.486
		c0.067-1.543,0.164-2.912,0.287-4.066c0.034-0.249,0.182-1.369,0.444-3.375c-0.284-0.219-0.421-0.539-0.376-0.905
		c0.09-0.414,0.368-0.702,0.836-0.903c0.322-0.14,0.602-0.209,0.853-0.209c0.804,0.013,1.606,0.311,2.396,0.886
		c0.728,0.549,1.199,1.204,1.424,1.95c0.155-0.669,0.513-1.352,1.111-2.042c0.385-0.432,1.1-1.08,2.192-1.988
		c0.48-0.4,1.044-0.486,1.597-0.241c0.205,0.114,0.371,0.211,0.542,0.313c0.285,0.195,0.53,0.4,0.573,0.692
		c0.058,0.32-0.053,0.538-0.156,0.661c-0.108,0.128-0.315,0.282-0.691,0.282c-0.202,0-0.407-0.052-0.61-0.154
		c-0.031-0.016-0.059-0.029-0.082-0.04c-0.105,0.023-0.238,0.094-0.382,0.213l-1.309,1.209c-0.345,0.306-0.615,0.67-0.81,1.087
		c-0.206,0.448-0.211,0.671-0.195,0.765c0.053,0.307,0.214,0.525,0.505,0.686l1.383,0.526c1.072,0.414,1.317,0.529,1.423,0.593
		c0.511,0.315,0.818,0.79,0.893,1.372c0.062,0.553-0.414,1.147-1.644,1.91C133.353-7.13,133.038-7,132.83-7h-0.036l-0.055-0.067
		c-0.747-0.018-1.034-0.533-1.034-0.979c0-0.209,0.077-0.424,0.223-0.594l0.164-0.133l1.345-0.642
		c0.392-0.196,0.622-0.342,0.756-0.44c-0.115-0.056-0.292-0.129-0.559-0.214c-0.975-0.305-1.624-0.557-1.983-0.769
		c-0.681-0.384-1.104-0.897-1.287-1.516c-0.133,0.378-0.363,0.787-0.722,1.242c-0.416,0.555-0.959,1.128-1.608,1.696
		c-0.857,0.752-1.072,0.84-1.249,0.872c-0.066,0.019-0.217,0.029-0.339,0.008c-0.039,0.585-0.086,1.495-0.14,2.904
		c-0.043,2.456,0.014,2.907,0.032,2.986c0.062,0.132,0.102,0.308,0.102,0.479c0,0.059-0.023,0.108-0.032,0.164H155l4-4v-16L155-26z
		 M117.321-8.853c-0.351,0-0.646-0.176-0.81-0.482c-0.119-0.215-0.245-0.638-0.245-2.101c0.022-0.741,0.039-1.466,0.051-2.192
		c0.004-0.461-0.017-0.787-0.047-1.016c-0.063,0.097-0.138,0.211-0.223,0.348c-0.478,0.771-0.905,1.612-1.271,2.497
		c-0.271,0.661-0.553,1.559-0.836,2.629C113.852-8.828,113.642-8,112.995-8h-0.058l-0.098-0.039
		c-0.501-0.13-0.821-0.468-0.914-0.937c-0.011-0.153-0.033-0.735-0.077-1.83c-0.061-1.7-0.125-2.701-0.179-3.285
		c-0.095,0.182-0.209,0.416-0.343,0.717c-0.529,1.172-0.884,2.321-1.055,3.418l0.006,0.7c0,0.33-0.039,0.796-0.377,1.028
		c-0.178,0.122-0.394,0.183-0.642,0.183l-0.101-0.003c-0.447-0.026-0.665-0.228-0.77-0.393c-0.121-0.186-0.17-0.463-0.17-0.984
		c0-0.398,0.089-1.529,0.271-3.457c0.031-0.33,0.037-0.539,0.016-0.944c-0.008-0.128-0.015-0.174-0.021-0.174H108v-0.828
		c0-0.315,0.316-0.57,0.492-0.758c0.127-0.136,0.475-0.297,0.869-0.297c0.281,0,0.58,0.106,0.754,0.306
		c0.04,0.042,0.105,0.086,0.141,0.135c0.756-1.371,1.237-1.685,1.675-1.685c0.359,0,0.876,0.151,1.257,0.872
		c0.083,0.122,0.242,0.356,0.392,2.597c0.115-0.228,0.229-0.443,0.341-0.646c1.269-2.362,1.94-2.75,2.43-2.818l0.114-0.008
		c0.314,0,0.617,0.16,0.929,0.488c0.291,0.308,0.47,0.602,0.547,0.9c0.07,0.25,0.17,0.823,0.201,2.812
		c0.011,1.145,0.011,1.919,0,2.327c0.001,0,0.006,0.077,0.064,0.279c0.071,0.253,0.104,0.427,0.104,0.567
		C118.309-9.34,118.05-8.853,117.321-8.853z M124.104-10.1c-0.225,0.944-0.358,1.24-0.533,1.388c-0.103,0.1-0.27,0.198-0.53,0.198
		l-0.104-0.005c-0.311-0.028-0.501-0.17-0.607-0.284c-0.005-0.005-0.01-0.011-0.015-0.016c-0.73,0.413-1.408,0.621-2.021,0.621
		c-0.555,0-1.004-0.176-1.336-0.524c-0.326-0.34-0.491-0.779-0.491-1.303c0-0.679,0.242-1.347,0.721-1.988
		c0.495-0.662,1.087-1.047,1.757-1.145c0.101-0.014,0.387-0.02,0.477-0.02c0.416,0,0.578,0.135,1.578,0.641c0-0.025,0-0.05,0-0.076
		c0-0.685-0.357-1.333-0.684-1.926c-0.163-0.303-0.463-0.43-0.783-0.43c-0.228,0-0.489,0.058-0.701,0.178
		c-0.082,0.047-0.162,0.085-0.199,0.114l-0.007,0.027l-0.165,0.234c-0.081,0.1-0.239,0.219-0.516,0.219
		c-0.562,0-0.941-0.323-0.986-0.843c-0.041-0.494,0.26-0.922,0.891-1.277c0.94-0.529,2.148-0.594,2.881-0.129
		c1.145,0.721,1.727,1.999,1.727,3.799C124.457-11.846,124.339-10.989,124.104-10.1z"/>
</g>
<g>
	<path fill="#66CC00" d="M207.041-14.292c-0.04-0.035-0.115-0.081-0.244-0.12l-0.075,0.019c-0.208,0.05-0.407,0.151-0.608,0.31
		c-0.516,0.423-0.946,1.127-1.271,2.086c-0.049,0.141-0.073,0.306-0.073,0.495c0,0.326,0.062,0.621,0.185,0.875
		c0.169,0.321,0.332,0.321,0.402,0.321c0.248,0,0.57-0.149,0.93-0.431c0.379-0.283,0.632-0.557,0.764-0.82
		c0.287-0.578,0.433-1.085,0.433-1.508c0-0.278-0.058-0.541-0.175-0.804C207.17-14.156,207.075-14.261,207.041-14.292z"/>
	<path fill="#66CC00" d="M199.092-14.395c-0.072,0.414-0.158,1.037-0.256,1.858c-0.008,0.235-0.013,0.502-0.013,0.765
		c0,0.454,0.016,0.874,0.045,1.256c2.272-1.729,2.634-2.625,2.634-3.02c0-0.24-0.258-0.448-0.767-0.618
		C200.222-14.328,199.652-14.417,199.092-14.395z"/>
	<path fill="#66CC00" d="M192.536-10.834c-0.169,0.237-0.249,0.477-0.249,0.742c0,0.034,0.001,0.062,0.003,0.083
		c0.024,0.004,0.048,0.005,0.068,0.005c0.242,0,0.667-0.111,1.356-0.604c-0.199-0.524-0.351-0.687-0.402-0.73
		C192.975-11.269,192.721-11.103,192.536-10.834z"/>
	<path fill="#66CC00" d="M239-26h-67l-4,4v16l4,4h67l4-4v-16L239-26z M196.135-10.1c-0.225,0.944-0.358,1.24-0.533,1.388
		c-0.103,0.101-0.27,0.198-0.53,0.198l-0.104-0.005c-0.311-0.028-0.502-0.17-0.607-0.284c-0.005-0.005-0.01-0.011-0.015-0.016
		c-0.73,0.413-1.408,0.621-2.021,0.621c-0.555,0-1.004-0.176-1.336-0.524c-0.326-0.34-0.491-0.779-0.491-1.303
		c0-0.678,0.242-1.347,0.721-1.988c0.495-0.662,1.087-1.047,1.757-1.145c0.101-0.014,0.371-0.02,0.462-0.02
		c0.416,0,0.562,0.135,1.562,0.641c0-0.025,0-0.05,0-0.076c0-0.685-0.342-1.333-0.668-1.926c-0.164-0.303-0.456-0.43-0.776-0.43
		c-0.228,0-0.485,0.058-0.697,0.178c-0.082,0.047-0.159,0.085-0.197,0.114l-0.006,0.027l-0.164,0.234
		c-0.081,0.1-0.239,0.219-0.516,0.219c-0.562,0-0.942-0.323-0.987-0.843c-0.04-0.494,0.261-0.922,0.892-1.277
		c0.94-0.529,2.148-0.594,2.881-0.129c1.145,0.721,1.727,1.999,1.727,3.799C196.487-11.846,196.369-10.989,196.135-10.1z
		 M207.87-9.626c-0.869,0.793-1.779,1.193-2.71,1.193c-0.329,0-0.617-0.065-0.858-0.194c-0.395-0.197-0.748-0.577-1.036-1.123
		c-0.278-0.523-0.42-1.108-0.42-1.737c0-0.206,0.031-0.407,0.064-0.608c-0.318,0.499-0.773,1.045-1.378,1.65
		c-0.705,0.625-1.381,1.229-2.053,1.833l-0.208,0.272c-0.147,0.177-0.352,0.268-0.586,0.268l-0.177-0.015
		c-0.475-0.082-0.789-0.366-0.878-0.778c-0.344-0.098-0.509-0.293-0.596-0.465c-0.074-0.183-0.159-0.397-0.034-2.621
		c0.058-1.13,0.117-1.972,0.178-2.507c-0.07-0.108-0.139-0.245-0.209-0.418l-0.034-0.134c-0.029-0.268,0.053-0.634,0.564-0.935
		c0.337-1.299,0.508-2.37,0.508-3.186c-0.004-0.044-0.026-0.132-0.06-0.257c-0.062-0.241-0.092-0.42-0.092-0.566
		c0-0.514,0.338-0.875,0.861-0.918c0.36,0.012,0.691,0.198,0.926,0.596c0.195,0.375,0.288,0.787,0.288,1.246
		c0,0.435-0.061,0.929-0.18,1.469c-0.126,0.529-0.226,0.957-0.298,1.285c2.006,0.095,3.079,0.782,3.647,2.048
		C203.188-14.04,203-13.835,203-13.62c0,0.001,0,0.002,0,0.003c1-1.737,2.055-2.634,3.15-2.719c0.555-0.042,1.224,0.15,1.771,0.573
		c0.682,0.513,1.161,1.273,1.305,2.255c0.026,0.224,0.067,0.434,0.067,0.644C209.294-11.616,208.834-10.527,207.87-9.626z
		 M222.821-15.579c-0.163,0.171-0.396,0.258-0.693,0.258c-0.081,0-0.203-0.009-0.365-0.029c-0.1-0.012-0.17-0.021-0.207-0.021
		c-0.642,0-1.431,0.095-2.35,0.284c-0.215,1.866-0.324,3.455-0.324,4.727c0,0.294,0.006,0.562,0.017,0.801l0.029,0.111
		c0.037,0.161,0.055,0.296,0.055,0.415c0,0.55-0.355,0.906-0.906,0.906l-0.101-0.004c-0.369-0.021-0.684-0.234-0.876-0.603
		c-0.133-0.264-0.19-0.545-0.175-0.845c-0.001-0.582,0.062-1.775,0.186-3.521c0.05-0.392,0.111-0.893,0.184-1.512
		c-0.184,0.062-0.405,0.14-0.675,0.237c-0.183,0.09-0.42,0.237-0.659,0.417c-0.255,0.191-0.445,0.273-0.637,0.273l-0.194-0.032
		c-0.155-0.04-0.276-0.095-0.381-0.157c-0.119,0.594-0.274,1.25-0.471,1.981c-0.678,2.418-1.194,2.946-1.611,3.144
		c-0.239,0.12-0.49,0.183-0.736,0.183c-1.592,0-2.401-2.247-2.549-7.07c-0.019-0.352,0.058-0.625,0.232-0.824
		c0.164-0.185,0.383-0.286,0.619-0.286l0.157,0.014c0.593,0.115,0.933,0.542,0.915,1.146c-0.055,1.398,0.042,2.655,0.289,3.738
		c0.126,0.58,0.244,0.9,0.328,1.074c0.298-0.569,0.554-1.384,0.761-2.421c0.15-0.793,0.232-1.416,0.242-1.846
		c0.022-0.808,0.525-1.095,0.988-1.095c0.25,0.01,0.662,0.097,0.882,0.591c0.262-0.189,0.579-0.33,0.855-0.436
		c0.362-0.145,0.992-0.355,1.915-0.639c0.08-0.554,0.24-1.522,0.395-2.888c0.01-0.073,0.04-0.145,0.04-0.241v-0.457
		c0-1.071,0.625-1.154,0.83-1.154c0.457,0,0.98,0.296,0.98,1.705c0,0.271-0.028,0.588-0.063,0.953
		c-0.057,0.357-0.146,0.92-0.263,1.705c0.717-0.099,1.41-0.13,2.085-0.096c0.469,0.017,0.643,0.056,0.751,0.092
		c0.404,0.095,0.686,0.403,0.711,0.813C223.046-15.88,222.925-15.688,222.821-15.579z"/>
</g>
<g>
	<path fill="#3FA9F5" d="M-133.763,11.708c-0.04-0.035-0.115-0.081-0.243-0.119l-0.076,0.018c-0.208,0.05-0.407,0.151-0.608,0.31
		c-0.517,0.424-0.946,1.128-1.271,2.086c-0.049,0.141-0.074,0.306-0.074,0.495c0,0.326,0.062,0.621,0.185,0.875
		c0.168,0.321,0.332,0.321,0.402,0.321c0.249,0,0.57-0.149,0.929-0.431c0.379-0.284,0.633-0.557,0.764-0.82
		c0.288-0.577,0.433-1.084,0.433-1.508c0-0.277-0.057-0.541-0.175-0.805C-133.634,11.843-133.729,11.739-133.763,11.708z"/>
	<path fill="#3FA9F5" d="M-97,0h-67l-4,4v16l4,4h67l4-4V4L-97,0z M-132.934,16.374c-0.869,0.793-1.779,1.193-2.71,1.193
		c-0.329,0-0.617-0.065-0.857-0.194c-0.395-0.197-0.749-0.577-1.038-1.122c-0.165-0.312-0.266-0.651-0.333-1.002
		c-0.008,0.202-0.015,0.401-0.027,0.619c-0.011,0.127-0.013,0.264-0.008,0.429c0.006,0.198,0.009,0.549,0.009,0.583
		c0,0.517-0.354,1.12-0.902,1.12c-0.001,0-0.001,0-0.002,0c-0.539,0-0.899-0.552-1.01-1.085c-0.044-0.208-0.047-0.619-0.008-1.038
		c0.033-0.396,0.048-0.945,0.048-1.523c0-2.17-0.25-2.566-0.278-2.601c-0.132,0.031-0.601,0.117-1.624,1.046
		c-0.756,0.672-1.252,1.249-1.479,1.733c-0.329,0.688-0.455,1.396-0.376,2.115c0.055,0.559-0.041,0.961-0.292,1.239
		c-0.14,0.154-0.397,0.337-0.827,0.337c-0.393,0-0.637-0.162-0.772-0.297c-0.196-0.197-0.298-0.458-0.298-0.758
		c0-0.225,0.081-0.505,0.262-0.91c-0.007,0,0.033-0.285,0.074-1.692c0.045-1.582,0.153-3.178,0.322-4.743l0.261-3.082
		c0.043-0.457,0.15-1.582,0.964-1.582c0.694,0.039,1.1,0.461,1.1,1.105c0,0.126-0.015,0.381-0.142,1.141
		c-0.11,0.638-0.187,1.175-0.23,1.613c-0.089,0.958-0.167,1.863-0.234,2.712c-0.004,0.046-0.008,0.091-0.011,0.137
		c1.558-1.646,2.896-2.299,4.043-1.949c0.932,0.325,1.389,1.535,1.45,3.77c0.055-0.241,0.13-0.478,0.233-0.707
		c0.938-2.137,1.988-3.224,3.206-3.318c0.534-0.045,1.108,0.149,1.655,0.573c0.683,0.513,1.105,1.273,1.247,2.256
		c0.027,0.223,0.039,0.433,0.039,0.643C-131.481,14.384-131.97,15.473-132.934,16.374z M-122.12,17.147
		c-0.351,0-0.646-0.176-0.811-0.482c-0.119-0.215-0.244-0.638-0.244-2.101c0.022-0.741,0.039-1.466,0.05-2.192
		c0.004-0.46-0.017-0.786-0.046-1.016c-0.064,0.097-0.138,0.211-0.223,0.348c-0.475,0.766-0.903,1.606-1.272,2.497
		c-0.27,0.659-0.551,1.558-0.835,2.629c-0.089,0.342-0.3,1.17-0.946,1.17h-0.058l-0.098-0.039c-0.5-0.13-0.82-0.468-0.914-0.937
		c-0.011-0.154-0.033-0.736-0.076-1.831c-0.062-1.698-0.125-2.7-0.178-3.287c-0.096,0.183-0.21,0.417-0.345,0.719
		c-0.529,1.172-0.883,2.321-1.054,3.418l0.006,0.7c0,0.33-0.039,0.795-0.375,1.027c-0.18,0.123-0.396,0.184-0.644,0.184
		l-0.101-0.003c-0.444-0.026-0.663-0.226-0.767-0.389c-0.122-0.19-0.172-0.476-0.172-0.988c0-0.404,0.088-1.535,0.271-3.458
		c0.031-0.334,0.036-0.543,0.015-0.944c-0.007-0.128-0.014-0.174-0.02-0.174H-131v-0.828c0-0.315,0.096-0.57,0.272-0.758
		c0.127-0.136,0.364-0.297,0.759-0.297c0.28,0,0.523,0.105,0.698,0.305c0.039,0.042,0.078,0.087,0.113,0.136
		c0.756-1.371,1.225-1.685,1.662-1.685c0.359,0,0.869,0.151,1.249,0.872c0.083,0.121,0.24,0.356,0.389,2.596
		c0.115-0.227,0.228-0.442,0.338-0.645c1.27-2.363,1.941-2.75,2.43-2.818l0.114-0.008c0.313,0,0.617,0.16,0.928,0.487
		c0.29,0.307,0.469,0.601,0.547,0.899c0.07,0.251,0.169,0.825,0.201,2.814c0.011,1.145,0.011,1.92,0,2.327
		c0,0,0.006,0.076,0.065,0.28c0.071,0.252,0.103,0.426,0.103,0.566C-121.133,16.66-121.392,17.147-122.12,17.147z M-112.88,14.823
		l-1.904,1.403c-1.37,0.917-2.461,1.357-3.354,1.357c-0.881,0-1.649-0.436-2.284-1.295c-0.546-0.774-0.82-1.589-0.82-2.431
		c0-1.188,0.562-2.23,1.67-3.098c1.003-0.795,2.103-1.199,3.266-1.199c0.666,0,1.244,0.157,1.718,0.467
		c0.167,0.083,0.293,0.293,0.293,0.536c0,0.375-0.287,0.756-1.023,1.359c-0.485,0.403-0.892,0.784-1.471,1.131
		c-0.701,0.427-1.21,0.697-2.21,0.802c0,0.008,0,0.017,0,0.025c0,0.397-0.012,0.78,0.24,1.17c0.42,0.66,0.739,0.66,0.866,0.66
		c0.357-0.013,0.964-0.2,2.201-1.02c1.176-0.79,1.403-1.063,1.449-1.128c0.218-0.387,0.521-0.827,0.969-0.827
		c0.173,0,0.343,0.054,0.513,0.16c0.407,0.298,0.484,0.64,0.484,0.877C-112.277,14.062-112.384,14.479-112.88,14.823z"/>
</g>
<g>
	<path fill="#3FA9F5" d="M-13,0h-67l-4,4v16l4,4h67l4-4V4L-13,0z M-61.314,15.222c-0.937,0.583-1.874,1.08-2.789,1.48
		c-1.267,0.538-2.314,0.798-3.208,0.798c-0.966,0-1.698-0.314-2.176-0.934c-0.28-0.353-0.423-0.791-0.423-1.297
		c0-0.059,0.019-0.122,0.022-0.181c-0.051,0.27-0.092,0.536-0.165,0.812c-0.228,0.957-0.357,1.243-0.537,1.391
		c-0.103,0.1-0.269,0.195-0.526,0.195l-0.104-0.005c-0.311-0.028-0.501-0.17-0.607-0.284c-0.005-0.005-0.01-0.011-0.015-0.016
		c-0.73,0.413-1.409,0.621-2.021,0.621c-0.555,0-1.004-0.176-1.336-0.524c-0.326-0.341-0.491-0.78-0.491-1.303
		c0-0.679,0.243-1.348,0.721-1.988c0.494-0.662,1.085-1.046,1.756-1.145c0.101-0.014-0.036-0.02,0.055-0.02
		c0.417,0,1.157,0.135,1.157,0.641c0-0.025,0-0.05,0-0.076c0-0.685,0.064-1.333-0.262-1.926c-0.163-0.303-0.252-0.43-0.573-0.43
		c-0.228,0-0.383,0.058-0.595,0.178c-0.084,0.048-0.113,0.087-0.15,0.116l0.021,0.032l-0.153,0.231
		c-0.081,0.098-0.231,0.215-0.506,0.215c-0.563,0-0.939-0.323-0.983-0.844c-0.041-0.492,0.26-0.921,0.892-1.276
		c0.942-0.53,2.152-0.595,2.883-0.129c1.145,0.721,1.727,2,1.727,3.799c0,0.315-0.033,0.646-0.069,0.977
		c0.213-0.802,0.679-1.66,1.416-2.568c1.032-1.266,1.971-1.946,2.869-2.078c0.138-0.016,0.251-0.022,0.358-0.022
		c0.79,0,1.071,0.466,1.071,0.903c0,0.269-0.108,0.546-0.321,0.825c-0.306,0.398-0.631,0.482-0.851,0.482
		c-0.096,0-0.213-0.017-0.379-0.054c-0.128-0.029-0.173-0.03-0.175-0.03c-0.032,0.009-0.323,0.131-1.167,1.218
		c-0.858,1.097-1.038,1.754-1.038,2.112c0,0.231,0.081,0.381,0.271,0.502c0.114,0.07,0.292,0.107,0.522,0.107
		c0.799,0,2.027-0.428,3.65-1.271c0.791-0.45,1.603-0.91,2.421-1.37c0.408-0.204,0.819-0.086,1.071,0.242
		c0.162,0.211,0.221,0.462,0.167,0.706C-59.914,14.253-59.994,14.385-61.314,15.222z M-52.336,15.796
		c0.129,0.398,0.142,0.475,0.142,0.566c0,0.125-0.022,0.267-0.068,0.434c-0.104,0.387-0.435,0.62-0.886,0.62
		c-0.249,0-0.489-0.09-0.713-0.267c-0.282-0.224-0.391-0.637-0.391-1.476c0-0.018,0-0.073,0.168-3.652
		c0.046-0.816,0.077-1.262,0.089-1.344c0.001-0.008,0.004-0.014,0.005-0.022c-0.052,0.006-0.094,0.024-0.15,0.024
		c-0.081,0-0.203-0.009-0.365-0.029c-0.1-0.012-0.169-0.021-0.207-0.021c-0.642,0-1.432,0.095-2.35,0.284
		c-0.215,1.865-0.324,3.454-0.324,4.727c0,0.294,0.005,0.561,0.016,0.8l0.03,0.114c0.037,0.163,0.054,0.297,0.054,0.413
		c0,0.55-0.355,0.906-0.905,0.906l-0.101-0.004c-0.37-0.021-0.684-0.234-0.877-0.602c-0.134-0.268-0.19-0.55-0.174-0.848
		c-0.001-0.583,0.062-1.775,0.185-3.519c0.051-0.393,0.111-0.894,0.183-1.512c-0.195,0.066-0.42,0.145-0.674,0.237
		c-0.182,0.089-0.419,0.236-0.659,0.417c-0.254,0.191-0.445,0.273-0.637,0.273l-0.194-0.032c-0.772-0.196-0.86-0.736-0.86-0.959
		c0-0.699,0.788-1.08,1.381-1.305c0.361-0.144,1.006-0.359,1.916-0.639c0.08-0.55,0.374-1.518,0.528-2.888
		C-58.164,6.422-58,6.348-58,6.246V5.793c0-1.071,0.491-1.154,0.695-1.154c0.457,0,0.914,0.296,0.914,1.705
		c0,0.271-0.062,0.588-0.097,0.952c-0.056,0.357-0.162,0.921-0.278,1.706c0.716-0.099,1.404-0.13,2.075-0.096
		C-54.22,8.924-54.05,8.963-53.942,9c0.352,0.082,0.597,0.517,0.674,0.85c0.072-0.021,0.139,0.15,0.197,0.15
		c0.002,0,0.005,0,0.007,0c0.362,0,0.627-0.054,0.826,0.193c0.136,0.171,0.287,0.374,0.242,0.817
		c-0.233,2.145-0.369,3.463-0.402,4.016C-52.42,15.474-52.377,15.671-52.336,15.796z M-52.006,5.469
		c-0.077,0.166-0.226,0.507-0.446,1.025c-0.056,0.153-0.103,0.354-0.132,0.575c-0.022,0.193-0.078,0.468-0.281,0.649
		c-0.191,0.213-0.406,0.32-0.639,0.32c-0.131,0-0.328-0.037-0.519-0.213c-0.264-0.229-0.295-0.607-0.295-0.872
		c0-0.421,0.112-0.872,0.334-1.34c0.013-0.033,0.11-0.299,0.284-0.779c0.136-0.384,0.444-0.616,0.823-0.616
		c0.364,0,0.579,0.152,0.695,0.28c0.18,0.197,0.254,0.468,0.223,0.805L-52.006,5.469z M-43.503,11.066
		c-0.201,0.174-0.718,0.787-2.007,2.687c-1.231,1.805-1.617,2.457-1.725,2.687c-0.335,0.787-0.784,1.195-1.326,1.195
		c-0.165,0-0.327-0.044-0.481-0.131c-0.25-0.135-0.448-0.398-0.579-0.776c-0.065-0.241-0.124-0.446-0.189-0.651
		c-0.244-1.028-0.534-2.16-0.879-3.43c-0.388-1.078-0.421-1.313-0.421-1.458c0-0.833,1.075-1.176,1.775-0.23
		c0.229,0.31,0.402,0.688,0.519,1.127c0.065,0.4,0.216,1.124,0.458,2.203c0.01,0.041,0.022,0.089,0.037,0.144
		c0.36-0.517,0.833-1.19,1.419-2.02c0.792-1.049,1.591-2.134,2.406-3.269c0.209-0.484,0.554-1.093,1.161-1.093
		c0.173,0,0.498,0.057,0.735,0.436c0.134,0.215,0.202,0.44,0.202,0.668C-42.4,9.811-42.771,10.454-43.503,11.066z M-40.997,15.796
		c0.129,0.398,0.142,0.475,0.142,0.566c0,0.125-0.022,0.267-0.068,0.434c-0.104,0.387-0.435,0.62-0.886,0.62
		c-0.249,0-0.489-0.09-0.713-0.267c-0.282-0.224-0.391-0.637-0.391-1.476c0-0.018,0-0.073,0.168-3.652
		c0.046-0.816,0.077-1.077,0.089-1.158C-42.509,9.981-42.014,10-41.731,10c0.002,0,0.005,0,0.007,0c0.362,0,0.627-0.054,0.826,0.193
		c0.136,0.171,0.287,0.374,0.242,0.817c-0.233,2.145-0.369,3.463-0.402,4.016C-41.081,15.474-41.037,15.671-40.997,15.796z
		 M-40.667,5.469c-0.077,0.166-0.226,0.507-0.446,1.025c-0.056,0.153-0.103,0.354-0.132,0.575c-0.022,0.193-0.078,0.468-0.281,0.649
		c-0.191,0.213-0.406,0.32-0.639,0.32c-0.131,0-0.328-0.037-0.519-0.213c-0.264-0.229-0.295-0.607-0.295-0.872
		c0-0.421,0.112-0.872,0.334-1.34c0.013-0.033,0.11-0.299,0.284-0.779c0.136-0.384,0.444-0.616,0.823-0.616
		c0.364,0,0.579,0.152,0.695,0.28c0.18,0.197,0.254,0.468,0.223,0.805L-40.667,5.469z M-30.816,15.796
		c0.129,0.398,0.142,0.475,0.142,0.566c0,0.125-0.022,0.267-0.068,0.434c-0.104,0.387-0.435,0.62-0.886,0.62
		c-0.249,0-0.489-0.09-0.713-0.267c-0.282-0.224-0.391-0.637-0.391-1.476c0-0.018,0-0.073,0.168-3.652
		c0.046-0.816,0.077-1.262,0.089-1.344c0.001-0.008,0.004-0.014,0.005-0.022c-0.052,0.006-0.094,0.024-0.15,0.024
		c-0.081,0-0.203-0.009-0.365-0.029c-0.1-0.012-0.169-0.021-0.207-0.021c-0.642,0-1.432,0.095-2.35,0.284
		c-0.215,1.865-0.324,3.454-0.324,4.727c0,0.294,0.005,0.561,0.016,0.8l0.03,0.114c0.037,0.163,0.054,0.297,0.054,0.413
		c0,0.55-0.355,0.906-0.905,0.906l-0.101-0.004c-0.37-0.021-0.684-0.234-0.877-0.602c-0.134-0.268-0.19-0.55-0.174-0.848
		c-0.001-0.583,0.062-1.775,0.185-3.519c0.051-0.393,0.111-0.894,0.183-1.512c-0.195,0.066-0.42,0.145-0.674,0.237
		c-0.182,0.089-0.419,0.236-0.659,0.417c-0.254,0.191-0.445,0.273-0.637,0.273l-0.194-0.032c-0.772-0.196-0.86-0.736-0.86-0.959
		c0-0.699,0.788-1.08,1.381-1.305c0.361-0.144,1.006-0.359,1.916-0.639c0.08-0.55,0.113-1.518,0.268-2.888
		C-36.904,6.422-37,6.348-37,6.246V5.793c0-1.071,0.751-1.154,0.956-1.154c0.457,0,1.044,0.296,1.044,1.705
		c0,0.271,0.003,0.588-0.032,0.952c-0.056,0.357-0.13,0.921-0.245,1.706c0.717-0.099,1.42-0.13,2.091-0.096
		c0.471,0.017,0.649,0.057,0.757,0.093c0.352,0.082,0.6,0.517,0.677,0.85C-31.68,9.829-31.609,10-31.55,10c0.002,0,0.005,0,0.007,0
		c0.362,0,0.627-0.054,0.826,0.193c0.136,0.171,0.287,0.374,0.242,0.817c-0.233,2.145-0.369,3.463-0.402,4.016
		C-30.9,15.474-30.856,15.671-30.816,15.796z M-30.486,5.469c-0.077,0.166-0.226,0.507-0.446,1.025
		c-0.056,0.153-0.103,0.354-0.132,0.575c-0.022,0.193-0.078,0.468-0.281,0.649c-0.191,0.213-0.406,0.32-0.639,0.32
		c-0.131,0-0.328-0.037-0.519-0.213c-0.264-0.229-0.295-0.607-0.295-0.872c0-0.421,0.112-0.872,0.334-1.34
		c0.013-0.033,0.11-0.299,0.284-0.779c0.136-0.384,0.444-0.616,0.823-0.616c0.364,0,0.579,0.152,0.695,0.28
		c0.18,0.197,0.254,0.468,0.223,0.805L-30.486,5.469z M-20.298,12.953c0.052,0.307,0.212,0.525,0.504,0.686l1.382,0.526
		c1.071,0.413,1.316,0.529,1.422,0.592c0.511,0.316,0.818,0.79,0.894,1.373c0.062,0.554-0.415,1.148-1.644,1.91
		C-19.075,18.871-19.38,19-19.596,19h-0.036l-0.055-0.067c-0.747-0.018-1.034-0.533-1.034-0.979c0-0.21,0.077-0.425,0.222-0.594
		l0.164-0.133l1.345-0.642c0.392-0.196,0.622-0.342,0.756-0.44c-0.115-0.056-0.292-0.129-0.559-0.214
		c-0.975-0.306-1.624-0.557-1.984-0.769c-0.352-0.199-0.624-0.438-0.844-0.701c-0.089,0.123-0.199,0.246-0.364,0.36l-1.904,1.403
		c-1.37,0.917-2.461,1.357-3.354,1.357c-0.881,0-1.649-0.436-2.284-1.295c-0.546-0.774-0.82-1.589-0.82-2.431
		c0-1.188,0.562-2.23,1.67-3.098c1.003-0.795,2.103-1.199,3.266-1.199c0.666,0,1.244,0.157,1.718,0.467
		c0.167,0.083,0.293,0.293,0.293,0.536c0,0.375-0.287,0.756-1.023,1.359c-0.485,0.403-0.84,0.784-1.419,1.131
		C-26.543,13.481-28,13.751-28,13.856c0,0.008,0,0.017,0,0.025c0,0.397-0.064,0.78,0.188,1.17c0.42,0.66,0.713,0.66,0.84,0.66
		c0.356-0.013,0.95-0.2,2.187-1.02c1.176-0.79,1.397-1.063,1.443-1.128c0.218-0.387,0.518-0.827,0.966-0.827
		c0.077,0,0.148,0.015,0.225,0.036c0.033-0.85,0.413-1.729,1.187-2.619c0.383-0.431,1.098-1.08,2.189-1.988
		c0.48-0.4,1.044-0.486,1.596-0.241c0.205,0.114,0.371,0.211,0.542,0.313c0.286,0.195,0.532,0.4,0.574,0.695
		c0.058,0.315-0.053,0.533-0.156,0.657c-0.107,0.129-0.315,0.283-0.691,0.283c-0.202,0-0.407-0.052-0.61-0.153
		c-0.032-0.016-0.06-0.03-0.083-0.041c-0.105,0.022-0.239,0.094-0.383,0.214l-1.307,1.208c-0.346,0.307-0.616,0.67-0.809,1.086
		C-20.31,12.635-20.314,12.859-20.298,12.953z"/>
	<path fill="#3FA9F5" d="M-73.9,15.908c0,0.034,0.001,0.062,0.003,0.083c0.215,0.032,0.664-0.055,1.424-0.6
		c-0.199-0.523-0.351-0.687-0.403-0.73c-0.337,0.07-0.592,0.236-0.777,0.505C-73.82,15.402-73.9,15.643-73.9,15.908z"/>
</g>
<path fill="#3FA9F5" d="M71,0H4L0,4v16l4,4h59.079c0.038-0.283,0.136-0.467,0.255-0.582c0.063-0.342,0.219-1.46,0.585-5.074
	c0.176-1.675,0.298-3.201,0.365-4.557c-2.058,2.385-2.821,2.738-3.337,2.738C60.479,16.511,60,16.223,60,14.934
	c0-0.014,0-0.031,0-0.052c0,0.1-0.368,0.209-0.575,0.34c-0.938,0.583-1.899,1.08-2.813,1.48c-1.249,0.53-2.338,0.798-3.221,0.798
	c-0.967,0-1.705-0.314-2.183-0.934c-0.262-0.33-0.396-0.741-0.412-1.207c0.007,0.711,0.019,0.988,0.027,1.089
	c0.209,0.441,0.302,0.743,0.302,0.972c0,0.559-0.349,0.92-0.888,0.92c-0.306,0-0.59-0.117-0.846-0.346
	c-0.268-0.239-0.41-0.554-0.41-0.91c0-0.067,0.01-0.011,0.035-0.137C49.024,16.905,49.031,17,49.032,17h0.007
	c-0.027-1-0.052-0.646-0.089-1.117c-0.068-0.669-0.098-1.466-0.086-2.208c0.018-0.688,0.017-1.225,0.008-1.584
	c-0.058,0.103-0.122,0.2-0.192,0.333c-0.502,0.944-0.957,1.941-1.352,2.983c-0.151,0.401-0.299,0.861-0.438,1.376
	c-0.115,0.431-0.239,0.659-0.426,0.793c-0.274,0.136-0.447,0.177-0.611,0.177c-0.228,0-0.97-0.091-0.97-1.256
	c0-0.125,0.017-0.532,0.051-1.218c0.015-0.243,0.017-0.47,0.027-0.708c-0.077,0.086-0.168,0.172-0.285,0.253l-1.903,1.403
	c-1.369,0.917-2.46,1.357-3.354,1.357c-0.881,0-1.649-0.436-2.284-1.294c-0.546-0.775-0.819-1.589-0.819-2.431
	c0-0.992,0.414-1.875,1.188-2.646l-0.12,0.015c-0.136,0-0.286-0.028-0.458-0.086c-0.166-0.055-0.227-0.058-0.229-0.058
	c-0.051,0-0.108,0.02-0.175,0.061c-0.994,0.561-2.129,1.812-3.389,3.729c-0.201,0.302-0.329,0.729-0.382,1.27
	c-0.098,0.99-0.153,1.146-0.267,1.289c-0.197,0.241-0.467,0.372-0.761,0.372c-0.32,0-0.604-0.126-0.822-0.365
	c-0.173-0.171-0.266-0.441-0.266-0.807c0-0.114,0.012-0.341,0.105-1.087c0.087-0.604,0.142-1.136,0.165-1.592
	c0.021-0.406,0.032-0.778,0.032-1.118c0-0.502-0.022-0.94-0.066-1.312l-0.516-0.327c-0.092-0.014-0.178-0.018-0.285-0.054
	c-0.167-0.056-0.227-0.058-0.229-0.058c-0.05,0-0.109,0.02-0.173,0.06c-0.994,0.561-2.129,1.812-3.389,3.729
	c-0.201,0.302-0.329,0.728-0.382,1.27c-0.103,1.037-0.165,1.159-0.265,1.286c-0.203,0.248-0.464,0.375-0.762,0.375
	c-0.321,0-0.605-0.126-0.823-0.365c-0.173-0.171-0.265-0.441-0.265-0.807c0-0.106,0.011-0.334,0.104-1.086
	c0.088-0.609,0.143-1.141,0.165-1.592c0.022-0.407,0.033-0.78,0.033-1.119c0-0.536-0.025-1-0.075-1.387l-0.807,1.304
	c-0.097,0.424-0.206,0.871-0.336,1.355c-0.678,2.419-1.196,2.947-1.613,3.144c-0.238,0.12-0.488,0.183-0.734,0.183
	c-0.963,0-1.638-0.828-2.055-2.545c-0.148,0.098-0.313,0.205-0.517,0.334c-0.937,0.583-1.874,1.08-2.789,1.48
	c-1.267,0.538-2.314,0.798-3.208,0.798c-0.966,0-1.698-0.314-2.176-0.934c-0.28-0.353-0.423-0.791-0.423-1.297
	c0-1.054,0.524-2.234,1.557-3.507c1.032-1.266,1.971-1.946,2.869-2.078c0.138-0.016,0.251-0.022,0.358-0.022
	c0.79,0,1.071,0.466,1.071,0.903c0,0.269-0.108,0.546-0.321,0.825c-0.306,0.398-0.631,0.482-0.851,0.482
	c-0.096,0-0.213-0.017-0.379-0.054c-0.128-0.029-0.173-0.03-0.175-0.03c-0.032,0.009-0.323,0.131-1.167,1.218
	c-0.858,1.097-1.038,1.754-1.038,2.112c0,0.231,0.081,0.381,0.271,0.502c0.114,0.07,0.292,0.107,0.522,0.107
	c0.799,0,2.027-0.428,3.65-1.271c0.791-0.45,1.603-0.91,2.421-1.37c0.005-0.002,0.011-0.002,0.016-0.005
	c-0.092-0.795-0.156-1.695-0.187-2.719c-0.018-0.352,0.059-0.625,0.233-0.824c0.164-0.185,0.383-0.286,0.618-0.286l0.158,0.015
	c0.593,0.114,0.933,0.542,0.914,1.146c-0.054,1.397,0.044,2.654,0.291,3.737c0.125,0.579,0.243,0.899,0.328,1.073
	c0.297-0.57,0.554-1.384,0.761-2.421c0.15-0.793,0.232-1.416,0.242-1.846c0.021-0.807,0.523-1.094,0.988-1.094
	c0.322,0.013,0.917,0.144,1.018,1.123l0.006,0.061l-0.001,0.009l0.309-1.237c0.026-0.042,0.054-0.083,0.083-0.12l1.013-0.381
	c0.174,0.041,0.34,0.132,0.497,0.274c0.325,0.307,0.472,0.904,0.5,2.004c0.004,0.172,0.008,0.382,0.011,0.63
	c0.516-0.605,0.986-1.106,1.401-1.49c0.749-0.703,0.956-0.874,1.053-0.944c0.824-0.57,1.642-0.687,2.536-0.389l0.001,0l0.848-0.088
	c0.177,0.04,0.346,0.132,0.504,0.276c0.325,0.306,0.473,0.903,0.5,2.004c0.004,0.172,0.008,0.383,0.011,0.631
	c0.514-0.603,0.984-1.104,1.4-1.49c0.752-0.705,0.959-0.875,1.056-0.945c0.823-0.57,1.646-0.685,2.534-0.388
	c0.181,0.065,0.577,0.275,0.577,0.911c0,0.078-0.02,0.148-0.037,0.22c0.911-0.633,1.894-0.972,2.93-0.972
	c0.666,0,1.244,0.157,1.719,0.467c0.168,0.085,0.294,0.295,0.294,0.536c0,0.375-0.287,0.756-1.024,1.359
	c-0.481,0.401-1.167,0.782-1.749,1.131C39.787,13.482,39,13.751,38,13.856c0,0.008,0,0.017,0,0.025c0,0.397,0.266,0.78,0.518,1.169
	c0.422,0.661,0.879,0.661,1.006,0.661c0.357-0.013,1.034-0.2,2.271-1.02c1.176-0.79,1.438-1.063,1.484-1.128
	c0.218-0.387,0.538-0.827,0.986-0.827c0.173,0,0.351,0.054,0.521,0.16c0.094,0.069,0.17,0.14,0.231,0.211
	c0.025-1.109,0.099-2.129,0.223-3.031c0.104-0.607,0.514-0.818,0.864-0.818c0.383,0,0.708,0.162,0.938,0.467
	c0.111,0.143,0.168,0.336,0.168,0.587c0,0.097-0.025,0.376-0.08,0.84c-0.007,0.06-0.013,0.119-0.02,0.178
	c1.095-1.866,1.737-2.166,2.229-2.166l0.195,0.021c0.934,0.188,1.096,1.415,1.149,1.818c0.081,0.583,0.115,1.641,0.104,3.227
	c0,0.373,0.001,0.679,0.003,0.939c0.031-1.03,0.543-2.174,1.544-3.408c1.034-1.267,1.973-1.946,2.869-2.078
	c0.138-0.016,0.252-0.022,0.359-0.022c0.79,0,1.071,0.466,1.071,0.903c0,0.268-0.108,0.545-0.321,0.825
	c-0.305,0.398-0.631,0.482-0.852,0.482c-0.096,0-0.213-0.017-0.379-0.054c-0.128-0.029-0.173-0.03-0.175-0.03
	c-0.032,0.009-0.325,0.131-1.167,1.218c-0.858,1.097-1.038,1.754-1.038,2.112c0,0.231,0.081,0.381,0.271,0.502
	c0.114,0.069,0.292,0.107,0.522,0.107c0.799,0,2.027-0.428,3.65-1.271c0.789-0.45,1.603-0.91,2.421-1.37
	c0.183-0.092,0.363-0.11,0.532-0.083c0.063-0.49,0.147-1.105,0.259-1.887c0.093-0.679,0.145-1.049,0.157-1.107
	c0.145-0.601,0.467-0.802,0.713-0.868l0.197-0.029c0.188,0,0.382,0.071,0.594,0.217c0.361,0.25,0.457,0.54,0.475,0.738
	c0.002,0.121,0.002,0.208-0.344,1.955c-0.147,0.764-0.23,1.282-0.276,1.632c0.119-0.117,0.267-0.267,0.445-0.458
	c0.254-0.276,0.894-1.011,1.919-2.202l-0.001,0c-0.007,0,0.074-0.149,0.208-0.398c0.259-0.469,0.583-0.566,0.81-0.566
	c0.109,0,0.225,0.02,0.342,0.059c0.663,0.249,0.746,1.138,0.746,1.886c0,0.214-0.013,0.415-0.038,0.604
	c-0.155,1.574-0.418,4.101-0.788,7.564c-0.079,0.712-0.18,1.506-0.304,2.385c-0.09,0.625-0.117,0.878-0.126,0.98
	c0.099,0.153,0.158,0.319,0.197,0.49H71l4-4V4L71,0z"/>
<g>
	<path fill="#3FA9F5" d="M128.576,12.929c0.05-0.231-0.131-0.57-0.508-0.955c-0.272-0.279-0.539-0.474-0.797-0.585
		c-0.083,0.437-0.188,1.025-0.318,1.766c-0.073,0.449-0.166,1.128-0.279,2.061c0.147-0.1,0.287-0.201,0.417-0.304
		C127.935,14.248,128.435,13.581,128.576,12.929z"/>
	<path fill="#3FA9F5" d="M120.506,15.166c-0.169,0.237-0.249,0.477-0.249,0.742c0,0.034,0.001,0.062,0.003,0.083
		c0.024,0.004,0.048,0.005,0.068,0.005c0.242,0,0.667-0.111,1.356-0.604c-0.199-0.524-0.351-0.687-0.402-0.73
		C120.944,14.731,120.69,14.897,120.506,15.166z"/>
	<path fill="#3FA9F5" d="M155,0H88l-4,4v16l4,4h36.501c-0.032-0.118-0.053-0.244-0.053-0.381c0-0.164,0.033-0.319,0.1-0.461
		c-0.002-0.095-0.013-0.286-0.028-0.596l-0.02-0.372c-0.034-0.643-0.052-1.271-0.052-1.885c0-0.489,0.012-0.985,0.035-1.486
		c0.067-1.543,0.164-2.912,0.287-4.066c0.034-0.249,0.182-1.369,0.444-3.375c-0.284-0.219-0.421-0.539-0.376-0.905
		c0.09-0.414,0.368-0.702,0.836-0.903c0.322-0.14,0.602-0.209,0.853-0.209c0.804,0.013,1.606,0.311,2.396,0.886
		c0.728,0.549,1.199,1.204,1.424,1.95c0.155-0.669,0.513-1.352,1.111-2.042c0.385-0.432,1.1-1.08,2.192-1.988
		c0.48-0.4,1.044-0.486,1.597-0.241c0.205,0.114,0.371,0.211,0.542,0.313c0.285,0.195,0.53,0.4,0.573,0.692
		c0.058,0.32-0.053,0.538-0.156,0.661c-0.108,0.128-0.315,0.282-0.691,0.282c-0.202,0-0.407-0.052-0.61-0.154
		c-0.031-0.016-0.059-0.029-0.082-0.04c-0.105,0.023-0.238,0.094-0.382,0.213l-1.309,1.209c-0.345,0.306-0.615,0.67-0.81,1.087
		c-0.206,0.448-0.211,0.671-0.195,0.765c0.053,0.307,0.214,0.525,0.505,0.686l1.383,0.526c1.072,0.414,1.317,0.529,1.423,0.593
		c0.511,0.315,0.818,0.79,0.893,1.372c0.062,0.553-0.414,1.147-1.644,1.91c-1.334,0.83-1.648,0.96-1.856,0.96h-0.036l-0.055-0.067
		c-0.747-0.018-1.034-0.533-1.034-0.979c0-0.209,0.077-0.424,0.223-0.594l0.164-0.133l1.345-0.642
		c0.392-0.196,0.622-0.342,0.756-0.44c-0.115-0.056-0.292-0.129-0.559-0.214c-0.975-0.305-1.624-0.557-1.983-0.769
		c-0.681-0.384-1.104-0.897-1.287-1.516c-0.133,0.378-0.363,0.787-0.722,1.242c-0.416,0.555-0.959,1.128-1.608,1.696
		c-0.857,0.752-1.072,0.84-1.249,0.872c-0.066,0.019-0.217,0.029-0.339,0.008c-0.039,0.585-0.086,1.495-0.14,2.904
		c-0.043,2.456,0.014,2.907,0.032,2.986c0.062,0.132,0.102,0.308,0.102,0.479c0,0.059-0.023,0.108-0.032,0.164H155l4-4V4L155,0z
		 M117.321,17.147c-0.351,0-0.646-0.176-0.81-0.482c-0.119-0.215-0.245-0.638-0.245-2.101c0.022-0.741,0.039-1.466,0.051-2.192
		c0.004-0.461-0.017-0.787-0.047-1.016c-0.063,0.097-0.138,0.211-0.223,0.348c-0.478,0.771-0.905,1.612-1.271,2.497
		c-0.271,0.661-0.553,1.559-0.836,2.629c-0.089,0.342-0.299,1.17-0.945,1.17h-0.058l-0.098-0.039
		c-0.501-0.13-0.821-0.468-0.914-0.937c-0.011-0.153-0.033-0.735-0.077-1.83c-0.061-1.7-0.125-2.701-0.179-3.285
		c-0.095,0.182-0.209,0.416-0.343,0.717c-0.529,1.172-0.884,2.321-1.055,3.418l0.006,0.7c0,0.33-0.039,0.796-0.377,1.028
		c-0.178,0.122-0.394,0.183-0.642,0.183l-0.101-0.003c-0.447-0.026-0.665-0.228-0.77-0.393c-0.121-0.186-0.17-0.463-0.17-0.984
		c0-0.398,0.089-1.529,0.271-3.457c0.031-0.33,0.037-0.539,0.016-0.944c-0.008-0.128-0.015-0.174-0.021-0.174H108v-0.828
		c0-0.315,0.316-0.57,0.492-0.758c0.127-0.136,0.475-0.297,0.869-0.297c0.281,0,0.58,0.106,0.754,0.306
		c0.04,0.042,0.105,0.086,0.141,0.135c0.756-1.371,1.237-1.685,1.675-1.685c0.359,0,0.876,0.151,1.257,0.872
		c0.083,0.122,0.242,0.356,0.392,2.597c0.115-0.228,0.229-0.443,0.341-0.646c1.269-2.362,1.94-2.75,2.43-2.818l0.114-0.008
		c0.314,0,0.617,0.16,0.929,0.488c0.291,0.308,0.47,0.602,0.547,0.9c0.07,0.25,0.17,0.823,0.201,2.812
		c0.011,1.145,0.011,1.919,0,2.327c0.001,0,0.006,0.077,0.064,0.279c0.071,0.253,0.104,0.427,0.104,0.567
		C118.309,16.66,118.05,17.147,117.321,17.147z M124.104,15.9c-0.225,0.944-0.358,1.24-0.533,1.388
		c-0.103,0.1-0.27,0.198-0.53,0.198l-0.104-0.005c-0.311-0.028-0.501-0.17-0.607-0.284c-0.005-0.005-0.01-0.011-0.015-0.016
		c-0.73,0.413-1.408,0.621-2.021,0.621c-0.555,0-1.004-0.176-1.336-0.524c-0.326-0.34-0.491-0.779-0.491-1.303
		c0-0.679,0.242-1.347,0.721-1.988c0.495-0.662,1.087-1.047,1.757-1.145c0.101-0.014,0.387-0.02,0.477-0.02
		c0.416,0,0.578,0.135,1.578,0.641c0-0.025,0-0.05,0-0.076c0-0.685-0.357-1.333-0.684-1.926c-0.163-0.303-0.463-0.43-0.783-0.43
		c-0.228,0-0.489,0.058-0.701,0.178c-0.082,0.047-0.162,0.085-0.199,0.114l-0.007,0.027l-0.165,0.234
		c-0.081,0.1-0.239,0.219-0.516,0.219c-0.562,0-0.941-0.323-0.986-0.843c-0.041-0.494,0.26-0.922,0.891-1.277
		c0.94-0.529,2.148-0.594,2.881-0.129c1.145,0.721,1.727,1.999,1.727,3.799C124.457,14.154,124.339,15.011,124.104,15.9z"/>
</g>
<g>
	<path fill="#3FA9F5" d="M207.041,11.708c-0.04-0.035-0.115-0.081-0.244-0.12l-0.075,0.019c-0.208,0.05-0.407,0.151-0.608,0.31
		c-0.516,0.423-0.946,1.127-1.271,2.086c-0.049,0.141-0.073,0.306-0.073,0.495c0,0.326,0.062,0.621,0.185,0.875
		c0.169,0.321,0.332,0.321,0.402,0.321c0.248,0,0.57-0.149,0.93-0.431c0.379-0.283,0.632-0.557,0.764-0.82
		c0.287-0.578,0.433-1.085,0.433-1.508c0-0.278-0.058-0.541-0.175-0.804C207.17,11.844,207.075,11.739,207.041,11.708z"/>
	<path fill="#3FA9F5" d="M199.092,11.605c-0.072,0.414-0.158,1.037-0.256,1.858c-0.008,0.235-0.013,0.502-0.013,0.765
		c0,0.454,0.016,0.874,0.045,1.256c2.272-1.729,2.634-2.625,2.634-3.02c0-0.24-0.258-0.448-0.767-0.618
		C200.222,11.672,199.652,11.583,199.092,11.605z"/>
	<path fill="#3FA9F5" d="M192.536,15.166c-0.169,0.237-0.249,0.477-0.249,0.742c0,0.034,0.001,0.062,0.003,0.083
		c0.024,0.004,0.048,0.005,0.068,0.005c0.242,0,0.667-0.111,1.356-0.604c-0.199-0.524-0.351-0.687-0.402-0.73
		C192.975,14.731,192.721,14.897,192.536,15.166z"/>
	<path fill="#3FA9F5" d="M239,0h-67l-4,4v16l4,4h67l4-4V4L239,0z M196.135,15.9c-0.225,0.944-0.358,1.24-0.533,1.388
		c-0.103,0.101-0.27,0.198-0.53,0.198l-0.104-0.005c-0.311-0.028-0.502-0.17-0.607-0.284c-0.005-0.005-0.01-0.011-0.015-0.016
		c-0.73,0.413-1.408,0.621-2.021,0.621c-0.555,0-1.004-0.176-1.336-0.524c-0.326-0.34-0.491-0.779-0.491-1.303
		c0-0.678,0.242-1.347,0.721-1.988c0.495-0.662,1.087-1.047,1.757-1.145c0.101-0.014,0.371-0.02,0.462-0.02
		c0.416,0,0.562,0.135,1.562,0.641c0-0.025,0-0.05,0-0.076c0-0.685-0.342-1.333-0.668-1.926c-0.164-0.303-0.456-0.43-0.776-0.43
		c-0.228,0-0.485,0.058-0.697,0.178c-0.082,0.047-0.159,0.085-0.197,0.114l-0.006,0.027l-0.164,0.234
		c-0.081,0.1-0.239,0.219-0.516,0.219c-0.562,0-0.942-0.323-0.987-0.843c-0.04-0.494,0.261-0.922,0.892-1.277
		c0.94-0.529,2.148-0.594,2.881-0.129c1.145,0.721,1.727,1.999,1.727,3.799C196.487,14.154,196.369,15.011,196.135,15.9z
		 M207.87,16.374c-0.869,0.793-1.779,1.193-2.71,1.193c-0.329,0-0.617-0.065-0.858-0.194c-0.395-0.197-0.748-0.577-1.036-1.123
		c-0.278-0.523-0.42-1.108-0.42-1.737c0-0.206,0.031-0.407,0.064-0.608c-0.318,0.499-0.773,1.045-1.378,1.65
		c-0.705,0.625-1.381,1.229-2.053,1.833l-0.208,0.272c-0.147,0.177-0.352,0.268-0.586,0.268l-0.177-0.015
		c-0.475-0.082-0.789-0.366-0.878-0.778c-0.344-0.098-0.509-0.293-0.596-0.465c-0.074-0.183-0.159-0.397-0.034-2.621
		c0.058-1.13,0.117-1.972,0.178-2.507c-0.07-0.108-0.139-0.245-0.209-0.418l-0.034-0.134c-0.029-0.268,0.053-0.634,0.564-0.935
		c0.337-1.299,0.508-2.37,0.508-3.186c-0.004-0.044-0.026-0.132-0.06-0.257c-0.062-0.241-0.092-0.42-0.092-0.566
		c0-0.514,0.338-0.875,0.861-0.918c0.36,0.012,0.691,0.198,0.926,0.596c0.195,0.375,0.288,0.787,0.288,1.246
		c0,0.435-0.061,0.929-0.18,1.469c-0.126,0.529-0.226,0.957-0.298,1.285c2.006,0.095,3.079,0.782,3.647,2.048
		C203.188,11.96,203,12.165,203,12.38c0,0.001,0,0.002,0,0.003c1-1.737,2.055-2.634,3.15-2.719c0.555-0.042,1.224,0.15,1.771,0.573
		c0.682,0.513,1.161,1.273,1.305,2.255c0.026,0.224,0.067,0.434,0.067,0.644C209.294,14.384,208.834,15.473,207.87,16.374z
		 M222.821,10.421c-0.163,0.171-0.396,0.258-0.693,0.258c-0.081,0-0.203-0.009-0.365-0.029c-0.1-0.012-0.17-0.021-0.207-0.021
		c-0.642,0-1.431,0.095-2.35,0.284c-0.215,1.866-0.324,3.455-0.324,4.727c0,0.294,0.006,0.562,0.017,0.801l0.029,0.111
		c0.037,0.161,0.055,0.296,0.055,0.415c0,0.55-0.355,0.906-0.906,0.906l-0.101-0.004c-0.369-0.021-0.684-0.234-0.876-0.603
		c-0.133-0.264-0.19-0.545-0.175-0.845c-0.001-0.582,0.062-1.775,0.186-3.521c0.05-0.392,0.111-0.893,0.184-1.512
		c-0.184,0.062-0.405,0.14-0.675,0.237c-0.183,0.09-0.42,0.237-0.659,0.417c-0.255,0.191-0.445,0.273-0.637,0.273l-0.194-0.032
		c-0.155-0.04-0.276-0.095-0.381-0.157c-0.119,0.594-0.274,1.25-0.471,1.981c-0.678,2.418-1.194,2.946-1.611,3.144
		c-0.239,0.12-0.49,0.183-0.736,0.183c-1.592,0-2.401-2.247-2.549-7.07c-0.019-0.352,0.058-0.625,0.232-0.824
		c0.164-0.185,0.383-0.286,0.619-0.286l0.157,0.014c0.593,0.115,0.933,0.542,0.915,1.146c-0.055,1.398,0.042,2.655,0.289,3.738
		c0.126,0.58,0.244,0.9,0.328,1.074c0.298-0.569,0.554-1.384,0.761-2.421c0.15-0.793,0.232-1.416,0.242-1.846
		c0.022-0.808,0.525-1.095,0.988-1.095c0.25,0.01,0.662,0.097,0.882,0.591c0.262-0.189,0.579-0.33,0.855-0.436
		c0.362-0.145,0.992-0.355,1.915-0.639c0.08-0.554,0.24-1.522,0.395-2.888C217.97,6.417,218,6.346,218,6.25V5.793
		c0-1.071,0.625-1.154,0.83-1.154c0.457,0,0.98,0.296,0.98,1.705c0,0.271-0.028,0.588-0.063,0.953
		c-0.057,0.357-0.146,0.92-0.263,1.705c0.717-0.099,1.41-0.13,2.085-0.096c0.469,0.017,0.643,0.056,0.751,0.092
		c0.404,0.095,0.686,0.403,0.711,0.813C223.046,10.12,222.925,10.312,222.821,10.421z"/>
</g>
<g>
	<path fill="#FF33FF" d="M-133.763,37.708c-0.04-0.035-0.115-0.081-0.243-0.119l-0.076,0.018c-0.208,0.05-0.407,0.151-0.608,0.31
		c-0.517,0.424-0.946,1.128-1.271,2.086c-0.049,0.141-0.074,0.306-0.074,0.495c0,0.326,0.062,0.621,0.185,0.875
		c0.168,0.321,0.332,0.321,0.402,0.321c0.249,0,0.57-0.149,0.929-0.431c0.379-0.284,0.633-0.557,0.764-0.82
		c0.288-0.577,0.433-1.084,0.433-1.508c0-0.277-0.057-0.541-0.175-0.805C-133.634,37.843-133.729,37.739-133.763,37.708z"/>
	<path fill="#FF33FF" d="M-97,26h-67l-4,4v16l4,4h67l4-4V30L-97,26z M-132.934,42.374c-0.869,0.793-1.779,1.193-2.71,1.193
		c-0.329,0-0.617-0.065-0.857-0.194c-0.395-0.197-0.749-0.577-1.038-1.122c-0.165-0.312-0.266-0.651-0.333-1.002
		c-0.008,0.202-0.015,0.401-0.027,0.619c-0.011,0.127-0.013,0.264-0.008,0.429c0.006,0.198,0.009,0.549,0.009,0.583
		c0,0.517-0.354,1.12-0.902,1.12c-0.001,0-0.001,0-0.002,0c-0.539,0-0.899-0.552-1.01-1.085c-0.044-0.208-0.047-0.619-0.008-1.038
		c0.033-0.396,0.048-0.945,0.048-1.523c0-2.17-0.25-2.566-0.278-2.601c-0.132,0.031-0.601,0.117-1.624,1.046
		c-0.756,0.672-1.252,1.249-1.479,1.733c-0.329,0.688-0.455,1.396-0.376,2.115c0.055,0.559-0.041,0.961-0.292,1.239
		c-0.14,0.154-0.397,0.337-0.827,0.337c-0.393,0-0.637-0.162-0.772-0.297c-0.196-0.197-0.298-0.458-0.298-0.758
		c0-0.225,0.081-0.505,0.262-0.91c-0.007,0,0.033-0.285,0.074-1.692c0.045-1.582,0.153-3.178,0.322-4.743l0.261-3.082
		c0.043-0.457,0.15-1.582,0.964-1.582c0.694,0.039,1.1,0.461,1.1,1.105c0,0.126-0.015,0.381-0.142,1.141
		c-0.11,0.638-0.187,1.175-0.23,1.613c-0.089,0.958-0.167,1.863-0.234,2.712c-0.004,0.046-0.008,0.091-0.011,0.137
		c1.558-1.646,2.896-2.299,4.043-1.949c0.932,0.325,1.389,1.535,1.45,3.77c0.055-0.241,0.13-0.478,0.233-0.707
		c0.938-2.137,1.988-3.224,3.206-3.318c0.534-0.045,1.108,0.149,1.655,0.573c0.683,0.513,1.105,1.273,1.247,2.256
		c0.027,0.223,0.039,0.433,0.039,0.643C-131.481,40.384-131.97,41.473-132.934,42.374z M-122.12,43.147
		c-0.351,0-0.646-0.176-0.811-0.482c-0.119-0.215-0.244-0.638-0.244-2.101c0.022-0.741,0.039-1.466,0.05-2.192
		c0.004-0.46-0.017-0.786-0.046-1.016c-0.064,0.097-0.138,0.211-0.223,0.348c-0.475,0.766-0.903,1.606-1.272,2.497
		c-0.27,0.659-0.551,1.558-0.835,2.629c-0.089,0.342-0.3,1.17-0.946,1.17h-0.058l-0.098-0.039c-0.5-0.13-0.82-0.468-0.914-0.937
		c-0.011-0.154-0.033-0.736-0.076-1.831c-0.062-1.698-0.125-2.7-0.178-3.287c-0.096,0.183-0.21,0.417-0.345,0.719
		c-0.529,1.172-0.883,2.321-1.054,3.418l0.006,0.7c0,0.33-0.039,0.795-0.375,1.027c-0.18,0.123-0.396,0.184-0.644,0.184
		l-0.101-0.003c-0.444-0.026-0.663-0.226-0.767-0.389c-0.122-0.19-0.172-0.476-0.172-0.988c0-0.404,0.088-1.535,0.271-3.458
		c0.031-0.334,0.036-0.543,0.015-0.944c-0.007-0.128-0.014-0.174-0.02-0.174H-131v-0.828c0-0.315,0.096-0.57,0.272-0.758
		c0.127-0.136,0.364-0.297,0.759-0.297c0.28,0,0.523,0.105,0.698,0.305c0.039,0.042,0.078,0.087,0.113,0.136
		c0.756-1.371,1.225-1.685,1.662-1.685c0.359,0,0.869,0.151,1.249,0.872c0.083,0.121,0.24,0.356,0.389,2.596
		c0.115-0.227,0.228-0.442,0.338-0.645c1.27-2.363,1.941-2.75,2.43-2.818l0.114-0.008c0.313,0,0.617,0.16,0.928,0.487
		c0.29,0.307,0.469,0.601,0.547,0.899c0.07,0.251,0.169,0.825,0.201,2.814c0.011,1.145,0.011,1.92,0,2.327
		c0,0,0.006,0.076,0.065,0.28c0.071,0.252,0.103,0.426,0.103,0.566C-121.133,42.66-121.392,43.147-122.12,43.147z M-112.88,40.823
		l-1.904,1.403c-1.37,0.917-2.461,1.357-3.354,1.357c-0.881,0-1.649-0.436-2.284-1.295c-0.546-0.774-0.82-1.589-0.82-2.431
		c0-1.188,0.562-2.23,1.67-3.098c1.003-0.795,2.103-1.199,3.266-1.199c0.666,0,1.244,0.157,1.718,0.467
		c0.167,0.083,0.293,0.293,0.293,0.536c0,0.375-0.287,0.756-1.023,1.359c-0.485,0.403-0.892,0.784-1.471,1.131
		c-0.701,0.427-1.21,0.697-2.21,0.802c0,0.008,0,0.017,0,0.025c0,0.397-0.012,0.78,0.24,1.17c0.42,0.66,0.739,0.66,0.866,0.66
		c0.357-0.013,0.964-0.2,2.201-1.02c1.176-0.79,1.403-1.063,1.449-1.128c0.218-0.387,0.521-0.827,0.969-0.827
		c0.173,0,0.343,0.054,0.513,0.16c0.407,0.298,0.484,0.64,0.484,0.877C-112.277,40.062-112.384,40.479-112.88,40.823z"/>
</g>
<g>
	<path fill="#FF33FF" d="M-13,26h-67l-4,4v16l4,4h67l4-4V30L-13,26z M-61.314,41.222c-0.937,0.583-1.874,1.08-2.789,1.48
		c-1.267,0.538-2.314,0.798-3.208,0.798c-0.966,0-1.698-0.314-2.176-0.934c-0.28-0.353-0.423-0.791-0.423-1.297
		c0-0.059,0.019-0.122,0.022-0.181c-0.051,0.27-0.092,0.536-0.165,0.812c-0.228,0.957-0.357,1.243-0.537,1.391
		c-0.103,0.1-0.269,0.195-0.526,0.195l-0.104-0.005c-0.311-0.028-0.501-0.17-0.607-0.284c-0.005-0.005-0.01-0.011-0.015-0.016
		c-0.73,0.413-1.409,0.621-2.021,0.621c-0.555,0-1.004-0.176-1.336-0.524c-0.326-0.341-0.491-0.78-0.491-1.303
		c0-0.679,0.243-1.348,0.721-1.988c0.494-0.662,1.085-1.046,1.756-1.145c0.101-0.014-0.036-0.02,0.055-0.02
		c0.417,0,1.157,0.135,1.157,0.641c0-0.025,0-0.05,0-0.076c0-0.685,0.064-1.333-0.262-1.926c-0.163-0.303-0.252-0.43-0.573-0.43
		c-0.228,0-0.383,0.058-0.595,0.178c-0.084,0.048-0.113,0.087-0.15,0.116l0.021,0.032l-0.153,0.231
		c-0.081,0.098-0.231,0.215-0.506,0.215c-0.563,0-0.939-0.323-0.983-0.844c-0.041-0.492,0.26-0.921,0.892-1.276
		c0.942-0.53,2.152-0.595,2.883-0.129c1.145,0.721,1.727,2,1.727,3.799c0,0.315-0.033,0.646-0.069,0.977
		c0.213-0.802,0.679-1.66,1.416-2.568c1.032-1.266,1.971-1.946,2.869-2.078c0.138-0.016,0.251-0.022,0.358-0.022
		c0.79,0,1.071,0.466,1.071,0.903c0,0.269-0.108,0.546-0.321,0.825c-0.306,0.398-0.631,0.482-0.851,0.482
		c-0.096,0-0.213-0.017-0.379-0.054c-0.128-0.029-0.173-0.03-0.175-0.03c-0.032,0.009-0.323,0.131-1.167,1.218
		c-0.858,1.097-1.038,1.754-1.038,2.112c0,0.231,0.081,0.381,0.271,0.502c0.114,0.07,0.292,0.107,0.522,0.107
		c0.799,0,2.027-0.428,3.65-1.271c0.791-0.45,1.603-0.91,2.421-1.37c0.408-0.204,0.819-0.086,1.071,0.242
		c0.162,0.211,0.221,0.462,0.167,0.706C-59.914,40.253-59.994,40.385-61.314,41.222z M-52.336,41.796
		c0.129,0.398,0.142,0.475,0.142,0.566c0,0.125-0.022,0.267-0.068,0.434c-0.104,0.387-0.435,0.62-0.886,0.62
		c-0.249,0-0.489-0.09-0.713-0.267c-0.282-0.224-0.391-0.637-0.391-1.476c0-0.018,0-0.073,0.168-3.652
		c0.046-0.816,0.077-1.262,0.089-1.344c0.001-0.008,0.004-0.014,0.005-0.022c-0.052,0.006-0.094,0.024-0.15,0.024
		c-0.081,0-0.203-0.009-0.365-0.029c-0.1-0.012-0.169-0.021-0.207-0.021c-0.642,0-1.432,0.095-2.35,0.284
		c-0.215,1.865-0.324,3.454-0.324,4.727c0,0.294,0.005,0.561,0.016,0.8l0.03,0.114c0.037,0.163,0.054,0.297,0.054,0.413
		c0,0.55-0.355,0.906-0.905,0.906l-0.101-0.004c-0.37-0.021-0.684-0.234-0.877-0.602c-0.134-0.268-0.19-0.55-0.174-0.848
		c-0.001-0.583,0.062-1.775,0.185-3.519c0.051-0.393,0.111-0.894,0.183-1.512c-0.195,0.066-0.42,0.145-0.674,0.237
		c-0.182,0.089-0.419,0.236-0.659,0.417c-0.254,0.191-0.445,0.273-0.637,0.273l-0.194-0.032c-0.772-0.196-0.86-0.736-0.86-0.959
		c0-0.699,0.788-1.08,1.381-1.305c0.361-0.144,1.006-0.359,1.916-0.639c0.08-0.55,0.374-1.518,0.528-2.888
		c0.01-0.069,0.174-0.143,0.174-0.245v-0.453c0-1.071,0.491-1.154,0.695-1.154c0.457,0,0.914,0.296,0.914,1.705
		c0,0.271-0.062,0.588-0.097,0.952c-0.056,0.357-0.162,0.921-0.278,1.706c0.716-0.099,1.404-0.13,2.075-0.096
		c0.471,0.017,0.64,0.057,0.749,0.093c0.352,0.082,0.597,0.517,0.674,0.85c0.072-0.021,0.139,0.15,0.197,0.15
		c0.002,0,0.005,0,0.007,0c0.362,0,0.627-0.054,0.826,0.193c0.136,0.171,0.287,0.374,0.242,0.817
		c-0.233,2.145-0.369,3.463-0.402,4.016C-52.42,41.474-52.377,41.671-52.336,41.796z M-52.006,31.469
		c-0.077,0.166-0.226,0.507-0.446,1.025c-0.056,0.153-0.103,0.354-0.132,0.575c-0.022,0.193-0.078,0.468-0.281,0.649
		c-0.191,0.213-0.406,0.32-0.639,0.32c-0.131,0-0.328-0.037-0.519-0.213c-0.264-0.229-0.295-0.607-0.295-0.872
		c0-0.421,0.112-0.872,0.334-1.34c0.013-0.033,0.11-0.299,0.284-0.779c0.136-0.384,0.444-0.616,0.823-0.616
		c0.364,0,0.579,0.152,0.695,0.28c0.18,0.197,0.254,0.468,0.223,0.805L-52.006,31.469z M-43.503,37.066
		c-0.201,0.174-0.718,0.787-2.007,2.687c-1.231,1.805-1.617,2.457-1.725,2.687c-0.335,0.787-0.784,1.195-1.326,1.195
		c-0.165,0-0.327-0.044-0.481-0.131c-0.25-0.135-0.448-0.398-0.579-0.776c-0.065-0.241-0.124-0.446-0.189-0.651
		c-0.244-1.028-0.534-2.16-0.879-3.43c-0.388-1.078-0.421-1.313-0.421-1.458c0-0.833,1.075-1.176,1.775-0.23
		c0.229,0.31,0.402,0.688,0.519,1.127c0.065,0.4,0.216,1.124,0.458,2.203c0.01,0.041,0.022,0.089,0.037,0.144
		c0.36-0.517,0.833-1.19,1.419-2.02c0.792-1.049,1.591-2.134,2.406-3.269c0.209-0.484,0.554-1.093,1.161-1.093
		c0.173,0,0.498,0.057,0.735,0.436c0.134,0.215,0.202,0.44,0.202,0.668C-42.4,35.811-42.771,36.454-43.503,37.066z M-40.997,41.796
		c0.129,0.398,0.142,0.475,0.142,0.566c0,0.125-0.022,0.267-0.068,0.434c-0.104,0.387-0.435,0.62-0.886,0.62
		c-0.249,0-0.489-0.09-0.713-0.267c-0.282-0.224-0.391-0.637-0.391-1.476c0-0.018,0-0.073,0.168-3.652
		c0.046-0.816,0.077-1.077,0.089-1.158C-42.509,35.981-42.014,36-41.731,36c0.002,0,0.005,0,0.007,0
		c0.362,0,0.627-0.054,0.826,0.193c0.136,0.171,0.287,0.374,0.242,0.817c-0.233,2.145-0.369,3.463-0.402,4.016
		C-41.081,41.474-41.037,41.671-40.997,41.796z M-40.667,31.469c-0.077,0.166-0.226,0.507-0.446,1.025
		c-0.056,0.153-0.103,0.354-0.132,0.575c-0.022,0.193-0.078,0.468-0.281,0.649c-0.191,0.213-0.406,0.32-0.639,0.32
		c-0.131,0-0.328-0.037-0.519-0.213c-0.264-0.229-0.295-0.607-0.295-0.872c0-0.421,0.112-0.872,0.334-1.34
		c0.013-0.033,0.11-0.299,0.284-0.779c0.136-0.384,0.444-0.616,0.823-0.616c0.364,0,0.579,0.152,0.695,0.28
		c0.18,0.197,0.254,0.468,0.223,0.805L-40.667,31.469z M-30.816,41.796c0.129,0.398,0.142,0.475,0.142,0.566
		c0,0.125-0.022,0.267-0.068,0.434c-0.104,0.387-0.435,0.62-0.886,0.62c-0.249,0-0.489-0.09-0.713-0.267
		c-0.282-0.224-0.391-0.637-0.391-1.476c0-0.018,0-0.073,0.168-3.652c0.046-0.816,0.077-1.262,0.089-1.344
		c0.001-0.008,0.004-0.014,0.005-0.022c-0.052,0.006-0.094,0.024-0.15,0.024c-0.081,0-0.203-0.009-0.365-0.029
		c-0.1-0.012-0.169-0.021-0.207-0.021c-0.642,0-1.432,0.095-2.35,0.284c-0.215,1.865-0.324,3.454-0.324,4.727
		c0,0.294,0.005,0.561,0.016,0.8l0.03,0.114c0.037,0.163,0.054,0.297,0.054,0.413c0,0.55-0.355,0.906-0.905,0.906l-0.101-0.004
		c-0.37-0.021-0.684-0.234-0.877-0.602c-0.134-0.268-0.19-0.55-0.174-0.848c-0.001-0.583,0.062-1.775,0.185-3.519
		c0.051-0.393,0.111-0.894,0.183-1.512c-0.195,0.066-0.42,0.145-0.674,0.237c-0.182,0.089-0.419,0.236-0.659,0.417
		c-0.254,0.191-0.445,0.273-0.637,0.273l-0.194-0.032c-0.772-0.196-0.86-0.736-0.86-0.959c0-0.699,0.788-1.08,1.381-1.305
		c0.361-0.144,1.006-0.359,1.916-0.639c0.08-0.55,0.113-1.518,0.268-2.888C-36.904,32.422-37,32.348-37,32.246v-0.453
		c0-1.071,0.751-1.154,0.956-1.154c0.457,0,1.044,0.296,1.044,1.705c0,0.271,0.003,0.588-0.032,0.952
		c-0.056,0.357-0.13,0.921-0.245,1.706c0.717-0.099,1.42-0.13,2.091-0.096c0.471,0.017,0.649,0.057,0.757,0.093
		c0.352,0.082,0.6,0.517,0.677,0.85C-31.68,35.829-31.609,36-31.55,36c0.002,0,0.005,0,0.007,0c0.362,0,0.627-0.054,0.826,0.193
		c0.136,0.171,0.287,0.374,0.242,0.817c-0.233,2.145-0.369,3.463-0.402,4.016C-30.9,41.474-30.856,41.671-30.816,41.796z
		 M-30.486,31.469c-0.077,0.166-0.226,0.507-0.446,1.025c-0.056,0.153-0.103,0.354-0.132,0.575
		c-0.022,0.193-0.078,0.468-0.281,0.649c-0.191,0.213-0.406,0.32-0.639,0.32c-0.131,0-0.328-0.037-0.519-0.213
		c-0.264-0.229-0.295-0.607-0.295-0.872c0-0.421,0.112-0.872,0.334-1.34c0.013-0.033,0.11-0.299,0.284-0.779
		c0.136-0.384,0.444-0.616,0.823-0.616c0.364,0,0.579,0.152,0.695,0.28c0.18,0.197,0.254,0.468,0.223,0.805L-30.486,31.469z
		 M-20.298,38.953c0.052,0.307,0.212,0.525,0.504,0.686l1.382,0.526c1.071,0.413,1.316,0.529,1.422,0.592
		c0.511,0.316,0.818,0.79,0.894,1.373c0.062,0.554-0.415,1.148-1.644,1.91C-19.075,44.871-19.38,45-19.596,45h-0.036l-0.055-0.067
		c-0.747-0.018-1.034-0.533-1.034-0.979c0-0.21,0.077-0.425,0.222-0.594l0.164-0.133l1.345-0.642
		c0.392-0.196,0.622-0.342,0.756-0.44c-0.115-0.056-0.292-0.129-0.559-0.214c-0.975-0.306-1.624-0.557-1.984-0.769
		c-0.352-0.199-0.624-0.438-0.844-0.701c-0.089,0.123-0.199,0.246-0.364,0.36l-1.904,1.403c-1.37,0.917-2.461,1.357-3.354,1.357
		c-0.881,0-1.649-0.436-2.284-1.295c-0.546-0.774-0.82-1.589-0.82-2.431c0-1.188,0.562-2.23,1.67-3.098
		c1.003-0.795,2.103-1.199,3.266-1.199c0.666,0,1.244,0.157,1.718,0.467c0.167,0.083,0.293,0.293,0.293,0.536
		c0,0.375-0.287,0.756-1.023,1.359c-0.485,0.403-0.84,0.784-1.419,1.131C-26.543,39.481-28,39.751-28,39.856
		c0,0.008,0,0.017,0,0.025c0,0.397-0.064,0.78,0.188,1.17c0.42,0.66,0.713,0.66,0.84,0.66c0.356-0.013,0.95-0.2,2.187-1.02
		c1.176-0.79,1.397-1.063,1.443-1.128c0.218-0.387,0.518-0.827,0.966-0.827c0.077,0,0.148,0.015,0.225,0.036
		c0.033-0.85,0.413-1.729,1.187-2.619c0.383-0.431,1.098-1.08,2.189-1.988c0.48-0.4,1.044-0.486,1.596-0.241
		c0.205,0.114,0.371,0.211,0.542,0.313c0.286,0.195,0.532,0.4,0.574,0.695c0.058,0.315-0.053,0.533-0.156,0.657
		c-0.107,0.129-0.315,0.283-0.691,0.283c-0.202,0-0.407-0.052-0.61-0.153c-0.032-0.016-0.06-0.03-0.083-0.041
		c-0.105,0.022-0.239,0.094-0.383,0.214l-1.307,1.208c-0.346,0.307-0.616,0.67-0.809,1.086
		C-20.31,38.635-20.314,38.859-20.298,38.953z"/>
	<path fill="#FF33FF" d="M-73.9,41.908c0,0.034,0.001,0.062,0.003,0.083c0.215,0.032,0.664-0.055,1.424-0.6
		c-0.199-0.523-0.351-0.687-0.403-0.73c-0.337,0.07-0.592,0.236-0.777,0.505C-73.82,41.402-73.9,41.643-73.9,41.908z"/>
</g>
<path fill="#FF33FF" d="M71,26H4l-4,4v16l4,4h59.079c0.038-0.283,0.136-0.467,0.255-0.582c0.063-0.342,0.219-1.46,0.585-5.074
	c0.176-1.675,0.298-3.201,0.365-4.557c-2.058,2.385-2.821,2.738-3.337,2.738C60.479,42.511,60,42.223,60,40.934
	c0-0.014,0-0.031,0-0.052c0,0.1-0.368,0.209-0.575,0.34c-0.938,0.583-1.899,1.08-2.813,1.48c-1.249,0.53-2.338,0.798-3.221,0.798
	c-0.967,0-1.705-0.314-2.183-0.934c-0.262-0.33-0.396-0.741-0.412-1.207c0.007,0.711,0.019,0.988,0.027,1.089
	c0.209,0.441,0.302,0.743,0.302,0.972c0,0.559-0.349,0.92-0.888,0.92c-0.306,0-0.59-0.117-0.846-0.346
	c-0.268-0.239-0.41-0.554-0.41-0.91c0-0.067,0.01-0.011,0.035-0.137C49.024,42.905,49.031,43,49.032,43h0.007
	c-0.027-1-0.052-0.646-0.089-1.117c-0.068-0.669-0.098-1.466-0.086-2.208c0.018-0.688,0.017-1.225,0.008-1.584
	c-0.058,0.103-0.122,0.2-0.192,0.333c-0.502,0.944-0.957,1.941-1.352,2.983c-0.151,0.401-0.299,0.861-0.438,1.376
	c-0.115,0.431-0.239,0.659-0.426,0.793c-0.274,0.136-0.447,0.177-0.611,0.177c-0.228,0-0.97-0.091-0.97-1.256
	c0-0.125,0.017-0.532,0.051-1.218c0.015-0.243,0.017-0.47,0.027-0.708c-0.077,0.086-0.168,0.172-0.285,0.253l-1.903,1.403
	c-1.369,0.917-2.46,1.357-3.354,1.357c-0.881,0-1.649-0.436-2.284-1.294c-0.546-0.775-0.819-1.589-0.819-2.431
	c0-0.992,0.414-1.875,1.188-2.646l-0.12,0.015c-0.136,0-0.286-0.028-0.458-0.086c-0.166-0.055-0.227-0.058-0.229-0.058
	c-0.051,0-0.108,0.02-0.175,0.061c-0.994,0.561-2.129,1.812-3.389,3.729c-0.201,0.302-0.329,0.729-0.382,1.27
	c-0.098,0.99-0.153,1.146-0.267,1.289c-0.197,0.241-0.467,0.372-0.761,0.372c-0.32,0-0.604-0.126-0.822-0.365
	c-0.173-0.171-0.266-0.441-0.266-0.807c0-0.114,0.012-0.341,0.105-1.087c0.087-0.604,0.142-1.136,0.165-1.592
	c0.021-0.406,0.032-0.778,0.032-1.118c0-0.502-0.022-0.94-0.066-1.312l-0.516-0.327c-0.092-0.014-0.178-0.018-0.285-0.054
	c-0.167-0.056-0.227-0.058-0.229-0.058c-0.05,0-0.109,0.02-0.173,0.06c-0.994,0.561-2.129,1.812-3.389,3.729
	c-0.201,0.302-0.329,0.728-0.382,1.27c-0.103,1.037-0.165,1.159-0.265,1.286c-0.203,0.248-0.464,0.375-0.762,0.375
	c-0.321,0-0.605-0.126-0.823-0.365c-0.173-0.171-0.265-0.441-0.265-0.807c0-0.106,0.011-0.334,0.104-1.086
	c0.088-0.609,0.143-1.141,0.165-1.592c0.022-0.407,0.033-0.78,0.033-1.119c0-0.536-0.025-1-0.075-1.387l-0.807,1.304
	c-0.097,0.424-0.206,0.871-0.336,1.355c-0.678,2.419-1.196,2.947-1.613,3.144c-0.238,0.12-0.488,0.183-0.734,0.183
	c-0.963,0-1.638-0.828-2.055-2.545c-0.148,0.098-0.313,0.205-0.517,0.334c-0.937,0.583-1.874,1.08-2.789,1.48
	c-1.267,0.538-2.314,0.798-3.208,0.798c-0.966,0-1.698-0.314-2.176-0.934c-0.28-0.353-0.423-0.791-0.423-1.297
	c0-1.054,0.524-2.234,1.557-3.507c1.032-1.266,1.971-1.946,2.869-2.078c0.138-0.016,0.251-0.022,0.358-0.022
	c0.79,0,1.071,0.466,1.071,0.903c0,0.269-0.108,0.546-0.321,0.825c-0.306,0.398-0.631,0.482-0.851,0.482
	c-0.096,0-0.213-0.017-0.379-0.054c-0.128-0.029-0.173-0.03-0.175-0.03c-0.032,0.009-0.323,0.131-1.167,1.218
	c-0.858,1.097-1.038,1.754-1.038,2.112c0,0.231,0.081,0.381,0.271,0.502c0.114,0.07,0.292,0.107,0.522,0.107
	c0.799,0,2.027-0.428,3.65-1.271c0.791-0.45,1.603-0.91,2.421-1.37c0.005-0.002,0.011-0.002,0.016-0.005
	c-0.092-0.795-0.156-1.695-0.187-2.719c-0.018-0.352,0.059-0.625,0.233-0.824c0.164-0.185,0.383-0.286,0.618-0.286l0.158,0.015
	c0.593,0.114,0.933,0.542,0.914,1.146c-0.054,1.397,0.044,2.654,0.291,3.737c0.125,0.579,0.243,0.899,0.328,1.073
	c0.297-0.57,0.554-1.384,0.761-2.421c0.15-0.793,0.232-1.416,0.242-1.846c0.021-0.807,0.523-1.094,0.988-1.094
	c0.322,0.013,0.917,0.144,1.018,1.123l0.006,0.061l-0.001,0.009l0.309-1.237c0.026-0.042,0.054-0.083,0.083-0.12l1.013-0.381
	c0.174,0.041,0.34,0.132,0.497,0.274c0.325,0.307,0.472,0.904,0.5,2.004c0.004,0.172,0.008,0.382,0.011,0.63
	c0.516-0.605,0.986-1.106,1.401-1.49c0.749-0.703,0.956-0.874,1.053-0.944c0.824-0.57,1.642-0.687,2.536-0.389l0.001,0l0.848-0.088
	c0.177,0.04,0.346,0.132,0.504,0.276c0.325,0.306,0.473,0.903,0.5,2.004c0.004,0.172,0.008,0.383,0.011,0.631
	c0.514-0.603,0.984-1.104,1.4-1.49c0.752-0.705,0.959-0.875,1.056-0.945c0.823-0.57,1.646-0.685,2.534-0.388
	c0.181,0.065,0.577,0.275,0.577,0.911c0,0.078-0.02,0.148-0.037,0.22c0.911-0.633,1.894-0.972,2.93-0.972
	c0.666,0,1.244,0.157,1.719,0.467c0.168,0.085,0.294,0.295,0.294,0.536c0,0.375-0.287,0.756-1.024,1.359
	c-0.481,0.401-1.167,0.782-1.749,1.131C39.787,39.482,39,39.751,38,39.856c0,0.008,0,0.017,0,0.025c0,0.397,0.266,0.78,0.518,1.169
	c0.422,0.661,0.879,0.661,1.006,0.661c0.357-0.013,1.034-0.2,2.271-1.02c1.176-0.79,1.438-1.063,1.484-1.128
	c0.218-0.387,0.538-0.827,0.986-0.827c0.173,0,0.351,0.054,0.521,0.16c0.094,0.069,0.17,0.14,0.231,0.211
	c0.025-1.109,0.099-2.129,0.223-3.031c0.104-0.607,0.514-0.818,0.864-0.818c0.383,0,0.708,0.162,0.938,0.467
	c0.111,0.143,0.168,0.336,0.168,0.587c0,0.097-0.025,0.376-0.08,0.84c-0.007,0.06-0.013,0.119-0.02,0.178
	c1.095-1.866,1.737-2.166,2.229-2.166l0.195,0.021c0.934,0.188,1.096,1.415,1.149,1.818c0.081,0.583,0.115,1.641,0.104,3.227
	c0,0.373,0.001,0.679,0.003,0.939c0.031-1.03,0.543-2.174,1.544-3.408c1.034-1.267,1.973-1.946,2.869-2.078
	c0.138-0.016,0.252-0.022,0.359-0.022c0.79,0,1.071,0.466,1.071,0.903c0,0.268-0.108,0.545-0.321,0.825
	c-0.305,0.398-0.631,0.482-0.852,0.482c-0.096,0-0.213-0.017-0.379-0.054c-0.128-0.029-0.173-0.03-0.175-0.03
	c-0.032,0.009-0.325,0.131-1.167,1.218c-0.858,1.097-1.038,1.754-1.038,2.112c0,0.231,0.081,0.381,0.271,0.502
	c0.114,0.069,0.292,0.107,0.522,0.107c0.799,0,2.027-0.428,3.65-1.271c0.789-0.45,1.603-0.91,2.421-1.37
	c0.183-0.092,0.363-0.11,0.532-0.083c0.063-0.49,0.147-1.105,0.259-1.887c0.093-0.679,0.145-1.049,0.157-1.107
	c0.145-0.601,0.467-0.802,0.713-0.868l0.197-0.029c0.188,0,0.382,0.071,0.594,0.217c0.361,0.25,0.457,0.54,0.475,0.738
	c0.002,0.121,0.002,0.208-0.344,1.955c-0.147,0.764-0.23,1.282-0.276,1.632c0.119-0.117,0.267-0.267,0.445-0.458
	c0.254-0.276,0.894-1.011,1.919-2.202l-0.001,0c-0.007,0,0.074-0.149,0.208-0.398c0.259-0.469,0.583-0.566,0.81-0.566
	c0.109,0,0.225,0.02,0.342,0.059c0.663,0.249,0.746,1.138,0.746,1.886c0,0.214-0.013,0.415-0.038,0.604
	c-0.155,1.574-0.418,4.101-0.788,7.564c-0.079,0.712-0.18,1.506-0.304,2.385c-0.09,0.625-0.117,0.878-0.126,0.98
	c0.099,0.153,0.158,0.319,0.197,0.49H71l4-4V30L71,26z"/>
<g>
	<path fill="#FF33FF" d="M128.576,38.929c0.05-0.231-0.131-0.57-0.508-0.955c-0.272-0.279-0.539-0.474-0.797-0.585
		c-0.083,0.437-0.188,1.025-0.318,1.766c-0.073,0.449-0.166,1.128-0.279,2.061c0.147-0.1,0.287-0.201,0.417-0.304
		C127.935,40.248,128.435,39.581,128.576,38.929z"/>
	<path fill="#FF33FF" d="M120.506,41.166c-0.169,0.237-0.249,0.477-0.249,0.742c0,0.034,0.001,0.062,0.003,0.083
		c0.024,0.004,0.048,0.005,0.068,0.005c0.242,0,0.667-0.111,1.356-0.604c-0.199-0.524-0.351-0.687-0.402-0.73
		C120.944,40.731,120.69,40.897,120.506,41.166z"/>
	<path fill="#FF33FF" d="M155,26H88l-4,4v16l4,4h36.501c-0.032-0.118-0.053-0.244-0.053-0.381c0-0.164,0.033-0.319,0.1-0.461
		c-0.002-0.095-0.013-0.286-0.028-0.596l-0.02-0.372c-0.034-0.643-0.052-1.271-0.052-1.885c0-0.489,0.012-0.985,0.035-1.486
		c0.067-1.543,0.164-2.912,0.287-4.066c0.034-0.249,0.182-1.369,0.444-3.375c-0.284-0.219-0.421-0.539-0.376-0.905
		c0.09-0.414,0.368-0.702,0.836-0.903c0.322-0.14,0.602-0.209,0.853-0.209c0.804,0.013,1.606,0.311,2.396,0.886
		c0.728,0.549,1.199,1.204,1.424,1.95c0.155-0.669,0.513-1.352,1.111-2.042c0.385-0.432,1.1-1.08,2.192-1.988
		c0.48-0.4,1.044-0.486,1.597-0.241c0.205,0.114,0.371,0.211,0.542,0.313c0.285,0.195,0.53,0.4,0.573,0.692
		c0.058,0.32-0.053,0.538-0.156,0.661c-0.108,0.128-0.315,0.282-0.691,0.282c-0.202,0-0.407-0.052-0.61-0.154
		c-0.031-0.016-0.059-0.029-0.082-0.04c-0.105,0.023-0.238,0.094-0.382,0.213l-1.309,1.209c-0.345,0.306-0.615,0.67-0.81,1.087
		c-0.206,0.448-0.211,0.671-0.195,0.765c0.053,0.307,0.214,0.525,0.505,0.686l1.383,0.526c1.072,0.414,1.317,0.529,1.423,0.593
		c0.511,0.315,0.818,0.79,0.893,1.372c0.062,0.553-0.414,1.147-1.644,1.91c-1.334,0.83-1.648,0.96-1.856,0.96h-0.036l-0.055-0.067
		c-0.747-0.018-1.034-0.533-1.034-0.979c0-0.209,0.077-0.424,0.223-0.594l0.164-0.133l1.345-0.642
		c0.392-0.196,0.622-0.342,0.756-0.44c-0.115-0.056-0.292-0.129-0.559-0.214c-0.975-0.305-1.624-0.557-1.983-0.769
		c-0.681-0.384-1.104-0.897-1.287-1.516c-0.133,0.378-0.363,0.787-0.722,1.242c-0.416,0.555-0.959,1.128-1.608,1.696
		c-0.857,0.752-1.072,0.84-1.249,0.872c-0.066,0.019-0.217,0.029-0.339,0.008c-0.039,0.585-0.086,1.495-0.14,2.904
		c-0.043,2.456,0.014,2.907,0.032,2.986c0.062,0.132,0.102,0.308,0.102,0.479c0,0.059-0.023,0.108-0.032,0.164H155l4-4V30L155,26z
		 M117.321,43.147c-0.351,0-0.646-0.176-0.81-0.482c-0.119-0.215-0.245-0.638-0.245-2.101c0.022-0.741,0.039-1.466,0.051-2.192
		c0.004-0.461-0.017-0.787-0.047-1.016c-0.063,0.097-0.138,0.211-0.223,0.348c-0.478,0.771-0.905,1.612-1.271,2.497
		c-0.271,0.661-0.553,1.559-0.836,2.629c-0.089,0.342-0.299,1.17-0.945,1.17h-0.058l-0.098-0.039
		c-0.501-0.13-0.821-0.468-0.914-0.937c-0.011-0.153-0.033-0.735-0.077-1.83c-0.061-1.7-0.125-2.701-0.179-3.285
		c-0.095,0.182-0.209,0.416-0.343,0.717c-0.529,1.172-0.884,2.321-1.055,3.418l0.006,0.7c0,0.33-0.039,0.796-0.377,1.028
		c-0.178,0.122-0.394,0.183-0.642,0.183l-0.101-0.003c-0.447-0.026-0.665-0.228-0.77-0.393c-0.121-0.186-0.17-0.463-0.17-0.984
		c0-0.398,0.089-1.529,0.271-3.457c0.031-0.33,0.037-0.539,0.016-0.944c-0.008-0.128-0.015-0.174-0.021-0.174H108v-0.828
		c0-0.315,0.316-0.57,0.492-0.758c0.127-0.136,0.475-0.297,0.869-0.297c0.281,0,0.58,0.106,0.754,0.306
		c0.04,0.042,0.105,0.086,0.141,0.135c0.756-1.371,1.237-1.685,1.675-1.685c0.359,0,0.876,0.151,1.257,0.872
		c0.083,0.122,0.242,0.356,0.392,2.597c0.115-0.228,0.229-0.443,0.341-0.646c1.269-2.362,1.94-2.75,2.43-2.818l0.114-0.008
		c0.314,0,0.617,0.16,0.929,0.488c0.291,0.308,0.47,0.602,0.547,0.9c0.07,0.25,0.17,0.823,0.201,2.812
		c0.011,1.145,0.011,1.919,0,2.327c0.001,0,0.006,0.077,0.064,0.279c0.071,0.253,0.104,0.427,0.104,0.567
		C118.309,42.66,118.05,43.147,117.321,43.147z M124.104,41.9c-0.225,0.944-0.358,1.24-0.533,1.388
		c-0.103,0.1-0.27,0.198-0.53,0.198l-0.104-0.005c-0.311-0.028-0.501-0.17-0.607-0.284c-0.005-0.005-0.01-0.011-0.015-0.016
		c-0.73,0.413-1.408,0.621-2.021,0.621c-0.555,0-1.004-0.176-1.336-0.524c-0.326-0.34-0.491-0.779-0.491-1.303
		c0-0.679,0.242-1.347,0.721-1.988c0.495-0.662,1.087-1.047,1.757-1.145c0.101-0.014,0.387-0.02,0.477-0.02
		c0.416,0,0.578,0.135,1.578,0.641c0-0.025,0-0.05,0-0.076c0-0.685-0.357-1.333-0.684-1.926c-0.163-0.303-0.463-0.43-0.783-0.43
		c-0.228,0-0.489,0.058-0.701,0.178c-0.082,0.047-0.162,0.085-0.199,0.114l-0.007,0.027l-0.165,0.234
		c-0.081,0.1-0.239,0.219-0.516,0.219c-0.562,0-0.941-0.323-0.986-0.843c-0.041-0.494,0.26-0.922,0.891-1.277
		c0.94-0.529,2.148-0.594,2.881-0.129c1.145,0.721,1.727,1.999,1.727,3.799C124.457,40.154,124.339,41.011,124.104,41.9z"/>
</g>
<g>
	<path fill="#FF33FF" d="M207.041,37.708c-0.04-0.035-0.115-0.081-0.244-0.12l-0.075,0.019c-0.208,0.05-0.407,0.151-0.608,0.31
		c-0.516,0.423-0.946,1.127-1.271,2.086c-0.049,0.141-0.073,0.306-0.073,0.495c0,0.326,0.062,0.621,0.185,0.875
		c0.169,0.321,0.332,0.321,0.402,0.321c0.248,0,0.57-0.149,0.93-0.431c0.379-0.283,0.632-0.557,0.764-0.82
		c0.287-0.578,0.433-1.085,0.433-1.508c0-0.278-0.058-0.541-0.175-0.804C207.17,37.844,207.075,37.739,207.041,37.708z"/>
	<path fill="#FF33FF" d="M199.092,37.605c-0.072,0.414-0.158,1.037-0.256,1.858c-0.008,0.235-0.013,0.502-0.013,0.765
		c0,0.454,0.016,0.874,0.045,1.256c2.272-1.729,2.634-2.625,2.634-3.02c0-0.24-0.258-0.448-0.767-0.618
		C200.222,37.672,199.652,37.583,199.092,37.605z"/>
	<path fill="#FF33FF" d="M192.536,41.166c-0.169,0.237-0.249,0.477-0.249,0.742c0,0.034,0.001,0.062,0.003,0.083
		c0.024,0.004,0.048,0.005,0.068,0.005c0.242,0,0.667-0.111,1.356-0.604c-0.199-0.524-0.351-0.687-0.402-0.73
		C192.975,40.731,192.721,40.897,192.536,41.166z"/>
	<path fill="#FF33FF" d="M239,26h-67l-4,4v16l4,4h67l4-4V30L239,26z M196.135,41.9c-0.225,0.944-0.358,1.24-0.533,1.388
		c-0.103,0.101-0.27,0.198-0.53,0.198l-0.104-0.005c-0.311-0.028-0.502-0.17-0.607-0.284c-0.005-0.005-0.01-0.011-0.015-0.016
		c-0.73,0.413-1.408,0.621-2.021,0.621c-0.555,0-1.004-0.176-1.336-0.524c-0.326-0.34-0.491-0.779-0.491-1.303
		c0-0.678,0.242-1.347,0.721-1.988c0.495-0.662,1.087-1.047,1.757-1.145c0.101-0.014,0.371-0.02,0.462-0.02
		c0.416,0,0.562,0.135,1.562,0.641c0-0.025,0-0.05,0-0.076c0-0.685-0.342-1.333-0.668-1.926c-0.164-0.303-0.456-0.43-0.776-0.43
		c-0.228,0-0.485,0.058-0.697,0.178c-0.082,0.047-0.159,0.085-0.197,0.114l-0.006,0.027l-0.164,0.234
		c-0.081,0.1-0.239,0.219-0.516,0.219c-0.562,0-0.942-0.323-0.987-0.843c-0.04-0.494,0.261-0.922,0.892-1.277
		c0.94-0.529,2.148-0.594,2.881-0.129c1.145,0.721,1.727,1.999,1.727,3.799C196.487,40.154,196.369,41.011,196.135,41.9z
		 M207.87,42.374c-0.869,0.793-1.779,1.193-2.71,1.193c-0.329,0-0.617-0.065-0.858-0.194c-0.395-0.197-0.748-0.577-1.036-1.123
		c-0.278-0.523-0.42-1.108-0.42-1.737c0-0.206,0.031-0.407,0.064-0.608c-0.318,0.499-0.773,1.045-1.378,1.65
		c-0.705,0.625-1.381,1.229-2.053,1.833l-0.208,0.272c-0.147,0.177-0.352,0.268-0.586,0.268l-0.177-0.015
		c-0.475-0.082-0.789-0.366-0.878-0.778c-0.344-0.098-0.509-0.293-0.596-0.465c-0.074-0.183-0.159-0.397-0.034-2.621
		c0.058-1.13,0.117-1.972,0.178-2.507c-0.07-0.108-0.139-0.245-0.209-0.418l-0.034-0.134c-0.029-0.268,0.053-0.634,0.564-0.935
		c0.337-1.299,0.508-2.37,0.508-3.186c-0.004-0.044-0.026-0.132-0.06-0.257c-0.062-0.241-0.092-0.42-0.092-0.566
		c0-0.514,0.338-0.875,0.861-0.918c0.36,0.012,0.691,0.198,0.926,0.596c0.195,0.375,0.288,0.787,0.288,1.246
		c0,0.435-0.061,0.929-0.18,1.469c-0.126,0.529-0.226,0.957-0.298,1.285c2.006,0.095,3.079,0.782,3.647,2.048
		C203.188,37.96,203,38.165,203,38.38c0,0.001,0,0.002,0,0.003c1-1.737,2.055-2.634,3.15-2.719c0.555-0.042,1.224,0.15,1.771,0.573
		c0.682,0.513,1.161,1.273,1.305,2.255c0.026,0.224,0.067,0.434,0.067,0.644C209.294,40.384,208.834,41.473,207.87,42.374z
		 M222.821,36.421c-0.163,0.171-0.396,0.258-0.693,0.258c-0.081,0-0.203-0.009-0.365-0.029c-0.1-0.012-0.17-0.021-0.207-0.021
		c-0.642,0-1.431,0.095-2.35,0.284c-0.215,1.866-0.324,3.455-0.324,4.727c0,0.294,0.006,0.562,0.017,0.801l0.029,0.111
		c0.037,0.161,0.055,0.296,0.055,0.415c0,0.55-0.355,0.906-0.906,0.906l-0.101-0.004c-0.369-0.021-0.684-0.234-0.876-0.603
		c-0.133-0.264-0.19-0.545-0.175-0.845c-0.001-0.582,0.062-1.775,0.186-3.521c0.05-0.392,0.111-0.893,0.184-1.512
		c-0.184,0.062-0.405,0.14-0.675,0.237c-0.183,0.09-0.42,0.237-0.659,0.417c-0.255,0.191-0.445,0.273-0.637,0.273l-0.194-0.032
		c-0.155-0.04-0.276-0.095-0.381-0.157c-0.119,0.594-0.274,1.25-0.471,1.981c-0.678,2.418-1.194,2.946-1.611,3.144
		c-0.239,0.12-0.49,0.183-0.736,0.183c-1.592,0-2.401-2.247-2.549-7.07c-0.019-0.352,0.058-0.625,0.232-0.824
		c0.164-0.185,0.383-0.286,0.619-0.286l0.157,0.014c0.593,0.115,0.933,0.542,0.915,1.146c-0.055,1.398,0.042,2.655,0.289,3.738
		c0.126,0.58,0.244,0.9,0.328,1.074c0.298-0.569,0.554-1.384,0.761-2.421c0.15-0.793,0.232-1.416,0.242-1.846
		c0.022-0.808,0.525-1.095,0.988-1.095c0.25,0.01,0.662,0.097,0.882,0.591c0.262-0.189,0.579-0.33,0.855-0.436
		c0.362-0.145,0.992-0.355,1.915-0.639c0.08-0.554,0.24-1.522,0.395-2.888c0.01-0.073,0.04-0.145,0.04-0.241v-0.457
		c0-1.071,0.625-1.154,0.83-1.154c0.457,0,0.98,0.296,0.98,1.705c0,0.271-0.028,0.588-0.063,0.953
		c-0.057,0.357-0.146,0.92-0.263,1.705c0.717-0.099,1.41-0.13,2.085-0.096c0.469,0.017,0.643,0.056,0.751,0.092
		c0.404,0.095,0.686,0.403,0.711,0.813C223.046,36.12,222.925,36.312,222.821,36.421z"/>
</g>
</svg>
